<svg xmlns="http://www.w3.org/2000/svg" style="border: 0 !important; clip: rect(0 0 0 0) !important; height: 1px !important; margin: -1px !important; overflow: hidden !important; padding: 0 !important; position: absolute !important; width: 1px !important;" class="root-svg-symbols-element">
  <defs>
      <clipPath id="clip0"><path fill="#fff" d="M0 0H33V33H0z"/></clipPath>
<clipPath id="clip0"><path fill="#fff" d="M0 0H47V47H0z"/></clipPath>
<clipPath id="clip0"><path fill="currentColor" d="M0 0H30V30H0z"/></clipPath>
<clipPath id="clip0"><path fill="#fff" d="M0 0H48V48H0z"/></clipPath>
  </defs>
    <symbol id="arrow" viewBox="0 0 70 41">
      <path d="M28.4375 25.6886C15.0566 25.1111 4.37489 14.1104 4.37489 0.587177H0C0 16.405 12.4468 29.2805 28.0765 30.0438C28.1991 30.0657 28.3084 30.1182 28.4375 30.1182L62.5318 30.1182L55.4399 37.21C54.589 38.061 54.589 39.4522 55.4399 40.3032C56.2909 41.1542 57.6821 41.1542 58.5331 40.3032L69.3612 29.4751C69.8009 29.0354 70.0044 28.4535 69.9891 27.8738C70.0022 27.2942 69.8009 26.7123 69.3612 26.2726L58.5331 15.4445C57.6821 14.5935 56.2909 14.5935 55.4399 15.4445C54.589 16.2955 54.589 17.6867 55.4399 18.5377L62.6456 25.7433H61.25H44.9422L28.4375 25.7433V25.6886Z" fill="#69CCDB"/>
    </symbol>
    <symbol id="breadcrumbs-sep" viewBox="0 0 10 17">
      <path d="M1 1L9 8.5L1 16" stroke="#BFBFBF"/>
    </symbol>
    <symbol id="burger-icon" viewBox="0 0 51 34">
      <path fill="currentColor" d="M0 0H51V4H0z"/><path fill="currentColor" d="M0 15H51V19H0z"/><path fill="currentColor" d="M0 30H51V34H0z"/>
    </symbol>
    <symbol id="close-icon" viewBox="0 0 23 23">
      <path d="M1 1L22 22" stroke="currentColor"/><path d="M22 1L0.999999 22" stroke="currentColor"/>
    </symbol>
    <symbol id="first-nav-icon" viewBox="0 0 26 25">
      <path fill-rule="evenodd" clip-rule="evenodd" d="M5 0H4V1V5.28571H2H0V7.28571V22.5714V24.5714H2H17.2857H19.2857V22.5714V21.2857H24.2857H25.2857V20.2857V1V0H24.2857H5ZM19.2857 19.2857H23.2857V2H6V5.28571H17.2857H19.2857V7.28571V19.2857ZM2 7.28571H17.2857V22.5714H2V7.28571Z" fill="#EF7E20"/>
    </symbol>
    <symbol id="like-icon" viewBox="0 0 51 51">
      <path d="M48.8004 34.6719C49.8455 33.3388 50.3468 31.9097 50.2828 30.4379C50.2188 28.8168 49.4936 27.5477 48.8964 26.7691C49.5896 25.0414 49.8562 22.3218 47.5419 20.2102C45.8462 18.6637 42.9666 17.9705 38.9779 18.1625C36.173 18.2905 33.8267 18.813 33.7307 18.8344H33.7201C33.1868 18.9304 32.6216 19.0477 32.0457 19.1757C32.003 18.4931 32.1203 16.7974 33.3788 12.9793C34.8719 8.43601 34.7866 4.95922 33.1015 2.63425C31.3311 0.19197 28.5049 0 27.673 0C26.8731 0 26.1373 0.330615 25.6147 0.938519C24.4309 2.3143 24.5695 4.85257 24.7188 6.02572C23.311 9.80113 19.365 19.0583 16.0268 21.6286C15.9629 21.6713 15.9095 21.7246 15.8562 21.7779C14.875 22.8124 14.2138 23.9322 13.7659 24.9134C13.1366 24.5721 12.4221 24.3802 11.6542 24.3802H5.14855C2.6956 24.3802 0.711914 26.3745 0.711914 28.8168V46.1474C0.711914 48.6004 2.70627 50.5841 5.14855 50.5841H11.6542C12.6034 50.5841 13.4886 50.2854 14.2138 49.7735L16.7201 50.0721C17.104 50.1255 23.9296 50.9893 30.9365 50.8507C32.2056 50.9467 33.4001 51 34.5093 51C36.4183 51 38.0821 50.8507 39.4685 50.5521C42.732 49.8588 44.961 48.4724 46.0915 46.4354C46.9553 44.8783 46.9553 43.3319 46.8167 42.3507C48.939 40.431 49.3123 38.3087 49.2376 36.8156C49.195 35.9517 49.003 35.2158 48.8004 34.6719ZM5.14855 47.7045C4.28469 47.7045 3.59146 47.0006 3.59146 46.1474V28.8061C3.59146 27.9423 4.29535 27.2491 5.14855 27.2491H11.6542C12.5181 27.2491 13.2113 27.9529 13.2113 28.8061V46.1368C13.2113 47.0006 12.5074 47.6939 11.6542 47.6939H5.14855V47.7045ZM46.0701 33.4241C45.6222 33.8933 45.5369 34.6079 45.8782 35.1625C45.8782 35.1731 46.3154 35.9197 46.3687 36.9435C46.4434 38.3407 45.7715 39.5778 44.3637 40.6336C43.8625 41.0176 43.6598 41.6788 43.8731 42.276C43.8731 42.2867 44.3317 43.6945 43.5852 45.0276C42.8706 46.3074 41.2815 47.2246 38.8713 47.7365C36.9409 48.1524 34.3173 48.2271 31.0965 47.9711C31.0538 47.9711 31.0005 47.9711 30.9472 47.9711C24.0896 48.1204 17.1573 47.2246 17.0827 47.2139H17.072L15.9948 47.0859C16.0588 46.7873 16.0908 46.4674 16.0908 46.1474V28.8061C16.0908 28.3476 16.0162 27.8996 15.8882 27.4837C16.0802 26.7691 16.6134 25.18 17.8719 23.8256C22.6605 20.0289 27.3424 7.2202 27.545 6.66562C27.6304 6.44166 27.6517 6.19636 27.609 5.95107C27.4277 4.75659 27.4917 3.29548 27.7477 2.85822C28.3129 2.86888 29.838 3.02886 30.7552 4.29799C31.843 5.80176 31.8004 8.48934 30.6272 12.0514C28.8355 17.4799 28.6862 20.3381 30.1046 21.5966C30.8085 22.2258 31.747 22.2578 32.4296 22.0125C33.0802 21.8632 33.6987 21.7353 34.2853 21.6393C34.328 21.6286 34.3813 21.6179 34.424 21.6073C37.6981 20.8927 43.5639 20.4555 45.6009 22.3112C47.3286 23.8896 46.1021 25.9799 45.9635 26.2039C45.5689 26.8011 45.6862 27.5797 46.2194 28.0596C46.2301 28.0703 47.3499 29.1261 47.4033 30.5445C47.4459 31.4937 46.998 32.4642 46.0701 33.4241Z" fill="#EF7E20"/>
    </symbol>
    <symbol id="list-check-icon" viewBox="0 0 33 33">
      <g clip-path="url(#clip0)"><path d="M32.6294 4.35516C32.123 3.83077 31.2874 3.81622 30.763 4.32267C30.752 4.33327 30.7412 4.3441 30.7305 4.35516L9.22378 25.862L2.23701 18.8752C1.71262 18.3687 0.877 18.3833 0.370554 18.9077C-0.123518 19.4192 -0.123518 20.2302 0.370554 20.7417L8.29055 28.6617C8.80604 29.1771 9.64159 29.1771 10.157 28.6617L32.597 6.22169C33.1214 5.71517 33.1359 4.87955 32.6294 4.35516Z" fill="#EF7E20"/></g>
    </symbol>
    <symbol id="phone-icon" viewBox="0 0 23 23">
      <path d="M17.4861 15.2148C16.7347 14.4729 15.7967 14.4729 15.05 15.2148C14.4805 15.7795 13.9109 16.3443 13.351 16.9186C13.1978 17.0766 13.0686 17.1101 12.8819 17.0048C12.5134 16.8038 12.1209 16.641 11.7668 16.4209C10.1156 15.3823 8.7324 14.047 7.50716 12.5442C6.89933 11.7975 6.3585 10.9982 5.9804 10.0985C5.90383 9.91659 5.91818 9.79694 6.06655 9.64857C6.6361 9.09817 7.19128 8.53342 7.75125 7.96866C8.53138 7.18374 8.53138 6.26481 7.74647 5.47511C7.30136 5.02522 6.85626 4.5849 6.41115 4.13501C5.95169 3.67554 5.49701 3.21129 5.03276 2.75661C4.28134 2.02434 3.34327 2.02434 2.59664 2.7614C2.02231 3.32616 1.47191 3.90527 0.88801 4.46046C0.347183 4.97257 0.0743758 5.59955 0.0169428 6.33182C-0.0739928 7.52355 0.217958 8.64828 0.629561 9.7443C1.47191 12.0129 2.75458 14.0278 4.31006 15.8753C6.41115 18.3736 8.91906 20.3503 11.8529 21.7765C13.1739 22.4178 14.5427 22.9108 16.0312 22.9922C17.0554 23.0496 17.9456 22.7912 18.6587 21.9919C19.1469 21.4463 19.6973 20.9485 20.2142 20.4268C20.98 19.6515 20.9848 18.7134 20.2238 17.9476C19.3144 17.0335 18.4003 16.1241 17.4861 15.2148Z" fill="#69CCDB"/><path d="M16.572 11.4005L18.3381 11.099C18.0605 9.47653 17.2947 8.0072 16.1317 6.8394C14.9017 5.60938 13.3462 4.83403 11.6328 4.59473L11.3839 6.37036C12.7096 6.55702 13.9157 7.15528 14.8682 8.10771C15.7679 9.0075 16.3566 10.1466 16.572 11.4005Z" fill="#69CCDB"/><path d="M19.3336 3.72357C17.2947 1.6847 14.715 0.397245 11.8673 0L11.6184 1.77564C14.0785 2.12023 16.3088 3.23539 18.07 4.99188C19.7404 6.66223 20.8364 8.77289 21.2336 11.0941L22.9997 10.7926C22.5355 8.10284 21.2672 5.66194 19.3336 3.72357Z" fill="#69CCDB"/>
    </symbol>
    <symbol id="scheme-marker" viewBox="0 0 57 57">
      <circle cx="28.5" cy="28.5" r="27" fill="#69CCDB" stroke="#fff" stroke-width="3"/><path d="M11.4264 23.3426L28.0405 33.686C28.1802 33.7742 28.3419 33.8184 28.5037 33.8184C28.6654 33.8184 28.8271 33.7742 28.9668 33.686L45.581 23.3426C45.8383 23.1809 46 22.9015 46 22.5928C46 22.2914 45.8456 22.0047 45.581 21.8429L28.9668 11.4995C28.6801 11.3231 28.3199 11.3231 28.0332 11.4995L11.419 21.8429C11.1617 22.0047 11 22.284 11 22.5928C11.0074 22.9015 11.1617 23.1809 11.4264 23.3426ZM28.5037 13.2859L43.4491 22.5928L28.5037 31.8996L13.5583 22.5928L28.5037 13.2859Z" fill="#fff"/><path d="M45.1178 27.6211C44.8825 27.6211 44.6546 27.7167 44.4929 27.8784C44.3312 28.0401 44.2356 28.268 44.2356 28.5033C44.2356 28.7385 44.3312 28.9664 44.4929 29.1281C44.6546 29.2899 44.8825 29.3854 45.1178 29.3854C45.353 29.3854 45.5809 29.2899 45.7426 29.1281C45.9044 28.9664 45.9999 28.7385 45.9999 28.5033C45.9999 28.268 45.9044 28.0401 45.7426 27.8784C45.5809 27.7167 45.353 27.6211 45.1178 27.6211Z" fill="#fff"/><path d="M41.8832 29.4811C41.4715 29.7384 41.3392 30.2824 41.6038 30.6941C41.7729 30.9588 42.0596 31.1131 42.3537 31.1131C42.5154 31.1131 42.6771 31.069 42.8168 30.9808C43.2285 30.7235 43.3535 30.1795 43.0962 29.7678C42.8389 29.3488 42.2949 29.2238 41.8832 29.4811Z" fill="#fff"/><path d="M33.5761 34.6493C33.1644 34.9066 33.0321 35.4506 33.2967 35.8623C33.4658 36.1343 33.7525 36.2813 34.0466 36.2813C34.2083 36.2813 34.37 36.2372 34.5097 36.149C34.9214 35.8917 35.0463 35.3477 34.789 34.936C34.5317 34.5243 33.9877 34.392 33.5761 34.6493Z" fill="#fff"/><path d="M30.8047 36.3766C30.3931 36.6339 30.2681 37.1779 30.5254 37.5896C30.6945 37.8616 30.9812 38.0086 31.2752 38.0086C31.437 38.0086 31.5987 37.9645 31.7384 37.8763C32.15 37.619 32.275 37.075 32.0177 36.6633C31.7604 36.2443 31.2238 36.1193 30.8047 36.3766Z" fill="#fff"/><path d="M36.3476 32.9284C35.9359 33.1857 35.8036 33.7297 36.0609 34.1414C36.23 34.4134 36.5167 34.5604 36.8108 34.5604C36.9725 34.5604 37.1342 34.5163 37.2739 34.4281C37.6856 34.1708 37.8106 33.6268 37.5533 33.2151C37.3033 32.7961 36.7593 32.6711 36.3476 32.9284Z" fill="#fff"/><path d="M39.1119 31.2087C38.7002 31.466 38.5752 32.01 38.8325 32.4216C39.0016 32.6863 39.2883 32.8407 39.5824 32.8407C39.7441 32.8407 39.9058 32.7966 40.0455 32.7083C40.4572 32.451 40.5821 31.907 40.3248 31.4954C40.0675 31.0763 39.5309 30.9514 39.1119 31.2087Z" fill="#fff"/><path d="M27.8789 38.2221C27.7172 38.3839 27.6216 38.6118 27.6216 38.847C27.6216 39.0823 27.7172 39.3101 27.8789 39.4719C28.0406 39.6336 28.2685 39.7292 28.5037 39.7292C28.739 39.7292 28.9669 39.6336 29.1286 39.4719C29.2903 39.3101 29.3859 39.0823 29.3859 38.847C29.3859 38.6118 29.2903 38.3839 29.1286 38.2221C28.9669 38.0604 28.739 37.9648 28.5037 37.9648C28.2685 37.9648 28.048 38.0604 27.8789 38.2221Z" fill="#fff"/><path d="M24.9824 36.6564C24.7251 37.068 24.8501 37.612 25.2618 37.8693C25.4088 37.9576 25.5705 38.0017 25.7249 38.0017C26.019 38.0017 26.3057 37.8546 26.4747 37.5826C26.732 37.171 26.6071 36.627 26.188 36.3697C25.7837 36.1197 25.2397 36.2447 24.9824 36.6564Z" fill="#fff"/><path d="M13.9111 29.7602C13.6538 30.1719 13.7788 30.7159 14.1905 30.9732C14.3375 31.0614 14.4992 31.1055 14.6536 31.1055C14.9477 31.1055 15.2344 30.9585 15.4035 30.6865C15.6608 30.2748 15.5358 29.7308 15.1241 29.4735C14.7124 29.2162 14.1684 29.3485 13.9111 29.7602Z" fill="#fff"/><path d="M22.2183 34.936C21.961 35.3477 22.0859 35.8917 22.4976 36.149C22.6446 36.2372 22.8064 36.2813 22.9607 36.2813C23.2548 36.2813 23.5415 36.1343 23.7106 35.8623C23.9679 35.4506 23.8429 34.9066 23.4312 34.6493C23.0196 34.392 22.4756 34.5243 22.2183 34.936Z" fill="#fff"/><path d="M19.4468 33.2081C19.1895 33.6198 19.3144 34.1638 19.7261 34.4211C19.8732 34.5093 20.0349 34.5534 20.1893 34.5534C20.4833 34.5534 20.77 34.4064 20.9391 34.1344C21.1964 33.7227 21.0714 33.1787 20.6524 32.9214C20.2481 32.6715 19.7041 32.7964 19.4468 33.2081Z" fill="#fff"/><path d="M16.6753 31.4884C16.418 31.9001 16.543 32.4441 16.9546 32.7014C17.1017 32.7896 17.2634 32.8337 17.4178 32.8337C17.7118 32.8337 17.9985 32.6867 18.1676 32.4147C18.4249 32.003 18.2999 31.459 17.8883 31.2017C17.4766 30.9517 16.9326 31.0767 16.6753 31.4884Z" fill="#fff"/><path d="M11.8895 29.3854C12.1247 29.3854 12.3526 29.2899 12.5144 29.1281C12.6761 28.9664 12.7717 28.7385 12.7717 28.5033C12.7717 28.268 12.6761 28.0401 12.5144 27.8784C12.3526 27.7167 12.1247 27.6211 11.8895 27.6211C11.6542 27.6211 11.4264 27.7167 11.2646 27.8784C11.1029 28.0401 11.0073 28.268 11.0073 28.5033C11.0073 28.7385 11.1029 28.9664 11.2646 29.1281C11.4337 29.2972 11.6542 29.3854 11.8895 29.3854Z" fill="#fff"/><path d="M44.6547 33.6641L28.5036 43.7208L12.3526 33.6641C11.9409 33.4068 11.3969 33.5317 11.1396 33.9434C10.8823 34.3551 11.0073 34.8991 11.419 35.1564L28.0331 45.4998C28.1728 45.588 28.3346 45.6321 28.4963 45.6321C28.658 45.6321 28.8197 45.588 28.9594 45.4998L45.5736 35.1564C45.9853 34.8991 46.1102 34.3551 45.8529 33.9434C45.6103 33.5317 45.0663 33.4068 44.6547 33.6641Z" fill="#fff"/>
    </symbol>
    <symbol id="select-panels" viewBox="0 0 47 47">
      <g clip-path="url(#clip0)" fill="#EF7E20"><path d="M37.3771 18.5368H37.3111C36.4097 18.5317 35.5388 18.863 34.8682 19.4656C34.3254 17.9635 32.9461 16.8837 31.3304 16.8837C30.3402 16.8906 29.3944 17.2972 28.7084 18.0117C28.0776 16.7347 26.8121 15.8684 25.3571 15.8684H25.2868C24.507 15.8564 23.7461 16.1101 23.1292 16.5872V7.48299C23.1292 5.28289 21.4163 3.49316 19.3328 3.49316C17.2516 3.49316 15.5476 5.28173 15.5464 7.48029L15.529 25.5436L14.5068 24.302C13.6104 23.186 12.2908 22.493 10.8632 22.3884C9.46495 22.2926 8.08946 22.7791 7.06256 23.7334L6.17311 24.4704C5.88627 24.7082 5.80443 25.1135 5.97622 25.444L14.6241 42.0669C16.2054 45.1047 19.2139 46.9999 22.4756 46.9999H32.2214V46.9914C37.1629 46.9914 41.1693 42.7035 41.1743 37.4385C41.1763 35.0829 41.1674 33.3271 41.1689 31.9041C41.1739 28.0969 41.1701 26.6921 41.1604 22.4976C41.1554 20.3026 39.4549 18.5368 37.3771 18.5368ZM39.5761 31.8987C39.5745 33.3221 39.5722 35.0848 39.5699 37.4405C39.5657 41.8349 36.2483 45.4182 32.1751 45.4182H22.476C19.8061 45.4182 17.335 43.8489 16.0274 41.3365L7.67368 25.2841L8.08598 24.9402C8.09641 24.9317 8.10644 24.9216 8.11648 24.9128C8.82565 24.2453 9.77997 23.9025 10.7517 23.9662C11.745 24.0422 12.6614 24.5279 13.2826 25.3065L15.7028 28.2513C15.9143 28.5096 16.2656 28.6065 16.5799 28.4942C16.8941 28.3818 17.1041 28.0838 17.1041 27.7502L17.1184 7.48106C17.1192 6.15382 18.1229 5.07404 19.3336 5.07404C20.5442 5.07404 21.5479 6.15498 21.5479 7.48299V19.7042C21.5479 19.7466 21.546 19.7895 21.546 19.8327C21.546 19.8513 21.5479 19.8702 21.5479 19.8883V25.1135C21.5479 25.5501 21.9019 25.9041 22.3386 25.9041C22.7752 25.9041 23.1292 25.5501 23.1292 25.1135V19.7308C23.1292 18.4503 24.1074 17.4496 25.2868 17.4496H25.3571C26.5685 17.4496 27.5765 18.5055 27.5765 19.8335V24.6147C27.5765 25.0514 27.9305 25.4054 28.3671 25.4054C28.8037 25.4054 29.1578 25.0514 29.1578 24.6147V20.8635C29.1578 19.5351 30.1175 18.4545 31.3355 18.4545C32.5465 18.4545 33.5062 19.5347 33.5062 20.8635V24.4024C33.5062 24.839 33.8602 25.193 34.2969 25.193C34.7335 25.193 35.0875 24.839 35.0875 24.4024V22.4861C35.0875 21.1577 36.0997 20.118 37.3111 20.118H37.3771C38.5855 20.118 39.5703 21.1754 39.5734 22.4996C39.583 26.6909 39.5811 28.0942 39.5761 31.8987Z"/><path d="M13.0351 7.82446C13.4718 7.82446 13.8258 7.47046 13.8258 7.03383C13.8385 4.01685 16.288 1.57817 19.3046 1.57817C22.3216 1.57817 24.7707 4.01685 24.7834 7.03383C24.7834 7.47046 25.1374 7.82446 25.574 7.82446C26.0107 7.82446 26.3647 7.47046 26.3647 7.03383C26.35 3.14476 23.1937 0 19.3046 0C15.4159 0 12.2592 3.14476 12.2445 7.03383C12.2445 7.47046 12.5985 7.82446 13.0351 7.82446Z"/></g>
    </symbol>
    <symbol id="slider-arrow" viewBox="0 0 30 30">
      <g clip-path="url(#clip0)"><path d="M29.8169 14.5581L20.4419 5.18312C20.1977 4.93896 19.8022 4.93896 19.5581 5.18312C19.314 5.42728 19.314 5.82279 19.5581 6.06689L27.8663 14.375H0.62502C0.279551 14.375 0 14.6546 0 15C0 15.3455 0.279551 15.6251 0.62502 15.6251H27.8663L19.5581 23.9331C19.314 24.1773 19.314 24.5728 19.5581 24.8169C19.6802 24.9389 19.8401 25 20 25C20.1599 25 20.3198 24.9389 20.442 24.8169L29.817 15.4419C30.0611 15.1978 30.0611 14.8023 29.8169 14.5581Z" fill="currentColor"/></g>
    </symbol>
    <symbol id="title-icon-3" viewBox="0 0 82 82">
      <path d="M0.99895 28.918L39.9235 53.1512C40.2508 53.3579 40.6297 53.4612 41.0086 53.4612C41.3875 53.4612 41.7664 53.3579 42.0937 53.1512L81.0183 28.918C81.6211 28.5391 82 27.8846 82 27.1613C82 26.4551 81.6383 25.7834 81.0183 25.4045L42.0937 1.17135C41.422 0.757988 40.578 0.757988 39.9063 1.17135L0.981726 25.4045C0.378912 25.7834 0 26.4379 0 27.1613C0.0172233 27.8846 0.378912 28.5391 0.99895 28.918ZM41.0086 5.3566L76.0235 27.1613L41.0086 48.9659L5.9937 27.1613L41.0086 5.3566Z" fill="#EF7E20"/><path d="M79.9332 38.9424C79.3821 38.9424 78.8482 39.1663 78.4693 39.5452C78.0904 39.9241 77.8665 40.458 77.8665 41.0092C77.8665 41.5603 78.0904 42.0942 78.4693 42.4731C78.8482 42.8521 79.3821 43.076 79.9332 43.076C80.4844 43.076 81.0183 42.8521 81.3972 42.4731C81.7761 42.0942 82 41.5603 82 41.0092C82 40.458 81.7761 39.9241 81.3972 39.5452C81.0183 39.1663 80.4844 38.9424 79.9332 38.9424Z" fill="#EF7E20"/><path d="M72.3549 43.299C71.3904 43.9018 71.0804 45.1763 71.7005 46.1409C72.0966 46.7609 72.7683 47.1226 73.4572 47.1226C73.8361 47.1226 74.2151 47.0192 74.5423 46.8126C75.5068 46.2097 75.7996 44.9352 75.1968 43.9707C74.594 42.989 73.3195 42.6962 72.3549 43.299Z" fill="#EF7E20"/><path d="M52.8928 55.4072C51.9283 56.01 51.6183 57.2845 52.2383 58.249C52.6344 58.8863 53.3061 59.2308 53.9951 59.2308C54.374 59.2308 54.7529 59.1274 55.0801 58.9208C56.0446 58.3179 56.3374 57.0434 55.7346 56.0789C55.1318 55.1144 53.8573 54.8044 52.8928 55.4072Z" fill="#EF7E20"/><path d="M46.3996 59.4543C45.435 60.0571 45.1423 61.3316 45.7451 62.2961C46.1412 62.9334 46.8129 63.2778 47.5018 63.2778C47.8808 63.2778 48.2597 63.1745 48.5869 62.9678C49.5514 62.365 49.8442 61.0905 49.2414 60.126C48.6386 59.1443 47.3813 58.8515 46.3996 59.4543Z" fill="#EF7E20"/><path d="M59.3858 51.3771C58.4213 51.98 58.1113 53.2545 58.7141 54.219C59.1102 54.8563 59.7819 55.2007 60.4709 55.2007C60.8498 55.2007 61.2287 55.0974 61.5559 54.8907C62.5204 54.2879 62.8132 53.0134 62.2104 52.0489C61.6248 51.0671 60.3503 50.7743 59.3858 51.3771Z" fill="#EF7E20"/><path d="M65.8617 47.3469C64.8972 47.9497 64.6044 49.2242 65.2072 50.1887C65.6034 50.8087 66.2751 51.1704 66.964 51.1704C67.3429 51.1704 67.7218 51.0671 68.0491 50.8604C69.0136 50.2576 69.3064 48.9831 68.7036 48.0186C68.1007 47.0368 66.8434 46.744 65.8617 47.3469Z" fill="#EF7E20"/><path d="M39.5447 63.7776C39.1658 64.1565 38.9419 64.6905 38.9419 65.2416C38.9419 65.7927 39.1658 66.3267 39.5447 66.7056C39.9236 67.0845 40.4575 67.3084 41.0087 67.3084C41.5598 67.3084 42.0938 67.0845 42.4727 66.7056C42.8516 66.3267 43.0755 65.7927 43.0755 65.2416C43.0755 64.6905 42.8516 64.1565 42.4727 63.7776C42.0938 63.3987 41.5598 63.1748 41.0087 63.1748C40.4575 63.1748 39.9408 63.3987 39.5447 63.7776Z" fill="#EF7E20"/><path d="M32.7587 60.1094C32.1559 61.0739 32.4487 62.3484 33.4132 62.9512C33.7577 63.1579 34.1366 63.2612 34.4983 63.2612C35.1872 63.2612 35.8589 62.9168 36.2551 62.2795C36.8579 61.315 36.5651 60.0405 35.5834 59.4377C34.6361 58.8521 33.3616 59.1449 32.7587 60.1094Z" fill="#EF7E20"/><path d="M6.82051 43.9539C6.21769 44.9184 6.51049 46.1929 7.47499 46.7958C7.81946 47.0024 8.19837 47.1058 8.56006 47.1058C9.24899 47.1058 9.9207 46.7613 10.3168 46.124C10.9196 45.1595 10.6268 43.885 9.66235 43.2822C8.69784 42.6794 7.42332 42.9894 6.82051 43.9539Z" fill="#EF7E20"/><path d="M26.2827 56.0789C25.6799 57.0434 25.9726 58.3179 26.9371 58.9208C27.2816 59.1274 27.6605 59.2308 28.0222 59.2308C28.7111 59.2308 29.3829 58.8863 29.779 58.249C30.3818 57.2845 30.089 56.01 29.1245 55.4072C28.16 54.8044 26.8855 55.1144 26.2827 56.0789Z" fill="#EF7E20"/><path d="M19.7895 52.0312C19.1867 52.9957 19.4795 54.2703 20.444 54.8731C20.7885 55.0798 21.1674 55.1831 21.5291 55.1831C22.218 55.1831 22.8897 54.8386 23.2858 54.2014C23.8886 53.2369 23.5958 51.9623 22.6141 51.3595C21.6668 50.7739 20.3923 51.0667 19.7895 52.0312Z" fill="#EF7E20"/><path d="M13.2963 48.001C12.6935 48.9655 12.9863 50.24 13.9508 50.8428C14.2953 51.0495 14.6742 51.1528 15.0359 51.1528C15.7248 51.1528 16.3965 50.8084 16.7927 50.1711C17.3955 49.2066 17.1027 47.9321 16.1382 47.3293C15.1737 46.7437 13.8992 47.0365 13.2963 48.001Z" fill="#EF7E20"/><path d="M2.08413 43.076C2.63527 43.076 3.16919 42.8521 3.5481 42.4731C3.92702 42.0942 4.15092 41.5603 4.15092 41.0092C4.15092 40.458 3.92702 39.9241 3.5481 39.5452C3.16919 39.1663 2.63527 38.9424 2.08413 38.9424C1.53298 38.9424 0.99906 39.1663 0.620148 39.5452C0.241236 39.9241 0.017334 40.458 0.017334 41.0092C0.017334 41.5603 0.241236 42.0942 0.620148 42.4731C1.01628 42.8693 1.53298 43.076 2.08413 43.076Z" fill="#EF7E20"/><path d="M78.8482 53.0996L41.0087 76.661L3.16918 53.0996C2.20468 52.4967 0.930159 52.7895 0.327344 53.754C-0.27547 54.7186 0.0173255 55.9931 0.981829 56.5959L39.9064 80.829C40.2337 81.0357 40.6126 81.139 40.9915 81.139C41.3704 81.139 41.7493 81.0357 42.0766 80.829L81.0012 56.5959C81.9657 55.9931 82.2585 54.7186 81.6556 53.754C81.0873 52.7895 79.8128 52.4967 78.8482 53.0996Z" fill="#EF7E20"/>
    </symbol>
    <symbol id="to-bottom-icon" viewBox="0 0 52 27">
      <path d="M1 1L26 26L51 1" stroke="#5C5D5E"/>
    </symbol>
    <symbol id="usage-1" viewBox="0 0 72 70">
      <path d="M71.4268 21.322C70.9169 20.6736 70.1512 20.3016 69.3262 20.3016H64.0443L66.8199 8.85421C67.029 7.9912 66.8343 7.09584 66.2853 6.39777C65.7363 5.69971 64.9119 5.29935 64.0239 5.29935H54.0169V2.89396H55.3826C55.9793 2.89396 56.4629 2.41021 56.4629 1.81368C56.4629 1.21715 55.9793 0.733398 55.3826 0.733398H50.4906C49.8939 0.733398 49.4103 1.21715 49.4103 1.81368C49.4103 2.41021 49.8939 2.89396 50.4906 2.89396H51.8562V5.29921H41.3601C40.472 5.29921 39.6477 5.69957 39.0987 6.39763C38.5497 7.0957 38.3548 7.99106 38.564 8.85407L41.3397 20.3015H36.045C35.22 20.3015 34.4541 20.6735 33.9441 21.322C33.4342 21.9706 33.253 22.8022 33.4475 23.6039L36.3129 35.4218C36.5836 36.5384 37.5238 37.3412 38.6474 37.4507V43.4575H9.14991C8.08509 43.4575 7.04756 43.8943 6.30366 44.6561L0.307547 50.7951C0.112781 50.9942 0 51.2716 0 51.5499V64.1716C0 67.3389 2.57681 69.9157 5.74425 69.9157H63.5539C65.3988 69.9157 66.8995 68.4148 66.8995 66.5701V57.0373C66.8995 56.4406 66.4159 55.957 65.8193 55.957C65.2226 55.957 64.739 56.4407 64.739 57.0373V66.5701C64.739 67.2234 64.2074 67.7551 63.5539 67.7551H59.0722V59.5948C59.0722 57.8901 57.6854 56.5033 55.9807 56.5033H49.4034C47.6987 56.5033 46.3119 57.8901 46.3119 59.5948V67.7551H40.8082V37.4648H64.7388V52.0749C64.7388 52.6716 65.2224 53.1552 65.8191 53.1552C66.4158 53.1552 66.8994 52.6714 66.8994 52.0749V37.4285C67.9444 37.2565 68.8016 36.4799 69.0581 35.4221L71.9235 23.6042C72.1181 22.8022 71.9369 21.9704 71.4268 21.322ZM48.4726 59.5948C48.4726 59.0815 48.8901 58.6639 49.4034 58.6639H55.9807C56.494 58.6639 56.9115 59.0814 56.9115 59.5948V67.7551H48.4726V59.5948ZM40.664 8.34515C40.5927 8.05096 40.7167 7.83566 40.797 7.73357C40.8773 7.63134 41.0574 7.46005 41.3601 7.46005H64.0239C64.3267 7.46005 64.5067 7.63134 64.587 7.73357C64.6673 7.83566 64.7913 8.05096 64.72 8.34515L61.821 20.3018H43.5631L40.664 8.34515ZM7.84927 46.166C8.1893 45.8179 8.66334 45.6182 9.14991 45.6182H38.6475V50.4695H3.6457L7.84927 46.166ZM2.1607 64.1716V52.6302H38.6477V67.755H35.2641V59.5947C35.2641 57.89 33.8773 56.5032 32.1725 56.5032H25.5953C23.8906 56.5032 22.5038 57.89 22.5038 59.5947V67.755H5.74425C3.76819 67.7551 2.1607 66.1475 2.1607 64.1716ZM24.6645 67.7551V59.5948C24.6645 59.0815 25.082 58.6639 25.5953 58.6639H32.1725C32.6857 58.6639 33.1034 59.0814 33.1034 59.5948V67.7551H24.6645ZM69.8238 23.095C67.2262 32.9396 67.4616 35.7883 65.8193 35.3042H39.728C39.2871 35.255 38.661 35.5036 38.413 34.913L35.5476 23.095C35.5445 22.8706 35.4826 22.6044 36.0451 22.4625H69.3263C69.545 22.5124 69.8186 22.5148 69.8238 23.095Z" fill="#EF7E20"/><path d="M62.3949 25.1934H43.4787C42.882 25.1934 42.3984 25.6771 42.3984 26.2736V31.492C42.3984 32.0886 42.882 32.5722 43.4787 32.5722H62.3949C62.9916 32.5722 63.4752 32.0885 63.4752 31.492V26.2736C63.4753 25.6771 62.9917 25.1934 62.3949 25.1934ZM61.3146 30.4117H44.5591V27.3541H61.3146V30.4117Z" fill="#EF7E20"/><path d="M17.5506 56.5029H6.95089C6.35422 56.5029 5.87061 56.9867 5.87061 57.5832C5.87061 58.1799 6.35422 58.6635 6.95089 58.6635H17.5505C18.1472 58.6635 18.6308 58.1797 18.6308 57.5832C18.6309 56.9865 18.1473 56.5029 17.5506 56.5029Z" fill="#EF7E20"/><path d="M47.3923 39.8701C46.7956 39.8701 46.312 40.3539 46.312 40.9504C46.312 41.5471 46.7956 42.0307 47.3923 42.0307H57.9919C58.5886 42.0307 59.0722 41.5469 59.0722 40.9504C59.0722 40.3537 58.5886 39.8701 57.9919 39.8701H47.3923Z" fill="#EF7E20"/><path d="M49.6715 12.7383C49.01 12.7383 48.4736 13.2746 48.4736 13.9361C48.4736 14.5976 49.01 15.134 49.6715 15.134C50.333 15.134 50.8693 14.5976 50.8693 13.9361C50.8693 13.2746 50.3331 12.7383 49.6715 12.7383Z" fill="#EF7E20"/><path d="M55.4893 12.7383C54.8278 12.7383 54.2915 13.2746 54.2915 13.9361C54.2915 14.5976 54.8277 15.134 55.4893 15.134C56.151 15.134 56.6872 14.5976 56.6872 13.9361C56.6872 13.2746 56.1508 12.7383 55.4893 12.7383Z" fill="#EF7E20"/><path d="M1.23798 15.8153L3.81071 17.9912C5.99631 19.8619 9.53682 20.1463 12.0972 18.6021L34.1378 4.66361C34.5263 4.40514 34.8521 3.74871 34.4256 3.10366C33.2078 1.4748 30.1074 -1.12072 27.0906 0.71655C24.592 2.23825 20.2963 5.13358 18.8694 6.10024L11.0525 3.09255C10.7894 2.99158 10.4976 2.99707 10.2387 3.10802L6.46614 4.72577C5.88156 5.0111 5.52353 5.81336 6.17434 6.52633L10.9024 10.7271L8.05056 13.3116L3.80579 12.7338C3.53973 12.6977 3.26931 12.7618 3.04782 12.9142L1.32334 14.1004C0.899918 14.4053 0.608121 15.1907 1.23798 15.8153ZM3.92814 14.9311C4.77779 14.9017 8.47848 15.9291 9.12873 15.2504L13.2457 11.5196C13.5905 11.1928 13.7958 10.4697 13.2378 9.91146L8.88137 6.04103L10.6866 5.26689L18.6208 8.31958C18.9522 8.44685 19.324 8.40368 19.6168 8.20427C19.6732 8.16574 25.2969 4.33863 28.2145 2.56183C29.558 1.74325 31.0122 2.71778 31.8882 3.52975L10.9422 16.7758C9.33587 17.7396 6.80546 17.692 5.20586 16.3414L3.71312 15.0789L3.92814 14.9311Z" fill="#EF7E20"/><path d="M10.951 31.876L6.34819 34.7058C5.83983 35.0183 5.68121 35.6837 5.99367 36.1919C6.19758 36.5238 6.55196 36.7066 6.91491 36.7066C7.10785 36.7066 7.30332 36.6548 7.47966 36.5464L12.0825 33.7166C12.5908 33.4042 12.7494 32.7387 12.437 32.2305C12.1246 31.7222 11.4592 31.5635 10.951 31.876Z" fill="#EF7E20"/><path d="M22.0503 19.6621C21.7308 19.1581 21.0631 19.0089 20.5595 19.3281L9.9229 26.0716C9.4189 26.3911 9.26956 27.0587 9.58892 27.5625C9.79451 27.887 10.1445 28.0646 10.5023 28.0646C10.7001 28.0646 10.9004 28.0103 11.0797 27.8965L21.7163 21.153C22.2203 20.8335 22.3698 20.166 22.0503 19.6621Z" fill="#EF7E20"/>
    </symbol>
    <symbol id="usage-2" viewBox="0 0 72 72">
      <path d="M66.7266 22.3093H61.9487C61.3662 22.3093 60.894 22.7815 60.894 23.364C60.894 23.9465 61.3662 24.4187 61.9487 24.4187H66.7266C68.4713 24.4187 69.8906 25.838 69.8906 27.5828V69.8203C69.8906 69.8591 69.8591 69.8906 69.8203 69.8906H58.0809V65.6719H63.4686C64.665 65.6719 65.6428 64.6985 65.6482 63.502L65.6719 58.3088C65.683 57.117 64.6805 56.1133 63.4922 56.1192H58.0809V51.9615H63.4686C64.665 51.9615 65.6428 50.9882 65.6482 49.7918L65.6719 44.5984C65.683 43.4066 64.6805 42.4031 63.4922 42.4088H58.0809V38.1901H63.4686C64.665 38.1901 65.6428 37.2167 65.6482 36.0203L65.6719 30.8268C65.683 29.6352 64.6805 28.6315 63.4922 28.6373H58.0809V17.7188C58.0809 14.8109 55.7153 12.4453 52.8075 12.4453H49.4589C48.9192 5.49239 43.089 0 36 0C28.911 0 23.0808 5.49239 22.5411 12.4453H19.125C16.2172 12.4453 13.8516 14.8109 13.8516 17.7188V22.3093H5.27344C2.36559 22.3093 0 24.6749 0 27.5828V69.8203C0 71.0222 0.977766 72 2.17969 72H69.8203C71.0222 72 72 71.0222 72 69.8203V27.5828C72 24.6749 69.6344 22.3093 66.7266 22.3093ZM58.0809 30.7468H63.4922C63.4994 30.7468 63.5214 30.7468 63.542 30.7675C63.5625 30.7882 63.5625 30.8101 63.5625 30.8173L63.539 36.0105C63.5389 36.0492 63.5072 36.0806 63.4687 36.0806H58.0809V30.7468ZM58.0809 44.5182H63.4922C63.4994 44.5182 63.5214 44.5182 63.542 44.5389C63.5625 44.5596 63.5625 44.5816 63.5625 44.5888L63.539 49.7821C63.5389 49.8206 63.5072 49.8521 63.4687 49.8521H58.0809V44.5182ZM58.0809 58.2286H63.4922C63.4994 58.2286 63.5214 58.2286 63.542 58.2493C63.5625 58.2699 63.5625 58.292 63.5625 58.2992L63.539 63.4925C63.5389 63.531 63.5072 63.5625 63.4687 63.5625H58.0809V58.2286ZM13.8516 63.5625H8.53172C8.49248 63.5625 8.46155 63.532 8.46141 63.4929L8.4375 58.2997C8.4375 58.2923 8.43736 58.2699 8.45803 58.2493C8.47856 58.2286 8.50064 58.2286 8.50781 58.2286H13.8516V63.5625ZM13.8516 49.8516H8.53172C8.49248 49.8516 8.46155 49.821 8.46141 49.782L8.4375 44.5888C8.4375 44.5815 8.43736 44.5596 8.45831 44.5385C8.47898 44.5177 8.50064 44.5177 8.50781 44.5177H13.8516V49.8516ZM13.8516 36.0802H8.53172C8.49248 36.0802 8.46155 36.0496 8.46141 36.0105L8.4375 30.8174C8.4375 30.8101 8.43736 30.7882 8.45831 30.7671C8.47898 30.7463 8.50064 30.7463 8.50781 30.7463H13.8516V36.0802ZM13.8516 28.6369H8.50781C7.31517 28.6303 6.31758 29.6367 6.32812 30.8271L6.35203 36.0203C6.35752 37.2164 7.33528 38.1895 8.53172 38.1895H13.8516V42.4083H8.50781C7.31517 42.4017 6.31758 43.4083 6.32812 44.5985L6.35203 49.7918C6.35752 50.988 7.33528 51.9611 8.53172 51.9611H13.8516V56.1194H8.50781C7.31447 56.1128 6.31758 57.1185 6.32812 58.3096L6.35203 63.5029C6.35737 64.6987 7.33528 65.6719 8.53172 65.6719H13.8516V69.8906H2.17969C2.14088 69.8906 2.10938 69.8591 2.10938 69.8203V27.5828C2.10938 25.838 3.5287 24.4187 5.27344 24.4187H13.8516V28.6369ZM36 2.10938C42.2809 2.10938 47.3906 7.21912 47.3906 13.5C47.3906 19.7809 42.2809 24.8906 36 24.8906C29.7191 24.8906 24.6094 19.7809 24.6094 13.5C24.6094 7.21912 29.7191 2.10938 36 2.10938ZM45.4252 69.8906H37.0547V51.3177H45.4252V69.8906ZM24.4654 49.2083V47.099H47.5348V49.2083H24.4654ZM55.9716 69.8906H47.5346V51.3177C48.6356 51.3816 49.651 50.5763 49.644 49.4193V46.888C49.644 45.8412 48.7924 44.9896 47.7456 44.9896H24.2544C23.2076 44.9896 22.356 45.8412 22.356 46.888V49.4193C22.3485 50.5277 23.3459 51.433 24.4654 51.3177V58.7862C24.4654 59.3686 24.9376 59.8409 25.5201 59.8409C26.1025 59.8409 26.5747 59.3686 26.5747 58.7862V51.3177H34.9453V69.8906H26.5747V63.708C26.5747 63.1256 26.1025 62.6534 25.5201 62.6534C24.9376 62.6534 24.4654 63.1256 24.4654 63.708V69.8906H15.9609V17.7188C15.9609 15.974 17.3803 14.5547 19.125 14.5547H22.5411C23.0808 21.5076 28.911 27 36 27C43.089 27 48.9192 21.5076 49.4589 14.5547H52.8075C54.5522 14.5547 55.9716 15.974 55.9716 17.7188V69.8906ZM32.8359 16.6641V20.8828C32.8359 21.9296 33.6876 22.7812 34.7344 22.7812H37.2656C38.3124 22.7812 39.1641 21.9296 39.1641 20.8828V16.6641H43.3828C44.4296 16.6641 45.2812 15.8124 45.2812 14.7656V12.2344C45.2812 11.1876 44.4296 10.3359 43.3828 10.3359H39.1641V6.11719C39.1641 5.07037 38.3124 4.21875 37.2656 4.21875H34.7344C33.6876 4.21875 32.8359 5.07037 32.8359 6.11719V10.3359H28.6172C27.5704 10.3359 26.7188 11.1876 26.7188 12.2344V14.7656C26.7188 15.8124 27.5704 16.6641 28.6172 16.6641H32.8359ZM28.8281 12.4453H33.4688C34.283 12.4453 34.9453 11.783 34.9453 10.9688V6.32812H37.0547V10.9688C37.0547 11.783 37.717 12.4453 38.5312 12.4453H43.1719V14.5547H38.5312C37.717 14.5547 37.0547 15.217 37.0547 16.0312V20.6719H34.9453V16.0312C34.9453 15.217 34.283 14.5547 33.4688 14.5547H28.8281V12.4453ZM31.7812 62.7383C32.3637 62.7383 32.8359 62.2661 32.8359 61.6836V59.5249C32.8359 58.9424 32.3637 58.4702 31.7812 58.4702C31.1988 58.4702 30.7266 58.9424 30.7266 59.5249V61.6836C30.7266 62.2661 31.1988 62.7383 31.7812 62.7383ZM31.7109 31.2188H22.3881C21.1915 31.2188 20.2137 32.1922 20.2084 33.3886L20.1849 38.5817C20.1722 39.7675 21.1738 40.7782 22.3646 40.7714H31.7109C32.9129 40.7714 33.8906 39.7936 33.8906 38.5917V33.3984C33.8906 32.1965 32.9129 31.2188 31.7109 31.2188ZM31.7812 38.5917C31.7812 38.6305 31.7498 38.662 31.7109 38.662H22.3644C22.3365 38.6657 22.2903 38.6194 22.2941 38.5914L22.3176 33.398C22.3178 33.3595 22.3493 33.3281 22.3879 33.3281H31.7109C31.7498 33.3281 31.7812 33.3596 31.7812 33.3984V38.5917ZM40.2188 62.7383C40.8012 62.7383 41.2734 62.2661 41.2734 61.6836V59.5249C41.2734 58.9424 40.8012 58.4702 40.2188 58.4702C39.6363 58.4702 39.1641 58.9424 39.1641 59.5249V61.6836C39.1641 62.2661 39.6363 62.7383 40.2188 62.7383ZM49.6018 31.2188H40.2891C39.0871 31.2188 38.1094 32.1965 38.1094 33.3984V38.5917C38.1094 39.7936 39.0871 40.7714 40.2891 40.7714H49.5782C50.7746 40.7714 51.7524 39.798 51.7579 38.6016L51.7814 33.4081C51.7926 32.2166 50.79 31.213 49.6018 31.2188ZM49.6485 38.592C49.6484 38.6305 49.6167 38.662 49.5782 38.662H40.2891C40.2503 38.662 40.2188 38.6305 40.2188 38.5917V33.3984C40.2188 33.3596 40.2503 33.3281 40.2891 33.3281H49.6018C49.609 33.3281 49.6311 33.3281 49.6516 33.3488C49.6721 33.3695 49.6721 33.3914 49.6721 33.3986L49.6485 38.592Z" fill="#EF7E20"/>
    </symbol>
    <symbol id="usage-3" viewBox="0 0 73 73">
      <path d="M71.8594 39.9219V37.6406H65.0156V30.7969H62.7344V33.0781H55.8906V30.7969H53.6094V37.6406H51.3281V3.42188H53.6094V1.14062H19.3906V3.42188H21.6719V21.6719H1.14062V23.9531H3.42188V69.5781H1.14062V71.8594H71.8594V69.5781H69.5781V39.9219H71.8594ZM55.8906 35.3594H62.7344V37.6406H55.8906V35.3594ZM62.7344 65.0156H55.8906V62.7344H62.7344V65.0156ZM62.7344 60.4531H55.8906V58.1719H62.7344V60.4531ZM62.7344 55.8906H55.8906V53.6094H62.7344V55.8906ZM62.7344 51.3281H55.8906V49.0469H62.7344V51.3281ZM62.7344 46.7656H55.8906V44.4844H62.7344V46.7656ZM55.8906 67.2969H62.7344V69.5781H55.8906V67.2969ZM62.7344 42.2031H55.8906V39.9219H62.7344V42.2031ZM53.6094 39.9219V69.5781H51.3281V39.9219H53.6094ZM49.0469 3.42188V69.5781H46.7656V59.3125C46.7656 58.6817 46.2546 58.1719 45.625 58.1719H27.375C26.7454 58.1719 26.2344 58.6817 26.2344 59.3125V69.5781H23.9531V3.42188H49.0469ZM37.6406 60.4531H44.4844V69.5781H37.6406V60.4531ZM35.3594 69.5781H28.5156V60.4531H35.3594V69.5781ZM5.70312 23.9531H21.6719V69.5781H5.70312V23.9531ZM67.2969 69.5781H65.0156V39.9219H67.2969V69.5781Z" fill="#EF7E20"/><path d="M27.375 23.9531H34.2188C34.8484 23.9531 35.3594 23.4433 35.3594 22.8125V6.84375C35.3594 6.21298 34.8484 5.70312 34.2188 5.70312H27.375C26.7454 5.70312 26.2344 6.21298 26.2344 6.84375V22.8125C26.2344 23.4433 26.7454 23.9531 27.375 23.9531ZM28.5156 7.98438H33.0781V21.6719H28.5156V7.98438Z" fill="#EF7E20"/><path d="M38.7812 39.9219H45.625C46.2546 39.9219 46.7656 39.412 46.7656 38.7812V22.8125C46.7656 22.1817 46.2546 21.6719 45.625 21.6719H38.7812C38.1516 21.6719 37.6406 22.1817 37.6406 22.8125V38.7812C37.6406 39.412 38.1516 39.9219 38.7812 39.9219ZM39.9219 23.9531H44.4844V37.6406H39.9219V23.9531Z" fill="#EF7E20"/><path d="M27.375 55.8906H34.2188C34.8484 55.8906 35.3594 55.3808 35.3594 54.75V38.7812C35.3594 38.1505 34.8484 37.6406 34.2188 37.6406H27.375C26.7454 37.6406 26.2344 38.1505 26.2344 38.7812V54.75C26.2344 55.3808 26.7454 55.8906 27.375 55.8906ZM28.5156 39.9219H33.0781V53.6094H28.5156V39.9219Z" fill="#EF7E20"/><path d="M18.25 26.2344H9.125C8.49538 26.2344 7.98438 26.7442 7.98438 27.375V36.5C7.98438 37.1308 8.49538 37.6406 9.125 37.6406H18.25C18.8796 37.6406 19.3906 37.1308 19.3906 36.5V27.375C19.3906 26.7442 18.8796 26.2344 18.25 26.2344ZM17.1094 35.3594H10.2656V28.5156H17.1094V35.3594Z" fill="#EF7E20"/><path d="M18.25 39.9219H9.125C8.49538 39.9219 7.98438 40.4317 7.98438 41.0625V50.1875C7.98438 50.8183 8.49538 51.3281 9.125 51.3281H18.25C18.8796 51.3281 19.3906 50.8183 19.3906 50.1875V41.0625C19.3906 40.4317 18.8796 39.9219 18.25 39.9219ZM17.1094 49.0469H10.2656V42.2031H17.1094V49.0469Z" fill="#EF7E20"/><path d="M18.25 53.6094H9.125C8.49538 53.6094 7.98438 54.1192 7.98438 54.75V63.875C7.98438 64.5058 8.49538 65.0156 9.125 65.0156H18.25C18.8796 65.0156 19.3906 64.5058 19.3906 63.875V54.75C19.3906 54.1192 18.8796 53.6094 18.25 53.6094ZM17.1094 62.7344H10.2656V55.8906H17.1094V62.7344Z" fill="#EF7E20"/>
    </symbol>
    <symbol id="usage-4" viewBox="0 0 68 68">
      <path d="M66.6251 28.3746C66.9235 28.3746 67.2096 28.2561 67.4206 28.0451C67.6316 27.8342 67.7501 27.548 67.7501 27.2496V22.7496C67.7501 22.4513 67.6316 22.1651 67.4206 21.9541C67.2096 21.7432 66.9235 21.6246 66.6251 21.6246H54.2501V12.6246H55.3751C55.6735 12.6246 55.9596 12.5061 56.1706 12.2951C56.3816 12.0842 56.5001 11.798 56.5001 11.4996V6.99964C56.5001 6.70127 56.3816 6.41513 56.1706 6.20415C55.9596 5.99317 55.6735 5.87464 55.3751 5.87464H42.3363C41.6656 4.21308 40.5136 2.78987 39.0283 1.78767C37.5429 0.785463 35.7919 0.25 34.0001 0.25C32.2082 0.25 30.4573 0.785463 28.9719 1.78767C27.4866 2.78987 26.3346 4.21308 25.6638 5.87464H12.6251C12.3267 5.87464 12.0406 5.99317 11.8296 6.20415C11.6186 6.41513 11.5001 6.70127 11.5001 6.99964V11.4996C11.5001 11.798 11.6186 12.0842 11.8296 12.2951C12.0406 12.5061 12.3267 12.6246 12.6251 12.6246H13.7501V21.6246H1.37509C1.07672 21.6246 0.79057 21.7432 0.579592 21.9541C0.368613 22.1651 0.250087 22.4513 0.250087 22.7496V27.2496C0.250087 27.548 0.368613 27.8342 0.579592 28.0451C0.79057 28.2561 1.07672 28.3746 1.37509 28.3746H2.50009V64.1834L0.643837 65.7697C0.46905 65.9191 0.344273 66.1186 0.286313 66.3411C0.228353 66.5637 0.239995 66.7987 0.319672 67.0144C0.399348 67.2301 0.543231 67.4163 0.731936 67.5477C0.920642 67.6792 1.1451 67.7497 1.37509 67.7496H66.6251C66.8551 67.7497 67.0795 67.6792 67.2682 67.5477C67.4569 67.4163 67.6008 67.2301 67.6805 67.0144C67.7602 66.7987 67.7718 66.5637 67.7139 66.3411C67.6559 66.1186 67.5311 65.9191 67.3563 65.7697L65.5001 64.1834V28.3746H66.6251ZM42.9213 8.12464H54.2501V10.3746H42.9213C42.9703 10.0016 42.9966 9.62589 43.0001 9.24964C42.9966 8.87339 42.9703 8.4977 42.9213 8.12464ZM54.2501 28.3746H63.2501V62.2484L62.0126 61.1909C60.1772 59.6159 57.8386 58.7499 55.4201 58.7496H54.2501V28.3746ZM34.0001 2.49964C35.3351 2.49964 36.6402 2.89552 37.7502 3.63722C38.8602 4.37892 39.7254 5.43313 40.2363 6.66653C40.7472 7.89993 40.8808 9.25713 40.6204 10.5665C40.3599 11.8759 39.7171 13.0786 38.7731 14.0226C37.8291 14.9666 36.6263 15.6095 35.317 15.8699C34.0076 16.1304 32.6504 15.9967 31.417 15.4858C30.1836 14.9749 29.1294 14.1098 28.3877 12.9997C27.646 11.8897 27.2501 10.5847 27.2501 9.24964C27.2501 7.45943 27.9612 5.74254 29.2271 4.47667C30.493 3.2108 32.2099 2.49964 34.0001 2.49964ZM34.0001 18.2496C35.7917 18.2483 37.5421 17.7122 39.0272 16.7101C40.5123 15.708 41.6645 14.2855 42.3363 12.6246H52.0001V58.7496H47.5001V39.6246C47.5001 39.3263 47.3816 39.0401 47.1706 38.8292C46.9596 38.6182 46.6735 38.4996 46.3751 38.4996H21.6251C21.3267 38.4996 21.0406 38.6182 20.8296 38.8292C20.6186 39.0401 20.5001 39.3263 20.5001 39.6246V58.7496H16.0001V12.6246H25.6638C26.3357 14.2855 27.4879 15.708 28.973 16.7101C30.4581 17.7122 32.2085 18.2483 34.0001 18.2496ZM45.2501 40.7496V58.7496H35.1251V40.7496H45.2501ZM32.8751 40.7496V58.7496H22.7501V40.7496H32.8751ZM13.7501 8.12464H25.0788C25.0298 8.4977 25.0035 8.87339 25.0001 9.24964C25.0035 9.62589 25.0298 10.0016 25.0788 10.3746H13.7501V8.12464ZM2.50009 23.8746H13.7501V26.1246H2.50009V23.8746ZM13.7501 28.3746V58.7496H12.5801C10.1615 58.7499 7.82299 59.6159 5.98759 61.1909L4.75009 62.2484V28.3746H13.7501ZM4.41259 65.4996L7.45009 62.9009C8.87828 61.675 10.6979 61.0006 12.5801 60.9996H55.4201C57.3022 61.0006 59.1219 61.675 60.5501 62.9009L63.5876 65.4996H4.41259ZM54.2501 26.1246V23.8746H65.5001V26.1246H54.2501Z" fill="#EF7E20"/><path d="M7 32.875H11.5V35.125H7V32.875Z" fill="#EF7E20"/><path d="M7 39.625H11.5V41.875H7V39.625Z" fill="#EF7E20"/><path d="M7 46.375H11.5V48.625H7V46.375Z" fill="#EF7E20"/><path d="M7 52H11.5V54.25H7V52Z" fill="#EF7E20"/><path d="M56.5 32.875H61V35.125H56.5V32.875Z" fill="#EF7E20"/><path d="M56.5 39.625H61V41.875H56.5V39.625Z" fill="#EF7E20"/><path d="M56.5 46.375H61V48.625H56.5V46.375Z" fill="#EF7E20"/><path d="M56.5 52H61V54.25H56.5V52Z" fill="#EF7E20"/><path d="M37.375 48.625H39.625V50.875H37.375V48.625Z" fill="#EF7E20"/><path d="M28.375 48.625H30.625V50.875H28.375V48.625Z" fill="#EF7E20"/><path d="M38.5 8.125V10.375H35.125V13.75H32.875V10.375H29.5V8.125H32.875V4.75H35.125V8.125H38.5Z" fill="#EF7E20"/><path d="M47.5 20.5H20.5C20.2016 20.5 19.9155 20.6185 19.7045 20.8295C19.4935 21.0405 19.375 21.3266 19.375 21.625V26.125C19.375 26.4234 19.4935 26.7095 19.7045 26.9205C19.9155 27.1315 20.2016 27.25 20.5 27.25H47.5C47.7984 27.25 48.0845 27.1315 48.2955 26.9205C48.5065 26.7095 48.625 26.4234 48.625 26.125V21.625C48.625 21.3266 48.5065 21.0405 48.2955 20.8295C48.0845 20.6185 47.7984 20.5 47.5 20.5ZM46.375 25H21.625V22.75H46.375V25Z" fill="#EF7E20"/><path d="M47.5 29.5H20.5C20.2016 29.5 19.9155 29.6185 19.7045 29.8295C19.4935 30.0405 19.375 30.3266 19.375 30.625V35.125C19.375 35.4234 19.4935 35.7095 19.7045 35.9205C19.9155 36.1315 20.2016 36.25 20.5 36.25H47.5C47.7984 36.25 48.0845 36.1315 48.2955 35.9205C48.5065 35.7095 48.625 35.4234 48.625 35.125V30.625C48.625 30.3266 48.5065 30.0405 48.2955 29.8295C48.0845 29.6185 47.7984 29.5 47.5 29.5ZM46.375 34H21.625V31.75H46.375V34Z" fill="#EF7E20"/>
    </symbol>
    <symbol id="usage-5" viewBox="0 0 70 70">
      <path d="M29.2188 44.25H31.5312V46.5625H29.2188V44.25Z" fill="#EF7E20"/><path d="M33.8438 44.25H36.1562V46.5625H33.8438V44.25Z" fill="#EF7E20"/><path d="M38.4688 44.25H40.7812V46.5625H38.4688V44.25Z" fill="#EF7E20"/><path d="M29.2188 48.875H31.5312V51.1875H29.2188V48.875Z" fill="#EF7E20"/><path d="M33.8438 48.875H36.1562V51.1875H33.8438V48.875Z" fill="#EF7E20"/><path d="M38.4688 48.875H40.7812V51.1875H38.4688V48.875Z" fill="#EF7E20"/><path d="M29.2188 53.5H31.5312V55.8125H29.2188V53.5Z" fill="#EF7E20"/><path d="M33.8438 53.5H36.1562V55.8125H33.8438V53.5Z" fill="#EF7E20"/><path d="M38.4688 53.5H40.7812V55.8125H38.4688V53.5Z" fill="#EF7E20"/><path d="M29.2188 35H31.5312V37.3125H29.2188V35Z" fill="#EF7E20"/><path d="M33.8438 35H36.1562V37.3125H33.8438V35Z" fill="#EF7E20"/><path d="M38.4688 35H40.7812V37.3125H38.4688V35Z" fill="#EF7E20"/><path d="M29.2188 39.625H31.5312V41.9375H29.2188V39.625Z" fill="#EF7E20"/><path d="M33.8438 39.625H36.1562V41.9375H33.8438V39.625Z" fill="#EF7E20"/><path d="M38.4688 39.625H40.7812V41.9375H38.4688V39.625Z" fill="#EF7E20"/><path d="M23.7076 9.91526L28.5153 14.6015L27.3803 21.2186C27.3438 21.4313 27.3675 21.6499 27.4488 21.8498C27.5301 22.0496 27.6656 22.2228 27.8402 22.3496C28.0148 22.4764 28.2213 22.5519 28.4365 22.5674C28.6517 22.583 28.867 22.538 29.058 22.4376L34.9999 19.3134L40.9425 22.4376C41.1335 22.538 41.3487 22.583 41.5639 22.5674C41.7792 22.5519 41.9857 22.4764 42.1603 22.3496C42.3348 22.2228 42.4704 22.0496 42.5517 21.8498C42.633 21.6499 42.6567 21.4313 42.6202 21.2186L41.4852 14.6015L46.2935 9.91526C46.448 9.76466 46.5573 9.57384 46.609 9.36436C46.6607 9.15489 46.6528 8.93512 46.5861 8.72992C46.5194 8.52472 46.3967 8.34226 46.2317 8.2032C46.0667 8.06413 45.8661 7.97399 45.6526 7.94298L39.0087 6.97766L36.0374 0.957066C35.9419 0.763587 35.7942 0.600683 35.611 0.486775C35.4277 0.372867 35.2163 0.3125 35.0005 0.3125C34.7848 0.3125 34.5733 0.372867 34.3901 0.486775C34.2068 0.600683 34.0591 0.763587 33.9637 0.957066L30.9924 6.97766L24.348 7.94298C24.1345 7.97399 23.9339 8.06413 23.7689 8.2032C23.6039 8.34226 23.4812 8.52472 23.4145 8.72992C23.3478 8.93512 23.3399 9.15489 23.3916 9.36436C23.4433 9.57384 23.5526 9.76466 23.7071 9.91526H23.7076ZM31.9265 9.17815C32.112 9.15117 32.2882 9.07949 32.4398 8.96928C32.5915 8.85908 32.7141 8.71365 32.797 8.54553L34.9999 4.08154L37.2035 8.54611C37.2864 8.71423 37.409 8.85965 37.5606 8.96986C37.7123 9.08007 37.8885 9.15175 38.074 9.17873L43.0011 9.89459L39.4371 13.37C39.3028 13.5009 39.2024 13.6624 39.1445 13.8407C39.0866 14.019 39.0729 14.2087 39.1046 14.3934L39.9462 19.3005L35.5393 16.9837C35.3734 16.8965 35.1887 16.8509 35.0012 16.8509C34.8138 16.8509 34.6291 16.8965 34.4632 16.9837L30.0563 19.3005L30.8979 14.3934C30.9296 14.2087 30.9159 14.019 30.858 13.8407C30.8 13.6624 30.6997 13.5009 30.5654 13.37L26.9994 9.89502L31.9265 9.17815Z" fill="#EF7E20"/><path d="M45.4628 19.1148C45.3962 19.32 45.3882 19.5397 45.4399 19.7491C45.4916 19.9586 45.6009 20.1494 45.7554 20.3L48.9569 23.4207L48.2011 27.8273C48.1646 28.04 48.1884 28.2586 48.2696 28.4585C48.3509 28.6583 48.4865 28.8315 48.6611 28.9583C48.8356 29.0851 49.0422 29.1606 49.2574 29.1761C49.4726 29.1917 49.6879 29.1467 49.8788 29.0463L53.8362 26.9658L57.7937 29.0463C57.9846 29.1467 58.1999 29.1916 58.4151 29.176C58.6302 29.1605 58.8368 29.085 59.0113 28.9582C59.1858 28.8314 59.3214 28.6583 59.4027 28.4584C59.484 28.2586 59.5077 28.0399 59.4712 27.8273L58.7153 23.4207L61.917 20.3C62.0715 20.1494 62.1808 19.9586 62.2325 19.7491C62.2842 19.5396 62.2763 19.3198 62.2096 19.1146C62.143 18.9094 62.0202 18.727 61.8552 18.5879C61.6903 18.4488 61.4897 18.3587 61.2761 18.3277L56.8518 17.6851L54.873 13.6757C54.7775 13.4822 54.6298 13.3194 54.4465 13.2055C54.2633 13.0916 54.0519 13.0312 53.8362 13.0312C53.6204 13.0312 53.409 13.0916 53.2258 13.2055C53.0426 13.3194 52.8949 13.4822 52.7994 13.6757L50.8206 17.6851L46.3962 18.328C46.1827 18.359 45.9822 18.4491 45.8172 18.5882C45.6523 18.7272 45.5295 18.9096 45.4628 19.1148ZM51.7547 19.886C51.9402 19.8591 52.1164 19.7874 52.2681 19.6773C52.4198 19.5671 52.5424 19.4217 52.6254 19.2536L53.8362 16.8L55.0471 19.2536C55.1301 19.4217 55.2527 19.5671 55.4043 19.6772C55.556 19.7874 55.7321 19.8591 55.9176 19.886L58.6251 20.2794L56.666 22.1893C56.5318 22.3201 56.4314 22.4817 56.3735 22.66C56.3156 22.8383 56.3019 23.028 56.3336 23.2127L56.7961 25.9094L54.3743 24.6361C54.2084 24.5488 54.0238 24.5033 53.8363 24.5033C53.6489 24.5033 53.4642 24.5488 53.2983 24.6361L50.8765 25.9094L51.339 23.2127C51.3707 23.028 51.357 22.8383 51.2991 22.66C51.2412 22.4817 51.1408 22.3201 51.0066 22.1893L49.0472 20.2794L51.7547 19.886Z" fill="#EF7E20"/><path d="M58.3883 31.6986C58.1748 31.7296 57.9742 31.8198 57.8093 31.9588C57.6444 32.0979 57.5217 32.2803 57.455 32.4855C57.3884 32.6907 57.3804 32.9104 57.4321 33.1199C57.4838 33.3293 57.5931 33.5201 57.7476 33.6707L59.8064 35.6777L59.3203 38.5119C59.2839 38.7246 59.3076 38.9432 59.3889 39.143C59.4702 39.3429 59.6057 39.516 59.7803 39.6428C59.9548 39.7696 60.1613 39.8451 60.3765 39.8607C60.5917 39.8762 60.8069 39.8313 60.9979 39.7309L63.5428 38.393L66.0877 39.7309C66.2787 39.8312 66.4939 39.8762 66.7091 39.8606C66.9242 39.845 67.1308 39.7695 67.3053 39.6427C67.4798 39.5159 67.6153 39.3428 67.6966 39.1429C67.7779 38.9431 67.8016 38.7245 67.7652 38.5119L67.2791 35.6782L69.3382 33.6701C69.4927 33.5195 69.602 33.3287 69.6537 33.1193C69.7053 32.9098 69.6974 32.6901 69.6307 32.4849C69.5641 32.2797 69.4413 32.0973 69.2764 31.9582C69.1114 31.8192 68.9109 31.729 68.6974 31.698L65.8521 31.2854L64.5803 28.7071C64.4848 28.5136 64.3371 28.3507 64.1538 28.2368C63.9706 28.1229 63.7592 28.0625 63.5434 28.0625C63.3276 28.0625 63.1162 28.1229 62.933 28.2368C62.7497 28.3507 62.602 28.5136 62.5065 28.7071L61.2347 31.2854L58.3883 31.6986ZM63.039 32.8537L63.5435 31.8313L64.0482 32.8537C64.1311 33.0216 64.2536 33.167 64.4051 33.2771C64.5566 33.3873 64.7325 33.459 64.9179 33.4861L66.0463 33.6502L65.2298 34.446C65.0955 34.5768 64.9951 34.7384 64.9372 34.9167C64.8793 35.095 64.8656 35.2848 64.8974 35.4695L65.0902 36.5933L64.0809 36.0627C63.915 35.9755 63.7304 35.9299 63.5429 35.9299C63.3554 35.9299 63.1708 35.9755 63.0049 36.0627L61.9956 36.5933L62.1883 35.4695C62.22 35.2848 62.2063 35.095 62.1484 34.9167C62.0905 34.7384 61.9901 34.5768 61.8559 34.446L61.0395 33.6502L62.1679 33.4861C62.3535 33.4593 62.5298 33.3876 62.6815 33.2775C62.8333 33.1673 62.956 33.0218 63.039 32.8537Z" fill="#EF7E20"/><path d="M8.08317 20.3L11.2848 23.4207L10.5289 27.8273C10.4924 28.0399 10.5162 28.2585 10.5975 28.4584C10.6787 28.6582 10.8143 28.8314 10.9888 28.9582C11.1634 29.085 11.3699 29.1605 11.5851 29.176C11.8003 29.1916 12.0155 29.1467 12.2065 29.0463L16.1639 26.9657L20.1213 29.0463C20.3123 29.1467 20.5276 29.1917 20.7428 29.1761C20.958 29.1606 21.1645 29.0851 21.3391 28.9583C21.5137 28.8315 21.6492 28.6583 21.7305 28.4585C21.8118 28.2586 21.8355 28.04 21.799 27.8273L21.0433 23.4207L24.2448 20.3C24.3993 20.1494 24.5086 19.9585 24.5603 19.7491C24.612 19.5396 24.6041 19.3198 24.5374 19.1146C24.4708 18.9094 24.348 18.727 24.183 18.5879C24.0181 18.4488 23.8175 18.3587 23.6039 18.3277L19.1796 17.685L17.2008 13.6757C17.1053 13.4822 16.9576 13.3194 16.7744 13.2055C16.5911 13.0916 16.3797 13.0312 16.164 13.0312C15.9483 13.0312 15.7368 13.0916 15.5536 13.2055C15.3704 13.3194 15.2227 13.4822 15.1272 13.6757L13.1484 17.685L8.72445 18.3277C8.51093 18.3587 8.31034 18.4488 8.14537 18.5879C7.98041 18.727 7.85765 18.9094 7.79097 19.1146C7.72429 19.3198 7.71636 19.5396 7.76808 19.7491C7.81979 19.9585 7.92909 20.1494 8.0836 20.3H8.08317ZM14.0825 19.8859C14.268 19.8589 14.4442 19.7873 14.5958 19.6771C14.7475 19.5669 14.8701 19.4215 14.953 19.2534L16.1639 16.7999L17.3748 19.2534C17.4578 19.4215 17.5804 19.5669 17.7321 19.6771C17.8837 19.7873 18.0599 19.8589 18.2454 19.8859L20.953 20.2793L18.9938 22.1891C18.8596 22.32 18.7592 22.4815 18.7013 22.6598C18.6434 22.8381 18.6297 23.0278 18.6614 23.2126L19.1239 25.9092L16.7021 24.6359C16.5362 24.5488 16.3516 24.5032 16.1641 24.5032C15.9767 24.5032 15.7921 24.5488 15.6261 24.6359L13.2049 25.9088L13.6674 23.2121C13.6991 23.0274 13.6854 22.8377 13.6275 22.6594C13.5696 22.4811 13.4692 22.3196 13.335 22.1887L11.375 20.2793L14.0825 19.8859Z" fill="#EF7E20"/><path d="M0.661571 33.6701L2.72042 35.6777L2.23465 38.5119C2.19815 38.7246 2.22188 38.9432 2.30317 39.1431C2.38445 39.343 2.52004 39.5161 2.69459 39.6429C2.86915 39.7697 3.07572 39.8452 3.29092 39.8608C3.50613 39.8763 3.72139 39.8313 3.91237 39.7309L6.45727 38.393L9.00218 39.7309C9.19314 39.8312 9.40835 39.8761 9.62349 39.8605C9.83862 39.8449 10.0451 39.7694 10.2196 39.6426C10.3941 39.5158 10.5296 39.3427 10.6109 39.1429C10.6921 38.9431 10.7159 38.7245 10.6795 38.5119L10.1934 35.6777L12.2523 33.6701C12.4067 33.5195 12.516 33.3287 12.5677 33.1193C12.6194 32.9098 12.6114 32.6901 12.5448 32.4849C12.4781 32.2798 12.3554 32.0973 12.1905 31.9583C12.0256 31.8192 11.825 31.729 11.6115 31.698L8.76616 31.2854L7.49429 28.7071C7.39881 28.5136 7.2511 28.3507 7.06786 28.2368C6.88462 28.1229 6.67317 28.0625 6.45742 28.0625C6.24166 28.0625 6.03021 28.1229 5.84698 28.2368C5.66374 28.3507 5.51603 28.5136 5.42055 28.7071L4.14868 31.2854L1.30242 31.6986C1.08905 31.7297 0.888622 31.8198 0.723788 31.9589C0.558954 32.0979 0.436279 32.2802 0.369621 32.4853C0.302963 32.6904 0.294978 32.91 0.346568 33.1194C0.398158 33.3287 0.507267 33.5195 0.661571 33.6701ZM5.08191 33.4861C5.26741 33.4592 5.44358 33.3875 5.59522 33.2773C5.74687 33.1672 5.86946 33.0218 5.95243 32.8537L6.45713 31.8313L6.96169 32.8537C7.04465 33.0218 7.16724 33.1672 7.31889 33.2773C7.47054 33.3875 7.6467 33.4592 7.8322 33.4861L8.96055 33.6502L8.14424 34.446C8.01 34.5768 7.9096 34.7384 7.85169 34.9167C7.79378 35.095 7.78009 35.2848 7.81182 35.4695L8.00448 36.5933L6.99522 36.0627C6.8293 35.9755 6.64465 35.9299 6.4572 35.9299C6.26975 35.9299 6.08511 35.9755 5.91918 36.0627L4.90992 36.5933L5.10273 35.4695C5.13445 35.2848 5.12077 35.095 5.06286 34.9167C5.00495 34.7384 4.90455 34.5768 4.77031 34.446L3.95385 33.6502L5.08191 33.4861Z" fill="#EF7E20"/><path d="M18.8125 39.625H22.2812V41.9375H18.8125V39.625Z" fill="#EF7E20"/><path d="M18.8125 45.4062H22.2812V47.7188H18.8125V45.4062Z" fill="#EF7E20"/><path d="M18.8125 51.1875H22.2812V53.5H18.8125V51.1875Z" fill="#EF7E20"/><path d="M18.8125 56.9688H22.2812V59.2812H18.8125V56.9688Z" fill="#EF7E20"/><path d="M65.0625 54.6562H62.75C61.5238 54.6576 60.3482 55.1453 59.4812 56.0124C58.6141 56.8795 58.1264 58.055 58.125 59.2812V61.6623C57.2913 61.7953 56.4997 62.1197 55.8125 62.6101V56.9688H53.5V62.75H45.4062V36.1562H53.5V54.6562H55.8125V35C55.8125 34.6933 55.6907 34.3992 55.4738 34.1824C55.257 33.9656 54.9629 33.8438 54.6562 33.8438H45.4062V28.0625C45.4062 27.7558 45.2844 27.4617 45.0676 27.2449C44.8508 27.0281 44.5567 26.9062 44.25 26.9062H40.7812V24.5938C40.7812 24.2871 40.6594 23.993 40.4426 23.7762C40.2258 23.5593 39.9317 23.4375 39.625 23.4375H30.375C30.0683 23.4375 29.7742 23.5593 29.5574 23.7762C29.3406 23.993 29.2188 24.2871 29.2188 24.5938V26.9062H25.75C25.4433 26.9062 25.1492 27.0281 24.9324 27.2449C24.7156 27.4617 24.5938 27.7558 24.5938 28.0625V33.8438H15.3438C15.0371 33.8438 14.743 33.9656 14.5262 34.1824C14.3093 34.3992 14.1875 34.6933 14.1875 35V41.9375H16.5V36.1562H24.5938V62.75H16.5V44.25H14.1875V62.6101C13.5003 62.1197 12.7087 61.7953 11.875 61.6623V59.2812C11.8736 58.055 11.3859 56.8795 10.5188 56.0124C9.65179 55.1453 8.4762 54.6576 7.25 54.6562H4.9375C3.7113 54.6576 2.53571 55.1453 1.66865 56.0124C0.801595 56.8795 0.313877 58.055 0.3125 59.2812V68.5312C0.3125 68.8379 0.434319 69.132 0.651158 69.3488C0.867997 69.5657 1.16209 69.6875 1.46875 69.6875H68.5312C68.8379 69.6875 69.132 69.5657 69.3488 69.3488C69.5657 69.132 69.6875 68.8379 69.6875 68.5312V59.2812C69.6861 58.055 69.1984 56.8795 68.3313 56.0124C67.4643 55.1453 66.2887 54.6576 65.0625 54.6562ZM31.5312 25.75H38.4688V30.375H31.5312V25.75ZM2.625 59.2812C2.62573 58.6682 2.8696 58.0804 3.30312 57.6469C3.73664 57.2133 4.32441 56.9695 4.9375 56.9688H7.25C7.86309 56.9695 8.45086 57.2133 8.88438 57.6469C9.3179 58.0804 9.56177 58.6682 9.5625 59.2812V61.6623C8.27327 61.8702 7.10008 62.53 6.25274 63.5237C5.4054 64.5174 4.93919 65.78 4.9375 67.0859V67.375H2.625V59.2812ZM7.25 67.375V67.0859C7.25096 66.2429 7.58627 65.4347 8.18236 64.8386C8.77847 64.2425 9.58668 63.9072 10.4297 63.9062H11.0078C11.8508 63.9072 12.659 64.2425 13.2551 64.8386C13.8512 65.4347 14.1865 66.2429 14.1875 67.0859V67.375H7.25ZM16.5 65.0625H24.5938V67.375H16.5V65.0625ZM26.9062 29.2188H29.2188V31.5312C29.2188 31.8379 29.3406 32.132 29.5574 32.3488C29.7742 32.5657 30.0683 32.6875 30.375 32.6875H39.625C39.9317 32.6875 40.2258 32.5657 40.4426 32.3488C40.6594 32.132 40.7812 31.8379 40.7812 31.5312V29.2188H43.0938V67.375H39.625V59.2812C39.625 58.9746 39.5032 58.6805 39.2863 58.4637C39.0695 58.2468 38.7754 58.125 38.4688 58.125H31.5312C31.2246 58.125 30.9305 58.2468 30.7137 58.4637C30.4968 58.6805 30.375 58.9746 30.375 59.2812V67.375H26.9062V29.2188ZM32.6875 67.375V60.4375H37.3125V67.375H32.6875ZM45.4062 65.0625H53.5V67.375H45.4062V65.0625ZM55.8125 67.375V67.0859C55.8135 66.2429 56.1488 65.4347 56.7449 64.8386C57.341 64.2425 58.1492 63.9072 58.9922 63.9062H59.5703C60.4133 63.9072 61.2215 64.2425 61.8176 64.8386C62.4137 65.4347 62.749 66.2429 62.75 67.0859V67.375H55.8125ZM67.375 67.375H65.0625V67.0859C65.0608 65.78 64.5946 64.5174 63.7473 63.5237C62.8999 62.53 61.7267 61.8702 60.4375 61.6623V59.2812C60.4382 58.6682 60.6821 58.0804 61.1156 57.6469C61.5491 57.2133 62.1369 56.9695 62.75 56.9688H65.0625C65.6756 56.9695 66.2634 57.2133 66.6969 57.6469C67.1304 58.0804 67.3743 58.6682 67.375 59.2812V67.375Z" fill="#EF7E20"/><path d="M47.7188 51.1875H51.1875V53.5H47.7188V51.1875Z" fill="#EF7E20"/><path d="M47.7188 56.9688H51.1875V59.2812H47.7188V56.9688Z" fill="#EF7E20"/><path d="M47.7188 39.625H51.1875V41.9375H47.7188V39.625Z" fill="#EF7E20"/><path d="M47.7188 45.4062H51.1875V47.7188H47.7188V45.4062Z" fill="#EF7E20"/>
    </symbol>
    <symbol id="usage-6" viewBox="0 0 70 70">
      <path d="M13.6045 34.2926L33.9078 17.4809C34.5405 16.957 35.4592 16.9568 36.092 17.4809L59.5632 36.9158C59.7549 37.0746 59.987 37.152 60.218 37.152C60.5133 37.152 60.8067 37.0251 61.0098 36.7798C61.3717 36.3427 61.3109 35.6951 60.8738 35.3333L37.4025 15.8982C36.9888 15.5557 36.519 15.3176 36.0272 15.1785V11.9898H49.0634C49.6309 11.9898 50.0908 11.5299 50.0908 10.9624V2.79371C50.0908 2.22619 49.6309 1.76627 49.0634 1.76627H36.0272V1.02744C36.0274 0.459922 35.5674 0 34.9999 0C34.4325 0 33.9725 0.459922 33.9725 1.02744V15.1787C33.4808 15.3176 33.0109 15.5559 32.5974 15.8983L12.2941 32.7101C11.857 33.072 11.7961 33.7196 12.1579 34.1566C12.5199 34.5935 13.1676 34.6548 13.6045 34.2926ZM48.0361 3.82102V9.93494H36.0272V3.82102H48.0361Z" fill="#EF7E20"/><path d="M68.6355 41.7606L64.0384 37.9541C63.6013 37.592 62.9537 37.653 62.5919 38.0901C62.23 38.5272 62.2908 39.1748 62.7279 39.5366L67.325 43.343C67.7191 43.6693 67.9453 44.1502 67.9453 44.662V67.5933C67.9453 67.7876 67.7871 67.9456 67.5929 67.9456H44.6358V44.8508C44.6358 44.2833 44.1759 43.8234 43.6084 43.8234H26.3914C25.824 43.8234 25.3639 44.2833 25.3639 44.8508V67.9459H2.40721C2.21293 67.9459 2.05475 67.7877 2.05475 67.5936V44.6622C2.05475 44.1503 2.28088 43.6696 2.67504 43.3431L10.4367 36.9164C10.8738 36.5545 10.9346 35.907 10.5729 35.4699C10.2108 35.0328 9.5632 34.9718 9.12625 35.3339L1.36459 41.7606C0.497383 42.4788 0 43.5362 0 44.6622V67.5935C0 68.9209 1.07994 70.0007 2.40721 70.0007H67.5928C68.9201 70.0007 70 68.9209 70 67.5935V44.6622C70 43.5363 69.5028 42.4789 68.6355 41.7606ZM27.4189 45.8783H33.9726V59.1341C33.9726 59.7016 34.4326 60.1616 35 60.1616C35.5675 60.1616 36.0274 59.7016 36.0274 59.1341V45.8783H42.5811V67.9459H36.0274V63.2438C36.0274 62.6762 35.5675 62.2163 35 62.2163C34.4326 62.2163 33.9726 62.6762 33.9726 63.2438V67.9459H27.4189V45.8783Z" fill="#EF7E20"/><path d="M8.75391 51.6517V58.8996C8.75391 60.0484 9.68852 60.983 10.8372 60.983H18.0851C19.2338 60.983 20.1684 60.0484 20.1684 58.8996V51.6517C20.1684 50.503 19.2338 49.5684 18.0851 49.5684H10.8372C9.68852 49.5685 8.75391 50.503 8.75391 51.6517ZM10.8088 51.6517C10.8088 51.6361 10.8216 51.6232 10.8372 51.6232H18.0851C18.1008 51.6232 18.1137 51.6361 18.1137 51.6517V58.8996C18.1137 58.9153 18.1008 58.9281 18.0851 58.9281H10.8372C10.8215 58.9281 10.8088 58.9153 10.8088 58.8996V51.6517Z" fill="#EF7E20"/><path d="M59.1627 49.5684H51.9149C50.7662 49.5684 49.8315 50.503 49.8315 51.6517V58.8996C49.8315 60.0484 50.7662 60.983 51.9149 60.983H59.1627C60.3114 60.983 61.2461 60.0484 61.2461 58.8996V51.6517C61.2461 50.5028 60.3114 49.5684 59.1627 49.5684ZM59.1912 58.8994C59.1912 58.9151 59.1783 58.928 59.1627 58.928H51.9149C51.8991 58.928 51.8863 58.9151 51.8863 58.8994V51.6515C51.8863 51.636 51.8991 51.6231 51.9149 51.6231H59.1627C59.1785 51.6231 59.1912 51.636 59.1912 51.6515V58.8994Z" fill="#EF7E20"/><path d="M42.2246 30.6045C42.01 29.9439 41.4795 29.4494 40.8055 29.2815L38.1477 28.6192L36.6968 26.2962C36.6968 26.2962 36.6968 26.2962 36.6967 26.2962C36.3286 25.7071 35.6943 25.3555 34.9997 25.3555C34.3051 25.3555 33.6707 25.707 33.3028 26.2962L31.8518 28.6192L29.1942 29.2815C28.5202 29.4492 27.9896 29.9439 27.775 30.6044C27.5603 31.2651 27.6987 31.9772 28.1453 32.5096L29.9063 34.6072L29.7147 37.3394C29.6662 38.0325 29.9727 38.6899 30.5348 39.0982C30.8837 39.3515 31.2933 39.4817 31.708 39.4817C31.9613 39.4817 32.2164 39.4331 32.4606 39.3344L34.9997 38.3081L37.539 39.3346C38.1832 39.5949 38.9032 39.5064 39.465 39.0983C40.027 38.6899 40.3334 38.0325 40.2849 37.3396L40.0933 34.6072L41.8543 32.5097C42.3009 31.9773 42.4394 31.2653 42.2246 30.6045ZM38.5053 33.3031C38.1702 33.7027 38.0056 34.2091 38.0423 34.7293L38.2293 37.3973L35.7496 36.395C35.5079 36.2972 35.2539 36.2484 34.9999 36.2484C34.7458 36.2484 34.4918 36.2972 34.2501 36.395L31.7706 37.3973L31.9575 34.7293C31.994 34.2092 31.8295 33.7027 31.494 33.3028L29.7746 31.2545L32.3695 30.6078C32.8757 30.4817 33.3066 30.1688 33.5829 29.7264L34.9997 27.4581L36.4166 29.7264C36.6929 30.1688 37.1238 30.4817 37.6299 30.6078L40.225 31.2545L38.5053 33.3031Z" fill="#EF7E20"/>
    </symbol>
    <symbol id="wall-panels-icon" viewBox="0 0 48 48">
      <g clip-path="url(#clip0)" fill="#EF7E20"><path d="M1.59998 31.1999H17.6001C18.4834 31.1988 19.199 30.4833 19.2001 29.6V18.3998C19.199 17.5165 18.4834 16.8009 17.6001 16.7998H1.59998C0.716675 16.8009 0.00109864 17.5165 0 18.3998V29.6C0.00109864 30.4833 0.716675 31.1988 1.59998 31.1999ZM1.59998 18.3998H17.6001L17.6008 29.6H1.59998V18.3998Z"/><path d="M1.59998 47.9998H7.99988C8.88318 47.9987 9.59912 47.2831 9.59985 46.3998V35.1996C9.59912 34.3167 8.88318 33.6007 7.99988 33.5996H1.59998C0.716675 33.6007 0.00109864 34.3167 0 35.1996V46.3998C0.00109864 47.2831 0.716675 47.9987 1.59998 47.9998ZM1.59998 35.1996H7.99988L8.00098 46.3998H1.59998V35.1996Z"/><path d="M46.4 0H1.59998C0.716675 0.00109864 0.00109864 0.716675 0 1.59998V12.8002C0.00109864 13.6831 0.716675 14.399 1.59998 14.4001H23.6279C24.0791 15.167 24.4662 15.9697 24.7859 16.7999H23.1998C22.3169 16.801 21.601 17.5166 21.5999 18.3999V29.6001C21.601 30.4834 22.3169 31.199 23.1998 31.2001H24.7397C24.7288 31.5615 24.7075 31.9248 24.7115 32.2819C24.717 32.7052 24.7375 33.1487 24.765 33.5999H13.6C12.7167 33.601 12.0011 34.3169 12 35.1998V46.4C12.0011 47.2833 12.7167 47.9989 13.6 48H46.4C47.2833 47.9989 47.9989 47.2833 48 46.4V1.59998C47.9989 0.716675 47.2833 0.00109864 46.4 0V0ZM1.59998 1.59998H14.9941C14.9429 2.72095 14.9791 3.84412 15.1033 4.95923C15.546 7.2561 17.339 8.41589 18.921 9.43945L19.1781 9.60571C20.4833 10.4674 21.6295 11.5481 22.5667 12.8002H1.59998V1.59998ZM23.1998 18.3999H25.299C25.6644 19.7347 25.8625 21.1099 25.8882 22.4934C25.8651 23.7294 25.6948 24.958 25.3813 26.1537C25.2623 26.6931 25.1429 27.2369 25.0444 27.7972C24.9404 28.3832 24.8723 28.9896 24.821 29.6001H23.1998V18.3999ZM13.6 35.1998H24.9243C25.3506 39.278 26.9052 43.1565 29.4137 46.4H13.6V35.1998ZM46.4 46.4H31.5359C28.5304 43.0605 26.7294 38.8103 26.421 34.3279C26.3562 33.6105 26.3196 32.915 26.3119 32.2614C26.3038 31.6644 26.3203 31.0551 26.3599 30.4384C26.3969 29.6459 26.484 28.8567 26.6199 28.0752C26.7155 27.5372 26.8301 27.015 26.9443 26.4972C27.286 25.1807 27.4688 23.8282 27.4889 22.4681C27.46 20.7356 27.186 19.0159 26.6752 17.3599C26.2196 15.8914 25.5795 14.4869 24.7694 13.1799C23.58 11.2126 21.9686 9.53394 20.0515 8.26501L19.7897 8.09546C18.2867 7.1228 16.9874 6.28308 16.6772 4.67834C16.5831 3.65515 16.5527 2.62683 16.5861 1.59998H46.4V46.4Z"/><path d="M18.2812 4.50326C18.5211 5.33455 19.3407 5.89925 20.6587 6.75106L20.9289 6.92647C23.0387 8.31954 24.8129 10.1641 26.1225 12.327C27.0091 13.757 27.7097 15.294 28.2081 16.9013C28.3407 17.3228 28.7896 17.5568 29.2111 17.4246C29.6327 17.2921 29.867 16.8427 29.7345 16.4212C29.1961 14.6861 28.4392 13.0264 27.4823 11.4821C26.0489 9.12008 24.1087 7.10628 21.802 5.58577L21.528 5.40816C20.9044 5.05953 20.3353 4.62154 19.8387 4.10811L19.8263 3.94661C19.797 3.50533 19.4157 3.17171 18.9748 3.20101C18.5339 3.23067 18.2003 3.6119 18.2296 4.05282C18.2376 4.16744 18.2453 4.27144 18.2534 4.35897C18.2585 4.40767 18.2677 4.45601 18.2812 4.50326Z"/><path d="M29.0874 22.4399C29.069 23.9418 28.8706 25.4359 28.4959 26.8905C28.3897 27.3713 28.2835 27.8551 28.196 28.3524C28.0693 29.0801 27.9891 29.8147 27.9554 30.5526C27.9195 31.1147 27.9045 31.6838 27.9114 32.2423C27.9188 32.8546 27.9532 33.5028 28.014 34.1741C28.278 37.9398 29.6649 41.5397 31.9951 44.5096C32.1741 44.7396 32.4642 44.8539 32.752 44.8085C33.0399 44.7627 33.2801 44.5642 33.379 44.2903C33.4782 44.016 33.4204 43.7098 33.2281 43.4908C31.1165 40.7611 29.8568 37.4689 29.607 34.0269C29.551 33.4006 29.5191 32.7938 29.5118 32.2225C29.5045 31.704 29.5184 31.1777 29.5532 30.6427C29.5832 29.9681 29.6561 29.2965 29.7711 28.6311C29.8553 28.1569 29.9578 27.694 30.0695 27.1846C30.468 25.6252 30.6752 24.0231 30.6873 22.4136C30.6804 21.9771 30.324 21.6266 29.8875 21.627H29.8743C29.6619 21.6302 29.4598 21.7178 29.3126 21.8705C29.165 22.0228 29.0841 22.2279 29.0874 22.4399Z"/></g>
    </symbol></svg>