<svg xmlns="http://www.w3.org/2000/svg" style="border: 0 !important; clip: rect(0 0 0 0) !important; height: 1px !important; margin: -1px !important; overflow: hidden !important; padding: 0 !important; position: absolute !important; width: 1px !important;" class="root-svg-symbols-element">
  <defs>
      <clipPath id="clip0"><path fill="#fff" d="M0 0H47V47H0z"/></clipPath>
<clipPath id="clip0"><path fill="#fff" d="M0 0H30V30H0z"/></clipPath>
<clipPath id="clip0"><path fill="#fff" d="M0 0H48V48H0z"/></clipPath>
  </defs>
    <symbol id="burger-icon" viewBox="0 0 51 34">
      <path fill="currentColor" d="M0 0H51V4H0z"/><path fill="currentColor" d="M0 15H51V19H0z"/><path fill="currentColor" d="M0 30H51V34H0z"/>
    </symbol>
    <symbol id="close-icon" viewBox="0 0 23 23">
      <path d="M1 1L22 22" stroke="currentColor"/><path d="M22 1L0.999999 22" stroke="currentColor"/>
    </symbol>
    <symbol id="phone-icon" viewBox="0 0 23 23">
      <path d="M17.4861 15.2148C16.7347 14.4729 15.7967 14.4729 15.05 15.2148C14.4805 15.7795 13.9109 16.3443 13.351 16.9186C13.1978 17.0766 13.0686 17.1101 12.8819 17.0048C12.5134 16.8038 12.1209 16.641 11.7668 16.4209C10.1156 15.3823 8.7324 14.047 7.50716 12.5442C6.89933 11.7975 6.3585 10.9982 5.9804 10.0985C5.90383 9.91659 5.91818 9.79694 6.06655 9.64857C6.6361 9.09817 7.19128 8.53342 7.75125 7.96866C8.53138 7.18374 8.53138 6.26481 7.74647 5.47511C7.30136 5.02522 6.85626 4.5849 6.41115 4.13501C5.95169 3.67554 5.49701 3.21129 5.03276 2.75661C4.28134 2.02434 3.34327 2.02434 2.59664 2.7614C2.02231 3.32616 1.47191 3.90527 0.88801 4.46046C0.347183 4.97257 0.0743758 5.59955 0.0169428 6.33182C-0.0739928 7.52355 0.217958 8.64828 0.629561 9.7443C1.47191 12.0129 2.75458 14.0278 4.31006 15.8753C6.41115 18.3736 8.91906 20.3503 11.8529 21.7765C13.1739 22.4178 14.5427 22.9108 16.0312 22.9922C17.0554 23.0496 17.9456 22.7912 18.6587 21.9919C19.1469 21.4463 19.6973 20.9485 20.2142 20.4268C20.98 19.6515 20.9848 18.7134 20.2238 17.9476C19.3144 17.0335 18.4003 16.1241 17.4861 15.2148Z" fill="#69CCDB"/><path d="M16.572 11.4005L18.3381 11.099C18.0605 9.47653 17.2947 8.0072 16.1317 6.8394C14.9017 5.60938 13.3462 4.83403 11.6328 4.59473L11.3839 6.37036C12.7096 6.55702 13.9157 7.15528 14.8682 8.10771C15.7679 9.0075 16.3566 10.1466 16.572 11.4005Z" fill="#69CCDB"/><path d="M19.3336 3.72357C17.2947 1.6847 14.715 0.397245 11.8673 0L11.6184 1.77564C14.0785 2.12023 16.3088 3.23539 18.07 4.99188C19.7404 6.66223 20.8364 8.77289 21.2336 11.0941L22.9997 10.7926C22.5355 8.10284 21.2672 5.66194 19.3336 3.72357Z" fill="#69CCDB"/>
    </symbol>
    <symbol id="select-panels" viewBox="0 0 47 47">
      <g clip-path="url(#clip0)" fill="#EF7E20"><path d="M37.3771 18.5368H37.3111C36.4097 18.5317 35.5388 18.863 34.8682 19.4656C34.3254 17.9635 32.9461 16.8837 31.3304 16.8837C30.3402 16.8906 29.3944 17.2972 28.7084 18.0117C28.0776 16.7347 26.8121 15.8684 25.3571 15.8684H25.2868C24.507 15.8564 23.7461 16.1101 23.1292 16.5872V7.48299C23.1292 5.28289 21.4163 3.49316 19.3328 3.49316C17.2516 3.49316 15.5476 5.28173 15.5464 7.48029L15.529 25.5436L14.5068 24.302C13.6104 23.186 12.2908 22.493 10.8632 22.3884C9.46495 22.2926 8.08946 22.7791 7.06256 23.7334L6.17311 24.4704C5.88627 24.7082 5.80443 25.1135 5.97622 25.444L14.6241 42.0669C16.2054 45.1047 19.2139 46.9999 22.4756 46.9999H32.2214V46.9914C37.1629 46.9914 41.1693 42.7035 41.1743 37.4385C41.1763 35.0829 41.1674 33.3271 41.1689 31.9041C41.1739 28.0969 41.1701 26.6921 41.1604 22.4976C41.1554 20.3026 39.4549 18.5368 37.3771 18.5368ZM39.5761 31.8987C39.5745 33.3221 39.5722 35.0848 39.5699 37.4405C39.5657 41.8349 36.2483 45.4182 32.1751 45.4182H22.476C19.8061 45.4182 17.335 43.8489 16.0274 41.3365L7.67368 25.2841L8.08598 24.9402C8.09641 24.9317 8.10644 24.9216 8.11648 24.9128C8.82565 24.2453 9.77997 23.9025 10.7517 23.9662C11.745 24.0422 12.6614 24.5279 13.2826 25.3065L15.7028 28.2513C15.9143 28.5096 16.2656 28.6065 16.5799 28.4942C16.8941 28.3818 17.1041 28.0838 17.1041 27.7502L17.1184 7.48106C17.1192 6.15382 18.1229 5.07404 19.3336 5.07404C20.5442 5.07404 21.5479 6.15498 21.5479 7.48299V19.7042C21.5479 19.7466 21.546 19.7895 21.546 19.8327C21.546 19.8513 21.5479 19.8702 21.5479 19.8883V25.1135C21.5479 25.5501 21.9019 25.9041 22.3386 25.9041C22.7752 25.9041 23.1292 25.5501 23.1292 25.1135V19.7308C23.1292 18.4503 24.1074 17.4496 25.2868 17.4496H25.3571C26.5685 17.4496 27.5765 18.5055 27.5765 19.8335V24.6147C27.5765 25.0514 27.9305 25.4054 28.3671 25.4054C28.8037 25.4054 29.1578 25.0514 29.1578 24.6147V20.8635C29.1578 19.5351 30.1175 18.4545 31.3355 18.4545C32.5465 18.4545 33.5062 19.5347 33.5062 20.8635V24.4024C33.5062 24.839 33.8602 25.193 34.2969 25.193C34.7335 25.193 35.0875 24.839 35.0875 24.4024V22.4861C35.0875 21.1577 36.0997 20.118 37.3111 20.118H37.3771C38.5855 20.118 39.5703 21.1754 39.5734 22.4996C39.583 26.6909 39.5811 28.0942 39.5761 31.8987Z"/><path d="M13.0351 7.82446C13.4718 7.82446 13.8258 7.47046 13.8258 7.03383C13.8385 4.01685 16.288 1.57817 19.3046 1.57817C22.3216 1.57817 24.7707 4.01685 24.7834 7.03383C24.7834 7.47046 25.1374 7.82446 25.574 7.82446C26.0107 7.82446 26.3647 7.47046 26.3647 7.03383C26.35 3.14476 23.1937 0 19.3046 0C15.4159 0 12.2592 3.14476 12.2445 7.03383C12.2445 7.47046 12.5985 7.82446 13.0351 7.82446Z"/></g>
    </symbol>
    <symbol id="slider-arrow" viewBox="0 0 30 30">
      <g clip-path="url(#clip0)"><path d="M29.8169 14.5581L20.4419 5.18312C20.1977 4.93896 19.8022 4.93896 19.5581 5.18312C19.314 5.42728 19.314 5.82279 19.5581 6.06689L27.8663 14.375H0.62502C0.279551 14.375 0 14.6546 0 15C0 15.3455 0.279551 15.6251 0.62502 15.6251H27.8663L19.5581 23.9331C19.314 24.1773 19.314 24.5728 19.5581 24.8169C19.6802 24.9389 19.8401 25 20 25C20.1599 25 20.3198 24.9389 20.442 24.8169L29.817 15.4419C30.0611 15.1978 30.0611 14.8023 29.8169 14.5581Z" fill="#fff"/></g>
    </symbol>
    <symbol id="wall-panels-icon" viewBox="0 0 48 48">
      <g clip-path="url(#clip0)" fill="#EF7E20"><path d="M1.59998 31.1999H17.6001C18.4834 31.1988 19.199 30.4833 19.2001 29.6V18.3998C19.199 17.5165 18.4834 16.8009 17.6001 16.7998H1.59998C0.716675 16.8009 0.00109864 17.5165 0 18.3998V29.6C0.00109864 30.4833 0.716675 31.1988 1.59998 31.1999ZM1.59998 18.3998H17.6001L17.6008 29.6H1.59998V18.3998Z"/><path d="M1.59998 47.9998H7.99988C8.88318 47.9987 9.59912 47.2831 9.59985 46.3998V35.1996C9.59912 34.3167 8.88318 33.6007 7.99988 33.5996H1.59998C0.716675 33.6007 0.00109864 34.3167 0 35.1996V46.3998C0.00109864 47.2831 0.716675 47.9987 1.59998 47.9998ZM1.59998 35.1996H7.99988L8.00098 46.3998H1.59998V35.1996Z"/><path d="M46.4 0H1.59998C0.716675 0.00109864 0.00109864 0.716675 0 1.59998V12.8002C0.00109864 13.6831 0.716675 14.399 1.59998 14.4001H23.6279C24.0791 15.167 24.4662 15.9697 24.7859 16.7999H23.1998C22.3169 16.801 21.601 17.5166 21.5999 18.3999V29.6001C21.601 30.4834 22.3169 31.199 23.1998 31.2001H24.7397C24.7288 31.5615 24.7075 31.9248 24.7115 32.2819C24.717 32.7052 24.7375 33.1487 24.765 33.5999H13.6C12.7167 33.601 12.0011 34.3169 12 35.1998V46.4C12.0011 47.2833 12.7167 47.9989 13.6 48H46.4C47.2833 47.9989 47.9989 47.2833 48 46.4V1.59998C47.9989 0.716675 47.2833 0.00109864 46.4 0V0ZM1.59998 1.59998H14.9941C14.9429 2.72095 14.9791 3.84412 15.1033 4.95923C15.546 7.2561 17.339 8.41589 18.921 9.43945L19.1781 9.60571C20.4833 10.4674 21.6295 11.5481 22.5667 12.8002H1.59998V1.59998ZM23.1998 18.3999H25.299C25.6644 19.7347 25.8625 21.1099 25.8882 22.4934C25.8651 23.7294 25.6948 24.958 25.3813 26.1537C25.2623 26.6931 25.1429 27.2369 25.0444 27.7972C24.9404 28.3832 24.8723 28.9896 24.821 29.6001H23.1998V18.3999ZM13.6 35.1998H24.9243C25.3506 39.278 26.9052 43.1565 29.4137 46.4H13.6V35.1998ZM46.4 46.4H31.5359C28.5304 43.0605 26.7294 38.8103 26.421 34.3279C26.3562 33.6105 26.3196 32.915 26.3119 32.2614C26.3038 31.6644 26.3203 31.0551 26.3599 30.4384C26.3969 29.6459 26.484 28.8567 26.6199 28.0752C26.7155 27.5372 26.8301 27.015 26.9443 26.4972C27.286 25.1807 27.4688 23.8282 27.4889 22.4681C27.46 20.7356 27.186 19.0159 26.6752 17.3599C26.2196 15.8914 25.5795 14.4869 24.7694 13.1799C23.58 11.2126 21.9686 9.53394 20.0515 8.26501L19.7897 8.09546C18.2867 7.1228 16.9874 6.28308 16.6772 4.67834C16.5831 3.65515 16.5527 2.62683 16.5861 1.59998H46.4V46.4Z"/><path d="M18.2812 4.50326C18.5211 5.33455 19.3407 5.89925 20.6587 6.75106L20.9289 6.92647C23.0387 8.31954 24.8129 10.1641 26.1225 12.327C27.0091 13.757 27.7097 15.294 28.2081 16.9013C28.3407 17.3228 28.7896 17.5568 29.2111 17.4246C29.6327 17.2921 29.867 16.8427 29.7345 16.4212C29.1961 14.6861 28.4392 13.0264 27.4823 11.4821C26.0489 9.12008 24.1087 7.10628 21.802 5.58577L21.528 5.40816C20.9044 5.05953 20.3353 4.62154 19.8387 4.10811L19.8263 3.94661C19.797 3.50533 19.4157 3.17171 18.9748 3.20101C18.5339 3.23067 18.2003 3.6119 18.2296 4.05282C18.2376 4.16744 18.2453 4.27144 18.2534 4.35897C18.2585 4.40767 18.2677 4.45601 18.2812 4.50326Z"/><path d="M29.0874 22.4399C29.069 23.9418 28.8706 25.4359 28.4959 26.8905C28.3897 27.3713 28.2835 27.8551 28.196 28.3524C28.0693 29.0801 27.9891 29.8147 27.9554 30.5526C27.9195 31.1147 27.9045 31.6838 27.9114 32.2423C27.9188 32.8546 27.9532 33.5028 28.014 34.1741C28.278 37.9398 29.6649 41.5397 31.9951 44.5096C32.1741 44.7396 32.4642 44.8539 32.752 44.8085C33.0399 44.7627 33.2801 44.5642 33.379 44.2903C33.4782 44.016 33.4204 43.7098 33.2281 43.4908C31.1165 40.7611 29.8568 37.4689 29.607 34.0269C29.551 33.4006 29.5191 32.7938 29.5118 32.2225C29.5045 31.704 29.5184 31.1777 29.5532 30.6427C29.5832 29.9681 29.6561 29.2965 29.7711 28.6311C29.8553 28.1569 29.9578 27.694 30.0695 27.1846C30.468 25.6252 30.6752 24.0231 30.6873 22.4136C30.6804 21.9771 30.324 21.6266 29.8875 21.627H29.8743C29.6619 21.6302 29.4598 21.7178 29.3126 21.8705C29.165 22.0228 29.0841 22.2279 29.0874 22.4399Z"/></g>
    </symbol></svg>