<svg xmlns="http://www.w3.org/2000/svg" style="border: 0 !important; clip: rect(0 0 0 0) !important; height: 1px !important; margin: -1px !important; overflow: hidden !important; padding: 0 !important; position: absolute !important; width: 1px !important;" class="root-svg-symbols-element">
  <defs>
      <clipPath id="clip0"><path fill="#fff" d="M0 0H33V33H0z"/></clipPath>
<clipPath id="clip0"><path fill="#fff" d="M0 0H47V47H0z"/></clipPath>
<clipPath id="clip0"><path fill="currentColor" d="M0 0H30V30H0z"/></clipPath>
<clipPath id="clip0"><path fill="#fff" d="M0 0H48V48H0z"/></clipPath>
  </defs>
    <symbol id="breadcrumbs-sep" viewBox="0 0 10 17">
      <path d="M1 1L9 8.5L1 16" stroke="#BFBFBF"/>
    </symbol>
    <symbol id="burger-icon" viewBox="0 0 51 34">
      <path fill="currentColor" d="M0 0H51V4H0z"/><path fill="currentColor" d="M0 15H51V19H0z"/><path fill="currentColor" d="M0 30H51V34H0z"/>
    </symbol>
    <symbol id="close-icon" viewBox="0 0 23 23">
      <path d="M1 1L22 22" stroke="currentColor"/><path d="M22 1L0.999999 22" stroke="currentColor"/>
    </symbol>
    <symbol id="first-nav-icon" viewBox="0 0 26 25">
      <path fill-rule="evenodd" clip-rule="evenodd" d="M5 0H4V1V5.28571H2H0V7.28571V22.5714V24.5714H2H17.2857H19.2857V22.5714V21.2857H24.2857H25.2857V20.2857V1V0H24.2857H5ZM19.2857 19.2857H23.2857V2H6V5.28571H17.2857H19.2857V7.28571V19.2857ZM2 7.28571H17.2857V22.5714H2V7.28571Z" fill="#EF7E20"/>
    </symbol>
    <symbol id="like-icon" viewBox="0 0 51 51">
      <path d="M48.8004 34.6719C49.8455 33.3388 50.3468 31.9097 50.2828 30.4379C50.2188 28.8168 49.4936 27.5477 48.8964 26.7691C49.5896 25.0414 49.8562 22.3218 47.5419 20.2102C45.8462 18.6637 42.9666 17.9705 38.9779 18.1625C36.173 18.2905 33.8267 18.813 33.7307 18.8344H33.7201C33.1868 18.9304 32.6216 19.0477 32.0457 19.1757C32.003 18.4931 32.1203 16.7974 33.3788 12.9793C34.8719 8.43601 34.7866 4.95922 33.1015 2.63425C31.3311 0.19197 28.5049 0 27.673 0C26.8731 0 26.1373 0.330615 25.6147 0.938519C24.4309 2.3143 24.5695 4.85257 24.7188 6.02572C23.311 9.80113 19.365 19.0583 16.0268 21.6286C15.9629 21.6713 15.9095 21.7246 15.8562 21.7779C14.875 22.8124 14.2138 23.9322 13.7659 24.9134C13.1366 24.5721 12.4221 24.3802 11.6542 24.3802H5.14855C2.6956 24.3802 0.711914 26.3745 0.711914 28.8168V46.1474C0.711914 48.6004 2.70627 50.5841 5.14855 50.5841H11.6542C12.6034 50.5841 13.4886 50.2854 14.2138 49.7735L16.7201 50.0721C17.104 50.1255 23.9296 50.9893 30.9365 50.8507C32.2056 50.9467 33.4001 51 34.5093 51C36.4183 51 38.0821 50.8507 39.4685 50.5521C42.732 49.8588 44.961 48.4724 46.0915 46.4354C46.9553 44.8783 46.9553 43.3319 46.8167 42.3507C48.939 40.431 49.3123 38.3087 49.2376 36.8156C49.195 35.9517 49.003 35.2158 48.8004 34.6719ZM5.14855 47.7045C4.28469 47.7045 3.59146 47.0006 3.59146 46.1474V28.8061C3.59146 27.9423 4.29535 27.2491 5.14855 27.2491H11.6542C12.5181 27.2491 13.2113 27.9529 13.2113 28.8061V46.1368C13.2113 47.0006 12.5074 47.6939 11.6542 47.6939H5.14855V47.7045ZM46.0701 33.4241C45.6222 33.8933 45.5369 34.6079 45.8782 35.1625C45.8782 35.1731 46.3154 35.9197 46.3687 36.9435C46.4434 38.3407 45.7715 39.5778 44.3637 40.6336C43.8625 41.0176 43.6598 41.6788 43.8731 42.276C43.8731 42.2867 44.3317 43.6945 43.5852 45.0276C42.8706 46.3074 41.2815 47.2246 38.8713 47.7365C36.9409 48.1524 34.3173 48.2271 31.0965 47.9711C31.0538 47.9711 31.0005 47.9711 30.9472 47.9711C24.0896 48.1204 17.1573 47.2246 17.0827 47.2139H17.072L15.9948 47.0859C16.0588 46.7873 16.0908 46.4674 16.0908 46.1474V28.8061C16.0908 28.3476 16.0162 27.8996 15.8882 27.4837C16.0802 26.7691 16.6134 25.18 17.8719 23.8256C22.6605 20.0289 27.3424 7.2202 27.545 6.66562C27.6304 6.44166 27.6517 6.19636 27.609 5.95107C27.4277 4.75659 27.4917 3.29548 27.7477 2.85822C28.3129 2.86888 29.838 3.02886 30.7552 4.29799C31.843 5.80176 31.8004 8.48934 30.6272 12.0514C28.8355 17.4799 28.6862 20.3381 30.1046 21.5966C30.8085 22.2258 31.747 22.2578 32.4296 22.0125C33.0802 21.8632 33.6987 21.7353 34.2853 21.6393C34.328 21.6286 34.3813 21.6179 34.424 21.6073C37.6981 20.8927 43.5639 20.4555 45.6009 22.3112C47.3286 23.8896 46.1021 25.9799 45.9635 26.2039C45.5689 26.8011 45.6862 27.5797 46.2194 28.0596C46.2301 28.0703 47.3499 29.1261 47.4033 30.5445C47.4459 31.4937 46.998 32.4642 46.0701 33.4241Z" fill="#EF7E20"/>
    </symbol>
    <symbol id="list-check-icon" viewBox="0 0 33 33">
      <g clip-path="url(#clip0)"><path d="M32.6294 4.35516C32.123 3.83077 31.2874 3.81622 30.763 4.32267C30.752 4.33327 30.7412 4.3441 30.7305 4.35516L9.22378 25.862L2.23701 18.8752C1.71262 18.3687 0.877 18.3833 0.370554 18.9077C-0.123518 19.4192 -0.123518 20.2302 0.370554 20.7417L8.29055 28.6617C8.80604 29.1771 9.64159 29.1771 10.157 28.6617L32.597 6.22169C33.1214 5.71517 33.1359 4.87955 32.6294 4.35516Z" fill="#EF7E20"/></g>
    </symbol>
    <symbol id="phone-icon" viewBox="0 0 23 23">
      <path d="M17.4861 15.2148C16.7347 14.4729 15.7967 14.4729 15.05 15.2148C14.4805 15.7795 13.9109 16.3443 13.351 16.9186C13.1978 17.0766 13.0686 17.1101 12.8819 17.0048C12.5134 16.8038 12.1209 16.641 11.7668 16.4209C10.1156 15.3823 8.7324 14.047 7.50716 12.5442C6.89933 11.7975 6.3585 10.9982 5.9804 10.0985C5.90383 9.91659 5.91818 9.79694 6.06655 9.64857C6.6361 9.09817 7.19128 8.53342 7.75125 7.96866C8.53138 7.18374 8.53138 6.26481 7.74647 5.47511C7.30136 5.02522 6.85626 4.5849 6.41115 4.13501C5.95169 3.67554 5.49701 3.21129 5.03276 2.75661C4.28134 2.02434 3.34327 2.02434 2.59664 2.7614C2.02231 3.32616 1.47191 3.90527 0.88801 4.46046C0.347183 4.97257 0.0743758 5.59955 0.0169428 6.33182C-0.0739928 7.52355 0.217958 8.64828 0.629561 9.7443C1.47191 12.0129 2.75458 14.0278 4.31006 15.8753C6.41115 18.3736 8.91906 20.3503 11.8529 21.7765C13.1739 22.4178 14.5427 22.9108 16.0312 22.9922C17.0554 23.0496 17.9456 22.7912 18.6587 21.9919C19.1469 21.4463 19.6973 20.9485 20.2142 20.4268C20.98 19.6515 20.9848 18.7134 20.2238 17.9476C19.3144 17.0335 18.4003 16.1241 17.4861 15.2148Z" fill="#69CCDB"/><path d="M16.572 11.4005L18.3381 11.099C18.0605 9.47653 17.2947 8.0072 16.1317 6.8394C14.9017 5.60938 13.3462 4.83403 11.6328 4.59473L11.3839 6.37036C12.7096 6.55702 13.9157 7.15528 14.8682 8.10771C15.7679 9.0075 16.3566 10.1466 16.572 11.4005Z" fill="#69CCDB"/><path d="M19.3336 3.72357C17.2947 1.6847 14.715 0.397245 11.8673 0L11.6184 1.77564C14.0785 2.12023 16.3088 3.23539 18.07 4.99188C19.7404 6.66223 20.8364 8.77289 21.2336 11.0941L22.9997 10.7926C22.5355 8.10284 21.2672 5.66194 19.3336 3.72357Z" fill="#69CCDB"/>
    </symbol>
    <symbol id="scheme-marker" viewBox="0 0 57 57">
      <circle cx="28.5" cy="28.5" r="27" fill="#69CCDB" stroke="#fff" stroke-width="3"/><path d="M11.4264 23.3426L28.0405 33.686C28.1802 33.7742 28.3419 33.8184 28.5037 33.8184C28.6654 33.8184 28.8271 33.7742 28.9668 33.686L45.581 23.3426C45.8383 23.1809 46 22.9015 46 22.5928C46 22.2914 45.8456 22.0047 45.581 21.8429L28.9668 11.4995C28.6801 11.3231 28.3199 11.3231 28.0332 11.4995L11.419 21.8429C11.1617 22.0047 11 22.284 11 22.5928C11.0074 22.9015 11.1617 23.1809 11.4264 23.3426ZM28.5037 13.2859L43.4491 22.5928L28.5037 31.8996L13.5583 22.5928L28.5037 13.2859Z" fill="#fff"/><path d="M45.1178 27.6211C44.8825 27.6211 44.6546 27.7167 44.4929 27.8784C44.3312 28.0401 44.2356 28.268 44.2356 28.5033C44.2356 28.7385 44.3312 28.9664 44.4929 29.1281C44.6546 29.2899 44.8825 29.3854 45.1178 29.3854C45.353 29.3854 45.5809 29.2899 45.7426 29.1281C45.9044 28.9664 45.9999 28.7385 45.9999 28.5033C45.9999 28.268 45.9044 28.0401 45.7426 27.8784C45.5809 27.7167 45.353 27.6211 45.1178 27.6211Z" fill="#fff"/><path d="M41.8832 29.4811C41.4715 29.7384 41.3392 30.2824 41.6038 30.6941C41.7729 30.9588 42.0596 31.1131 42.3537 31.1131C42.5154 31.1131 42.6771 31.069 42.8168 30.9808C43.2285 30.7235 43.3535 30.1795 43.0962 29.7678C42.8389 29.3488 42.2949 29.2238 41.8832 29.4811Z" fill="#fff"/><path d="M33.5761 34.6493C33.1644 34.9066 33.0321 35.4506 33.2967 35.8623C33.4658 36.1343 33.7525 36.2813 34.0466 36.2813C34.2083 36.2813 34.37 36.2372 34.5097 36.149C34.9214 35.8917 35.0463 35.3477 34.789 34.936C34.5317 34.5243 33.9877 34.392 33.5761 34.6493Z" fill="#fff"/><path d="M30.8047 36.3766C30.3931 36.6339 30.2681 37.1779 30.5254 37.5896C30.6945 37.8616 30.9812 38.0086 31.2752 38.0086C31.437 38.0086 31.5987 37.9645 31.7384 37.8763C32.15 37.619 32.275 37.075 32.0177 36.6633C31.7604 36.2443 31.2238 36.1193 30.8047 36.3766Z" fill="#fff"/><path d="M36.3476 32.9284C35.9359 33.1857 35.8036 33.7297 36.0609 34.1414C36.23 34.4134 36.5167 34.5604 36.8108 34.5604C36.9725 34.5604 37.1342 34.5163 37.2739 34.4281C37.6856 34.1708 37.8106 33.6268 37.5533 33.2151C37.3033 32.7961 36.7593 32.6711 36.3476 32.9284Z" fill="#fff"/><path d="M39.1119 31.2087C38.7002 31.466 38.5752 32.01 38.8325 32.4216C39.0016 32.6863 39.2883 32.8407 39.5824 32.8407C39.7441 32.8407 39.9058 32.7966 40.0455 32.7083C40.4572 32.451 40.5821 31.907 40.3248 31.4954C40.0675 31.0763 39.5309 30.9514 39.1119 31.2087Z" fill="#fff"/><path d="M27.8789 38.2221C27.7172 38.3839 27.6216 38.6118 27.6216 38.847C27.6216 39.0823 27.7172 39.3101 27.8789 39.4719C28.0406 39.6336 28.2685 39.7292 28.5037 39.7292C28.739 39.7292 28.9669 39.6336 29.1286 39.4719C29.2903 39.3101 29.3859 39.0823 29.3859 38.847C29.3859 38.6118 29.2903 38.3839 29.1286 38.2221C28.9669 38.0604 28.739 37.9648 28.5037 37.9648C28.2685 37.9648 28.048 38.0604 27.8789 38.2221Z" fill="#fff"/><path d="M24.9824 36.6564C24.7251 37.068 24.8501 37.612 25.2618 37.8693C25.4088 37.9576 25.5705 38.0017 25.7249 38.0017C26.019 38.0017 26.3057 37.8546 26.4747 37.5826C26.732 37.171 26.6071 36.627 26.188 36.3697C25.7837 36.1197 25.2397 36.2447 24.9824 36.6564Z" fill="#fff"/><path d="M13.9111 29.7602C13.6538 30.1719 13.7788 30.7159 14.1905 30.9732C14.3375 31.0614 14.4992 31.1055 14.6536 31.1055C14.9477 31.1055 15.2344 30.9585 15.4035 30.6865C15.6608 30.2748 15.5358 29.7308 15.1241 29.4735C14.7124 29.2162 14.1684 29.3485 13.9111 29.7602Z" fill="#fff"/><path d="M22.2183 34.936C21.961 35.3477 22.0859 35.8917 22.4976 36.149C22.6446 36.2372 22.8064 36.2813 22.9607 36.2813C23.2548 36.2813 23.5415 36.1343 23.7106 35.8623C23.9679 35.4506 23.8429 34.9066 23.4312 34.6493C23.0196 34.392 22.4756 34.5243 22.2183 34.936Z" fill="#fff"/><path d="M19.4468 33.2081C19.1895 33.6198 19.3144 34.1638 19.7261 34.4211C19.8732 34.5093 20.0349 34.5534 20.1893 34.5534C20.4833 34.5534 20.77 34.4064 20.9391 34.1344C21.1964 33.7227 21.0714 33.1787 20.6524 32.9214C20.2481 32.6715 19.7041 32.7964 19.4468 33.2081Z" fill="#fff"/><path d="M16.6753 31.4884C16.418 31.9001 16.543 32.4441 16.9546 32.7014C17.1017 32.7896 17.2634 32.8337 17.4178 32.8337C17.7118 32.8337 17.9985 32.6867 18.1676 32.4147C18.4249 32.003 18.2999 31.459 17.8883 31.2017C17.4766 30.9517 16.9326 31.0767 16.6753 31.4884Z" fill="#fff"/><path d="M11.8895 29.3854C12.1247 29.3854 12.3526 29.2899 12.5144 29.1281C12.6761 28.9664 12.7717 28.7385 12.7717 28.5033C12.7717 28.268 12.6761 28.0401 12.5144 27.8784C12.3526 27.7167 12.1247 27.6211 11.8895 27.6211C11.6542 27.6211 11.4264 27.7167 11.2646 27.8784C11.1029 28.0401 11.0073 28.268 11.0073 28.5033C11.0073 28.7385 11.1029 28.9664 11.2646 29.1281C11.4337 29.2972 11.6542 29.3854 11.8895 29.3854Z" fill="#fff"/><path d="M44.6547 33.6641L28.5036 43.7208L12.3526 33.6641C11.9409 33.4068 11.3969 33.5317 11.1396 33.9434C10.8823 34.3551 11.0073 34.8991 11.419 35.1564L28.0331 45.4998C28.1728 45.588 28.3346 45.6321 28.4963 45.6321C28.658 45.6321 28.8197 45.588 28.9594 45.4998L45.5736 35.1564C45.9853 34.8991 46.1102 34.3551 45.8529 33.9434C45.6103 33.5317 45.0663 33.4068 44.6547 33.6641Z" fill="#fff"/>
    </symbol>
    <symbol id="select-panels" viewBox="0 0 47 47">
      <g clip-path="url(#clip0)" fill="#EF7E20"><path d="M37.3771 18.5368H37.3111C36.4097 18.5317 35.5388 18.863 34.8682 19.4656C34.3254 17.9635 32.9461 16.8837 31.3304 16.8837C30.3402 16.8906 29.3944 17.2972 28.7084 18.0117C28.0776 16.7347 26.8121 15.8684 25.3571 15.8684H25.2868C24.507 15.8564 23.7461 16.1101 23.1292 16.5872V7.48299C23.1292 5.28289 21.4163 3.49316 19.3328 3.49316C17.2516 3.49316 15.5476 5.28173 15.5464 7.48029L15.529 25.5436L14.5068 24.302C13.6104 23.186 12.2908 22.493 10.8632 22.3884C9.46495 22.2926 8.08946 22.7791 7.06256 23.7334L6.17311 24.4704C5.88627 24.7082 5.80443 25.1135 5.97622 25.444L14.6241 42.0669C16.2054 45.1047 19.2139 46.9999 22.4756 46.9999H32.2214V46.9914C37.1629 46.9914 41.1693 42.7035 41.1743 37.4385C41.1763 35.0829 41.1674 33.3271 41.1689 31.9041C41.1739 28.0969 41.1701 26.6921 41.1604 22.4976C41.1554 20.3026 39.4549 18.5368 37.3771 18.5368ZM39.5761 31.8987C39.5745 33.3221 39.5722 35.0848 39.5699 37.4405C39.5657 41.8349 36.2483 45.4182 32.1751 45.4182H22.476C19.8061 45.4182 17.335 43.8489 16.0274 41.3365L7.67368 25.2841L8.08598 24.9402C8.09641 24.9317 8.10644 24.9216 8.11648 24.9128C8.82565 24.2453 9.77997 23.9025 10.7517 23.9662C11.745 24.0422 12.6614 24.5279 13.2826 25.3065L15.7028 28.2513C15.9143 28.5096 16.2656 28.6065 16.5799 28.4942C16.8941 28.3818 17.1041 28.0838 17.1041 27.7502L17.1184 7.48106C17.1192 6.15382 18.1229 5.07404 19.3336 5.07404C20.5442 5.07404 21.5479 6.15498 21.5479 7.48299V19.7042C21.5479 19.7466 21.546 19.7895 21.546 19.8327C21.546 19.8513 21.5479 19.8702 21.5479 19.8883V25.1135C21.5479 25.5501 21.9019 25.9041 22.3386 25.9041C22.7752 25.9041 23.1292 25.5501 23.1292 25.1135V19.7308C23.1292 18.4503 24.1074 17.4496 25.2868 17.4496H25.3571C26.5685 17.4496 27.5765 18.5055 27.5765 19.8335V24.6147C27.5765 25.0514 27.9305 25.4054 28.3671 25.4054C28.8037 25.4054 29.1578 25.0514 29.1578 24.6147V20.8635C29.1578 19.5351 30.1175 18.4545 31.3355 18.4545C32.5465 18.4545 33.5062 19.5347 33.5062 20.8635V24.4024C33.5062 24.839 33.8602 25.193 34.2969 25.193C34.7335 25.193 35.0875 24.839 35.0875 24.4024V22.4861C35.0875 21.1577 36.0997 20.118 37.3111 20.118H37.3771C38.5855 20.118 39.5703 21.1754 39.5734 22.4996C39.583 26.6909 39.5811 28.0942 39.5761 31.8987Z"/><path d="M13.0351 7.82446C13.4718 7.82446 13.8258 7.47046 13.8258 7.03383C13.8385 4.01685 16.288 1.57817 19.3046 1.57817C22.3216 1.57817 24.7707 4.01685 24.7834 7.03383C24.7834 7.47046 25.1374 7.82446 25.574 7.82446C26.0107 7.82446 26.3647 7.47046 26.3647 7.03383C26.35 3.14476 23.1937 0 19.3046 0C15.4159 0 12.2592 3.14476 12.2445 7.03383C12.2445 7.47046 12.5985 7.82446 13.0351 7.82446Z"/></g>
    </symbol>
    <symbol id="slider-arrow" viewBox="0 0 30 30">
      <g clip-path="url(#clip0)"><path d="M29.8169 14.5581L20.4419 5.18312C20.1977 4.93896 19.8022 4.93896 19.5581 5.18312C19.314 5.42728 19.314 5.82279 19.5581 6.06689L27.8663 14.375H0.62502C0.279551 14.375 0 14.6546 0 15C0 15.3455 0.279551 15.6251 0.62502 15.6251H27.8663L19.5581 23.9331C19.314 24.1773 19.314 24.5728 19.5581 24.8169C19.6802 24.9389 19.8401 25 20 25C20.1599 25 20.3198 24.9389 20.442 24.8169L29.817 15.4419C30.0611 15.1978 30.0611 14.8023 29.8169 14.5581Z" fill="currentColor"/></g>
    </symbol>
    <symbol id="title-icon-3" viewBox="0 0 82 82">
      <path d="M0.99895 28.918L39.9235 53.1512C40.2508 53.3579 40.6297 53.4612 41.0086 53.4612C41.3875 53.4612 41.7664 53.3579 42.0937 53.1512L81.0183 28.918C81.6211 28.5391 82 27.8846 82 27.1613C82 26.4551 81.6383 25.7834 81.0183 25.4045L42.0937 1.17135C41.422 0.757988 40.578 0.757988 39.9063 1.17135L0.981726 25.4045C0.378912 25.7834 0 26.4379 0 27.1613C0.0172233 27.8846 0.378912 28.5391 0.99895 28.918ZM41.0086 5.3566L76.0235 27.1613L41.0086 48.9659L5.9937 27.1613L41.0086 5.3566Z" fill="#EF7E20"/><path d="M79.9332 38.9424C79.3821 38.9424 78.8482 39.1663 78.4693 39.5452C78.0904 39.9241 77.8665 40.458 77.8665 41.0092C77.8665 41.5603 78.0904 42.0942 78.4693 42.4731C78.8482 42.8521 79.3821 43.076 79.9332 43.076C80.4844 43.076 81.0183 42.8521 81.3972 42.4731C81.7761 42.0942 82 41.5603 82 41.0092C82 40.458 81.7761 39.9241 81.3972 39.5452C81.0183 39.1663 80.4844 38.9424 79.9332 38.9424Z" fill="#EF7E20"/><path d="M72.3549 43.299C71.3904 43.9018 71.0804 45.1763 71.7005 46.1409C72.0966 46.7609 72.7683 47.1226 73.4572 47.1226C73.8361 47.1226 74.2151 47.0192 74.5423 46.8126C75.5068 46.2097 75.7996 44.9352 75.1968 43.9707C74.594 42.989 73.3195 42.6962 72.3549 43.299Z" fill="#EF7E20"/><path d="M52.8928 55.4072C51.9283 56.01 51.6183 57.2845 52.2383 58.249C52.6344 58.8863 53.3061 59.2308 53.9951 59.2308C54.374 59.2308 54.7529 59.1274 55.0801 58.9208C56.0446 58.3179 56.3374 57.0434 55.7346 56.0789C55.1318 55.1144 53.8573 54.8044 52.8928 55.4072Z" fill="#EF7E20"/><path d="M46.3996 59.4543C45.435 60.0571 45.1423 61.3316 45.7451 62.2961C46.1412 62.9334 46.8129 63.2778 47.5018 63.2778C47.8808 63.2778 48.2597 63.1745 48.5869 62.9678C49.5514 62.365 49.8442 61.0905 49.2414 60.126C48.6386 59.1443 47.3813 58.8515 46.3996 59.4543Z" fill="#EF7E20"/><path d="M59.3858 51.3771C58.4213 51.98 58.1113 53.2545 58.7141 54.219C59.1102 54.8563 59.7819 55.2007 60.4709 55.2007C60.8498 55.2007 61.2287 55.0974 61.5559 54.8907C62.5204 54.2879 62.8132 53.0134 62.2104 52.0489C61.6248 51.0671 60.3503 50.7743 59.3858 51.3771Z" fill="#EF7E20"/><path d="M65.8617 47.3469C64.8972 47.9497 64.6044 49.2242 65.2072 50.1887C65.6034 50.8087 66.2751 51.1704 66.964 51.1704C67.3429 51.1704 67.7218 51.0671 68.0491 50.8604C69.0136 50.2576 69.3064 48.9831 68.7036 48.0186C68.1007 47.0368 66.8434 46.744 65.8617 47.3469Z" fill="#EF7E20"/><path d="M39.5447 63.7776C39.1658 64.1565 38.9419 64.6905 38.9419 65.2416C38.9419 65.7927 39.1658 66.3267 39.5447 66.7056C39.9236 67.0845 40.4575 67.3084 41.0087 67.3084C41.5598 67.3084 42.0938 67.0845 42.4727 66.7056C42.8516 66.3267 43.0755 65.7927 43.0755 65.2416C43.0755 64.6905 42.8516 64.1565 42.4727 63.7776C42.0938 63.3987 41.5598 63.1748 41.0087 63.1748C40.4575 63.1748 39.9408 63.3987 39.5447 63.7776Z" fill="#EF7E20"/><path d="M32.7587 60.1094C32.1559 61.0739 32.4487 62.3484 33.4132 62.9512C33.7577 63.1579 34.1366 63.2612 34.4983 63.2612C35.1872 63.2612 35.8589 62.9168 36.2551 62.2795C36.8579 61.315 36.5651 60.0405 35.5834 59.4377C34.6361 58.8521 33.3616 59.1449 32.7587 60.1094Z" fill="#EF7E20"/><path d="M6.82051 43.9539C6.21769 44.9184 6.51049 46.1929 7.47499 46.7958C7.81946 47.0024 8.19837 47.1058 8.56006 47.1058C9.24899 47.1058 9.9207 46.7613 10.3168 46.124C10.9196 45.1595 10.6268 43.885 9.66235 43.2822C8.69784 42.6794 7.42332 42.9894 6.82051 43.9539Z" fill="#EF7E20"/><path d="M26.2827 56.0789C25.6799 57.0434 25.9726 58.3179 26.9371 58.9208C27.2816 59.1274 27.6605 59.2308 28.0222 59.2308C28.7111 59.2308 29.3829 58.8863 29.779 58.249C30.3818 57.2845 30.089 56.01 29.1245 55.4072C28.16 54.8044 26.8855 55.1144 26.2827 56.0789Z" fill="#EF7E20"/><path d="M19.7895 52.0312C19.1867 52.9957 19.4795 54.2703 20.444 54.8731C20.7885 55.0798 21.1674 55.1831 21.5291 55.1831C22.218 55.1831 22.8897 54.8386 23.2858 54.2014C23.8886 53.2369 23.5958 51.9623 22.6141 51.3595C21.6668 50.7739 20.3923 51.0667 19.7895 52.0312Z" fill="#EF7E20"/><path d="M13.2963 48.001C12.6935 48.9655 12.9863 50.24 13.9508 50.8428C14.2953 51.0495 14.6742 51.1528 15.0359 51.1528C15.7248 51.1528 16.3965 50.8084 16.7927 50.1711C17.3955 49.2066 17.1027 47.9321 16.1382 47.3293C15.1737 46.7437 13.8992 47.0365 13.2963 48.001Z" fill="#EF7E20"/><path d="M2.08413 43.076C2.63527 43.076 3.16919 42.8521 3.5481 42.4731C3.92702 42.0942 4.15092 41.5603 4.15092 41.0092C4.15092 40.458 3.92702 39.9241 3.5481 39.5452C3.16919 39.1663 2.63527 38.9424 2.08413 38.9424C1.53298 38.9424 0.99906 39.1663 0.620148 39.5452C0.241236 39.9241 0.017334 40.458 0.017334 41.0092C0.017334 41.5603 0.241236 42.0942 0.620148 42.4731C1.01628 42.8693 1.53298 43.076 2.08413 43.076Z" fill="#EF7E20"/><path d="M78.8482 53.0996L41.0087 76.661L3.16918 53.0996C2.20468 52.4967 0.930159 52.7895 0.327344 53.754C-0.27547 54.7186 0.0173255 55.9931 0.981829 56.5959L39.9064 80.829C40.2337 81.0357 40.6126 81.139 40.9915 81.139C41.3704 81.139 41.7493 81.0357 42.0766 80.829L81.0012 56.5959C81.9657 55.9931 82.2585 54.7186 81.6556 53.754C81.0873 52.7895 79.8128 52.4967 78.8482 53.0996Z" fill="#EF7E20"/>
    </symbol>
    <symbol id="to-bottom-icon" viewBox="0 0 52 27">
      <path d="M1 1L26 26L51 1" stroke="#5C5D5E"/>
    </symbol>
    <symbol id="wall-panels-icon" viewBox="0 0 48 48">
      <g clip-path="url(#clip0)" fill="#EF7E20"><path d="M1.59998 31.1999H17.6001C18.4834 31.1988 19.199 30.4833 19.2001 29.6V18.3998C19.199 17.5165 18.4834 16.8009 17.6001 16.7998H1.59998C0.716675 16.8009 0.00109864 17.5165 0 18.3998V29.6C0.00109864 30.4833 0.716675 31.1988 1.59998 31.1999ZM1.59998 18.3998H17.6001L17.6008 29.6H1.59998V18.3998Z"/><path d="M1.59998 47.9998H7.99988C8.88318 47.9987 9.59912 47.2831 9.59985 46.3998V35.1996C9.59912 34.3167 8.88318 33.6007 7.99988 33.5996H1.59998C0.716675 33.6007 0.00109864 34.3167 0 35.1996V46.3998C0.00109864 47.2831 0.716675 47.9987 1.59998 47.9998ZM1.59998 35.1996H7.99988L8.00098 46.3998H1.59998V35.1996Z"/><path d="M46.4 0H1.59998C0.716675 0.00109864 0.00109864 0.716675 0 1.59998V12.8002C0.00109864 13.6831 0.716675 14.399 1.59998 14.4001H23.6279C24.0791 15.167 24.4662 15.9697 24.7859 16.7999H23.1998C22.3169 16.801 21.601 17.5166 21.5999 18.3999V29.6001C21.601 30.4834 22.3169 31.199 23.1998 31.2001H24.7397C24.7288 31.5615 24.7075 31.9248 24.7115 32.2819C24.717 32.7052 24.7375 33.1487 24.765 33.5999H13.6C12.7167 33.601 12.0011 34.3169 12 35.1998V46.4C12.0011 47.2833 12.7167 47.9989 13.6 48H46.4C47.2833 47.9989 47.9989 47.2833 48 46.4V1.59998C47.9989 0.716675 47.2833 0.00109864 46.4 0V0ZM1.59998 1.59998H14.9941C14.9429 2.72095 14.9791 3.84412 15.1033 4.95923C15.546 7.2561 17.339 8.41589 18.921 9.43945L19.1781 9.60571C20.4833 10.4674 21.6295 11.5481 22.5667 12.8002H1.59998V1.59998ZM23.1998 18.3999H25.299C25.6644 19.7347 25.8625 21.1099 25.8882 22.4934C25.8651 23.7294 25.6948 24.958 25.3813 26.1537C25.2623 26.6931 25.1429 27.2369 25.0444 27.7972C24.9404 28.3832 24.8723 28.9896 24.821 29.6001H23.1998V18.3999ZM13.6 35.1998H24.9243C25.3506 39.278 26.9052 43.1565 29.4137 46.4H13.6V35.1998ZM46.4 46.4H31.5359C28.5304 43.0605 26.7294 38.8103 26.421 34.3279C26.3562 33.6105 26.3196 32.915 26.3119 32.2614C26.3038 31.6644 26.3203 31.0551 26.3599 30.4384C26.3969 29.6459 26.484 28.8567 26.6199 28.0752C26.7155 27.5372 26.8301 27.015 26.9443 26.4972C27.286 25.1807 27.4688 23.8282 27.4889 22.4681C27.46 20.7356 27.186 19.0159 26.6752 17.3599C26.2196 15.8914 25.5795 14.4869 24.7694 13.1799C23.58 11.2126 21.9686 9.53394 20.0515 8.26501L19.7897 8.09546C18.2867 7.1228 16.9874 6.28308 16.6772 4.67834C16.5831 3.65515 16.5527 2.62683 16.5861 1.59998H46.4V46.4Z"/><path d="M18.2812 4.50326C18.5211 5.33455 19.3407 5.89925 20.6587 6.75106L20.9289 6.92647C23.0387 8.31954 24.8129 10.1641 26.1225 12.327C27.0091 13.757 27.7097 15.294 28.2081 16.9013C28.3407 17.3228 28.7896 17.5568 29.2111 17.4246C29.6327 17.2921 29.867 16.8427 29.7345 16.4212C29.1961 14.6861 28.4392 13.0264 27.4823 11.4821C26.0489 9.12008 24.1087 7.10628 21.802 5.58577L21.528 5.40816C20.9044 5.05953 20.3353 4.62154 19.8387 4.10811L19.8263 3.94661C19.797 3.50533 19.4157 3.17171 18.9748 3.20101C18.5339 3.23067 18.2003 3.6119 18.2296 4.05282C18.2376 4.16744 18.2453 4.27144 18.2534 4.35897C18.2585 4.40767 18.2677 4.45601 18.2812 4.50326Z"/><path d="M29.0874 22.4399C29.069 23.9418 28.8706 25.4359 28.4959 26.8905C28.3897 27.3713 28.2835 27.8551 28.196 28.3524C28.0693 29.0801 27.9891 29.8147 27.9554 30.5526C27.9195 31.1147 27.9045 31.6838 27.9114 32.2423C27.9188 32.8546 27.9532 33.5028 28.014 34.1741C28.278 37.9398 29.6649 41.5397 31.9951 44.5096C32.1741 44.7396 32.4642 44.8539 32.752 44.8085C33.0399 44.7627 33.2801 44.5642 33.379 44.2903C33.4782 44.016 33.4204 43.7098 33.2281 43.4908C31.1165 40.7611 29.8568 37.4689 29.607 34.0269C29.551 33.4006 29.5191 32.7938 29.5118 32.2225C29.5045 31.704 29.5184 31.1777 29.5532 30.6427C29.5832 29.9681 29.6561 29.2965 29.7711 28.6311C29.8553 28.1569 29.9578 27.694 30.0695 27.1846C30.468 25.6252 30.6752 24.0231 30.6873 22.4136C30.6804 21.9771 30.324 21.6266 29.8875 21.627H29.8743C29.6619 21.6302 29.4598 21.7178 29.3126 21.8705C29.165 22.0228 29.0841 22.2279 29.0874 22.4399Z"/></g>
    </symbol></svg>