<svg width="206" height="167" viewBox="0 0 206 167" fill="none" xmlns="http://www.w3.org/2000/svg"><path d="M172.965 0L0 99.9127L6.69182 103.537L178.542 3.25297L172.965 0Z" fill="url(#paint0_linear)"/><path d="M6.69141 147.5V120.733V103.538L178.541 3.25391V48.2379L6.69141 147.5Z" fill="url(#paint1_linear)"/><path d="M26.6739 158.094L6.69141 147.498L178.541 46.749L198.431 57.995L26.6739 158.094Z" fill="url(#paint2_linear)"/><path d="M26.6738 166.087L198.431 65.4307V57.9023L26.6738 158.001V166.087Z" fill="url(#paint3_linear)"/><path d="M33.4609 145.176L205.218 44.6123V37.084L33.4609 137.09V145.176Z" fill="url(#paint4_linear)"/><path d="M33.4591 146.384V138.484L6.69183 125.193V103.538L0 99.9131V150.845L26.6744 166.088V158.095L6.69183 147.499V132.257L33.4591 146.384Z" fill="url(#paint5_linear)"/><path d="M6.69141 125.099L33.4587 138.483L205.216 37.0833L178.541 24.5361L6.69141 125.099Z" fill="url(#paint6_linear)"/><defs><linearGradient id="paint0_linear" x1=".008" y1="51.8" x2="178.545" y2="51.8" gradientUnits="userSpaceOnUse"><stop stop-color="#999"/><stop offset=".533" stop-color="#E6E6E6"/><stop offset="1" stop-color="#808081"/></linearGradient><linearGradient id="paint1_linear" x1="6.661" y1="75.354" x2="178.545" y2="75.354" gradientUnits="userSpaceOnUse"><stop stop-color="#808081"/><stop offset=".533" stop-color="#B3B3B3"/><stop offset="1" stop-color="#676766"/></linearGradient><linearGradient id="paint2_linear" x1="6.661" y1="102.415" x2="198.411" y2="102.415" gradientUnits="userSpaceOnUse"><stop stop-color="#6E6F6E"/><stop offset=".533" stop-color="#929292"/><stop offset="1" stop-color="#808081"/></linearGradient><linearGradient id="paint3_linear" x1="26.715" y1="111.991" x2="198.41" y2="111.991" gradientUnits="userSpaceOnUse"><stop stop-color="#808081"/><stop offset=".533" stop-color="#B3B3B3"/><stop offset="1" stop-color="#676766"/></linearGradient><linearGradient id="paint4_linear" x1="33.483" y1="91.124" x2="205.178" y2="91.124" gradientUnits="userSpaceOnUse"><stop stop-color="#808081"/><stop offset=".533" stop-color="#B3B3B3"/><stop offset="1" stop-color="#676766"/></linearGradient><linearGradient id="paint5_linear" x1=".008" y1="132.984" x2="33.481" y2="132.984" gradientUnits="userSpaceOnUse"><stop stop-color="#999"/><stop offset=".533" stop-color="#E6E6E6"/><stop offset="1" stop-color="#B3B3B3"/></linearGradient><linearGradient id="paint6_linear" x1="6.661" y1="81.534" x2="205.176" y2="81.534" gradientUnits="userSpaceOnUse"><stop stop-color="#999"/><stop offset=".533" stop-color="#E6E6E6"/><stop offset="1" stop-color="#808081"/></linearGradient></defs></svg>