<svg width="286" height="169" viewBox="0 0 286 169" fill="none" xmlns="http://www.w3.org/2000/svg"><path d="M60.9046 110.798L219.565 19.3961L187.661 0.425781L29 92.6904L60.9046 110.798Z" fill="url(#paint0_linear)"/><path d="M60.9043 147.876L219.565 55.6115V19.3955L60.9043 110.798V147.876Z" fill="url(#paint1_linear)"/><path d="M92.8089 165.985L251.469 74.5826L219.565 55.6123L60.9043 147.877L92.8089 165.985Z" fill="url(#paint2_linear)"/><path d="M96.8613 168.744V131.666L255.522 40.2637V75.1862L96.8613 168.744Z" fill="url(#paint3_linear)"/><path d="M124.715 147.876L92.8105 128.906L251.471 37.5039L283.376 56.4742L124.715 147.876Z" fill="url(#paint4_linear)"/><path d="M124.713 152.619L283.373 60.2687V56.4746L124.713 147.877V152.619Z" fill="url(#paint5_linear)"/><path d="M92.8092 128.907V160.64L60.9046 142.618V110.799L29 92.6914V97.0028L57.4554 113.386V145.808L60.9046 147.878L88.9289 163.83L97.2931 168.573L97.5517 136.927L124.714 152.62V147.878L92.8092 128.907Z" fill="url(#paint6_linear)"/><defs><linearGradient id="paint0_linear" x1="29" y1="55.612" x2="219.565" y2="55.612" gradientUnits="userSpaceOnUse"><stop stop-color="#999"/><stop offset=".533" stop-color="#E6E6E6"/><stop offset="1" stop-color="#808081"/></linearGradient><linearGradient id="paint1_linear" x1="60.904" y1="83.636" x2="219.565" y2="83.636" gradientUnits="userSpaceOnUse"><stop stop-color="#808081"/><stop offset=".533" stop-color="#B3B3B3"/><stop offset="1" stop-color="#676766"/></linearGradient><linearGradient id="paint2_linear" x1="60.904" y1="110.799" x2="251.469" y2="110.799" gradientUnits="userSpaceOnUse"><stop stop-color="#999"/><stop offset=".533" stop-color="#CDCCCC"/><stop offset="1" stop-color="#808081"/></linearGradient><linearGradient id="paint3_linear" x1="96.901" y1="104.537" x2="255.562" y2="104.537" gradientUnits="userSpaceOnUse"><stop stop-color="#808081"/><stop offset=".533" stop-color="#B3B3B3"/><stop offset="1" stop-color="#676766"/></linearGradient><linearGradient id="paint4_linear" x1="92.811" y1="92.69" x2="283.376" y2="92.69" gradientUnits="userSpaceOnUse"><stop stop-color="#999"/><stop offset=".533" stop-color="#E6E6E6"/><stop offset="1" stop-color="#808081"/></linearGradient><linearGradient id="paint5_linear" x1="124.713" y1="104.537" x2="283.373" y2="104.537" gradientUnits="userSpaceOnUse"><stop stop-color="#808081"/><stop offset=".533" stop-color="#B3B3B3"/><stop offset="1" stop-color="#676766"/></linearGradient><linearGradient id="paint6_linear" x1="29" y1="130.614" x2="124.714" y2="130.614" gradientUnits="userSpaceOnUse"><stop stop-color="#999"/><stop offset=".533" stop-color="#E6E6E6"/><stop offset="1" stop-color="#B3B3B3"/></linearGradient></defs></svg>