<svg width="25" height="25" viewBox="0 0 25 25" fill="none" xmlns="http://www.w3.org/2000/svg"><path d="M12.5007 0C7.40839 0 3.26562 4.14276 3.26562 9.23512C3.26562 10.9116 4.01747 12.7146 4.04898 12.7906C4.29181 13.367 4.77095 14.2623 5.11645 14.787L11.4485 24.3812C11.7076 24.7746 12.0911 25 12.5007 25C12.9103 25 13.2939 24.7746 13.553 24.3818L19.8856 14.787C20.2316 14.2623 20.7102 13.367 20.953 12.7906C20.9845 12.7151 21.7359 10.9121 21.7359 9.23512C21.7359 4.14276 17.5931 0 12.5007 0ZM19.9513 12.3691C19.7346 12.8857 19.2885 13.7185 18.9784 14.1889L12.6458 23.7837C12.5208 23.9733 12.4812 23.9733 12.3562 23.7837L6.02366 14.1889C5.71347 13.7185 5.26747 12.8852 5.05072 12.3685C5.04148 12.3463 4.35211 10.6867 4.35211 9.23512C4.35211 4.74196 8.00758 1.08648 12.5007 1.08648C16.9939 1.08648 20.6494 4.74196 20.6494 9.23512C20.6494 10.6888 19.9584 12.3528 19.9513 12.3691Z" fill="#69CCDB"/><path d="M12.5005 4.34668C9.8044 4.34668 7.61133 6.54029 7.61133 9.23586C7.61133 11.9314 9.8044 14.125 12.5005 14.125C15.1966 14.125 17.3897 11.9314 17.3897 9.23586C17.3897 6.54029 15.1966 4.34668 12.5005 4.34668ZM12.5005 13.0386C10.4041 13.0386 8.69781 11.3328 8.69781 9.23586C8.69781 7.13894 10.4041 5.43316 12.5005 5.43316C14.5969 5.43316 16.3032 7.13894 16.3032 9.23586C16.3032 11.3328 14.5969 13.0386 12.5005 13.0386Z" fill="#69CCDB"/></svg>