<svg width="118" height="118" viewBox="0 0 118 118" fill="none" xmlns="http://www.w3.org/2000/svg"><path d="M90.7351 47.2298C84.9245 41.1212 77.177 36.8005 68.5356 35.0126V29.649C68.5356 28.4571 68.0886 27.2651 67.1947 26.5202C66.3008 25.7752 65.2578 25.1793 64.0659 25.1793H61.6821L61.5331 2.23485C61.5331 0.893939 60.4902 0 59.2982 0C57.9573 0 57.0634 1.04293 57.0634 2.23485L57.2124 25.1793H54.8285C53.6366 25.1793 52.4447 25.6263 51.6997 26.5202C50.9548 27.4141 50.3588 28.4571 50.3588 29.649V34.8636C41.2705 36.8005 33.374 41.1212 27.2654 47.2298C19.071 55.4242 14.1543 66.5985 14.1543 79.1136C14.1543 80.4545 15.1972 81.3485 16.3891 81.3485H40.2275C40.8235 85.6692 42.6114 89.5429 45.5912 92.5227C49.0179 95.9495 53.7856 98.0354 59.0003 98.0354C64.2149 98.0354 68.9826 95.9495 72.4093 92.5227C75.3891 89.5429 77.177 85.6692 77.773 81.3485H101.611C102.952 81.3485 103.846 80.3055 103.846 79.1136C103.846 66.7475 98.7806 55.4242 90.7351 47.2298ZM54.6796 29.798H63.9169V34.2677C63.7679 34.2677 63.7679 34.2677 63.6189 34.2677C63.321 34.2677 63.172 34.2677 62.874 34.2677C61.6821 34.1187 60.3412 34.1187 59.1492 34.1187C57.9573 33.9697 56.7654 34.1187 55.5735 34.1187C55.2755 34.1187 54.9775 34.1187 54.6796 34.2677V29.798ZM69.2806 89.2449C66.5987 91.9268 63.023 93.4167 59.1492 93.4167C55.1265 93.4167 51.5508 91.7778 49.0179 89.2449C46.9321 87.1591 45.4422 84.4773 44.9952 81.3485H59.1492H73.4523C72.8563 84.3283 71.5154 87.1591 69.2806 89.2449ZM75.8361 76.7298H59.1492H42.4624H18.773C19.3689 66.4495 23.6897 57.2121 30.5432 50.5076C36.8008 44.25 44.9952 40.0783 54.2326 39.0354C54.5306 39.0354 54.9775 38.8864 55.2755 38.8864C56.4674 38.7374 57.8083 38.7374 59.0003 38.7374C60.3412 38.7374 61.5331 38.7374 62.874 38.8864C63.172 38.8864 63.6189 39.0354 63.9169 39.0354C73.1543 40.0783 81.3487 44.25 87.6063 50.5076C94.4598 57.3611 98.7805 66.4495 99.3765 76.7298H75.8361Z" fill="#EF7E20"/><path d="M101 79.5H16.5V73.5L21 59L32 46L45.5 38.5L58.5 36.5L75 39.5L85.5 46L98.5 62.5L101 73.5V79.5Z" fill="#EF7E20" fill-opacity=".29"/><path d="M59.1489 101.164C57.808 101.164 56.9141 102.207 56.9141 103.399V115.765C56.9141 117.106 57.957 118 59.1489 118C60.4898 118 61.3838 116.957 61.3838 115.765V103.399C61.3838 102.058 60.4898 101.164 59.1489 101.164Z" fill="#EF7E20"/><path d="M79.5609 109.657L73.3033 98.9294C72.7074 97.8865 71.2175 97.4395 70.1745 98.0355C69.1316 98.6314 68.6846 100.121 69.2806 101.164L75.5382 111.892C76.1341 112.934 77.624 113.381 78.667 112.785C79.7099 112.19 80.1569 110.7 79.5609 109.657Z" fill="#EF7E20"/><path d="M92.0749 95.5028L81.3477 89.2452C80.3047 88.6493 78.8148 88.9473 78.2189 90.1392C77.6229 91.1821 77.9209 92.672 79.1128 93.268L89.8401 99.5255C90.883 100.121 92.3729 99.8235 92.9689 98.6316C93.5648 97.5887 93.2669 96.0988 92.0749 95.5028Z" fill="#EF7E20"/><path d="M40.0775 90.1394C39.4815 89.0965 37.9916 88.6495 36.9487 89.2454L26.2214 95.503C25.1785 96.099 24.7315 97.5889 25.3275 98.6318C25.9234 99.6747 27.4133 100.122 28.4563 99.5258L39.1835 93.2682C40.2265 92.5232 40.6735 91.1823 40.0775 90.1394Z" fill="#EF7E20"/><path d="M48.1238 98.0355C47.0809 97.4395 45.591 97.8865 44.995 98.9294L38.7374 109.657C38.1415 110.7 38.4395 112.19 39.6314 112.786C40.6743 113.381 42.1642 113.083 42.7602 111.892L49.0177 101.164C49.6137 100.121 49.3157 98.6314 48.1238 98.0355Z" fill="#EF7E20"/></svg>