<svg width="101" height="101" viewBox="0 0 101 101" fill="none" xmlns="http://www.w3.org/2000/svg"><path d="M96.3937 14.1429C95.0258 9.84082 93.1718 6.76047 93.0932 6.63102C92.7892 6.12996 92.1633 5.86931 91.5964 5.99934C91.4496 6.03286 87.9485 6.85005 83.9099 8.86702C78.4578 11.5891 74.6492 15.2231 72.8946 19.3743C71.4342 22.8315 71.2244 27.0578 72.2607 31.7269C70.0536 29.2621 67.5708 27.1058 64.8643 25.2905C64.0379 23.6579 61.8528 19.6384 58.4366 15.4375C57.3114 14.0545 55.1471 15.79 56.2839 17.1869C58.5857 20.0181 60.3184 22.8026 61.402 24.7155L48.7668 22.2524L36.7621 5.87798C37.9277 5.89416 39.0975 6.00686 40.2614 6.23514C43.9515 6.95755 47.5965 8.83696 51.097 11.8202C52.4684 12.9894 54.2496 10.8614 52.8961 9.70848C49.0291 6.41314 44.9576 4.32798 40.7943 3.51252C34.4388 2.26883 27.0263 3.90147 19.3561 8.23592C13.6392 11.4665 9.81623 15.015 9.65672 15.1641C9.14525 15.6421 9.06376 16.5101 9.49201 17.0684C10.0526 18.2185 12.1771 22.3674 15.7134 26.8342C17.798 29.4678 19.9964 31.7217 22.2706 33.574C21.6244 34.1155 20.9956 34.6819 20.3871 35.2777C17.1368 38.4569 14.6483 42.207 13.0145 46.3069C11.5702 49.9293 10.7935 53.8263 10.7502 57.8429C10.6785 64.411 12.5816 70.7457 16.2549 76.1631C19.8433 81.4546 24.8597 85.5175 30.7615 87.9118C32.4132 88.5805 33.4575 86.0116 31.8046 85.3412C29.6663 84.4737 27.6574 83.3624 25.8046 82.0406C26.0415 80.7264 26.5911 75.9967 23.4495 71.1005C23.0097 70.4156 24.3245 67.726 25.1093 66.1193C25.9196 64.4636 26.7558 62.7518 27.1465 61.1399C27.5615 59.4275 27.0945 57.9902 25.7971 56.9817C24.8446 56.2414 23.598 55.8583 22.4994 55.5202C21.7857 55.3006 20.9766 55.052 20.6876 54.8111C20.0923 54.3123 19.1203 52.4693 18.3389 50.9892C17.472 49.3473 16.6467 47.7846 15.8041 46.8224C17.7003 42.3192 20.746 38.3344 24.5603 35.2858C28.0446 37.6593 32.0213 39.2972 36.2483 39.6289C31.3463 43.427 29.7605 48.2776 32.0271 52.9368C34.674 58.3774 40.1221 57.5082 44.9288 56.7425C45.7604 56.6096 46.6209 56.4726 47.445 56.3697C47.7542 56.331 47.8473 56.4154 47.9097 56.4703C48.9621 57.4065 48.9309 61.8779 48.9084 65.1432C48.8777 69.6597 48.8488 73.926 50.5312 76.1163C51.3894 77.2329 52.5978 77.8039 54.0143 77.8039C54.8633 77.8039 55.7857 77.5993 56.7531 77.1843C60.9367 75.3928 65.2856 70.0007 64.6222 65.7344C64.0425 62.0045 63.6588 59.5402 64.5632 57.5539C65.3995 55.7155 67.4211 54.0135 71.4024 51.8417C71.8792 53.9887 72.1196 56.2223 72.0948 58.5138C72.0098 66.3355 68.8832 73.6561 63.2918 79.1262C57.0427 85.2395 48.2599 88.2586 39.5719 87.3009C37.8018 87.1091 37.496 89.8635 39.2685 90.0588C48.7783 91.106 58.3933 87.8003 65.2313 81.1096C71.3533 75.1206 74.7758 67.107 74.8688 58.5433C74.9925 47.1888 69.1664 37.1294 60.2976 31.3345C62.1302 30.0278 63.4952 28.898 64.2523 28.242C67.4858 30.5618 70.3541 33.4197 72.7403 36.7491C78.4687 44.7436 80.7406 54.4891 79.1386 64.1925C75.8299 84.2229 56.8433 97.829 36.8095 94.5192C27.1055 92.9166 18.6071 87.6321 12.8787 79.6376C7.14967 71.6437 4.87784 61.897 6.48043 52.1942C6.76824 50.4483 4.03291 49.99 3.74395 51.7423C2.01999 62.1767 4.46404 72.6574 10.623 81.2541C16.7831 89.8496 25.923 95.5329 36.3575 97.2569C38.5398 97.6169 40.7243 97.7949 42.8939 97.7949C51.0947 97.7949 59.0724 95.2486 65.8705 90.3772C74.4683 84.2171 80.1522 75.0789 81.875 64.6445C83.1378 56.9985 82.1605 49.3277 79.1253 42.3914C80.5262 41.9782 82.9101 41.176 85.5212 39.8722C90.9722 37.1502 94.7813 33.5162 96.5353 29.3649C98.2911 25.2125 98.2419 19.9488 96.3937 14.1429ZM15.885 52.2838C16.9172 54.2406 17.8933 56.09 18.9076 56.9384C19.626 57.5389 20.6258 57.8463 21.684 58.1717C24.395 59.0051 24.71 59.4142 24.4499 60.4863C24.1309 61.8045 23.3611 63.3788 22.6173 64.9005C21.1846 67.8317 19.8317 70.5989 21.1141 72.5985C22.9329 75.4326 23.2444 78.2229 23.2132 79.9584C14.9511 72.5083 11.587 60.7412 14.6645 50.046C15.0725 50.7453 15.5013 51.5579 15.885 52.2838ZM82.9968 25.0247L79.0548 15.4716C80.9729 13.6777 83.1985 12.3276 85.0941 11.377C86.7088 10.5667 88.245 9.96103 89.4771 9.53163L82.9968 25.0247ZM92.0344 10.6072C92.5852 11.7907 93.2238 13.3171 93.7694 15.0422C94.3675 16.9355 94.9165 19.2818 95.0258 21.7294L85.7876 25.5408L92.0344 10.6072ZM75.4497 20.4545C75.8588 19.487 76.3876 18.5901 76.9985 17.7619L81.4861 28.6356L77.4591 38.265C76.8933 37.0646 76.227 35.4881 75.6618 33.6971C74.5273 30.111 73.5702 24.9016 75.4497 20.4545ZM84.3364 37.3623C82.7824 38.1425 81.2994 38.7331 80.0916 39.1591L84.2706 29.1684L94.9079 24.7791C94.7536 25.9708 94.4594 27.152 93.9803 28.2848C92.1015 32.7319 87.6988 35.6765 84.3364 37.3623ZM34.3186 36.5728C33.8285 36.4769 33.3448 36.3596 32.868 36.2261L48.22 24.9727L60.861 27.4364C56.2561 31.0646 45.0495 38.6753 34.3186 36.5728ZM20.2883 27.8941C17.0051 24.3555 14.5986 20.5718 13.2167 18.1491L29.3033 21.2855L20.2883 27.8941ZM23.1294 9.38715L29.8599 18.5675L13.6693 15.4115C15.7076 13.8019 19.0723 11.3856 23.1294 9.38715ZM33.873 19.35L25.7133 8.21974C28.1562 7.21588 30.7782 6.42585 33.4662 6.07447L44.7542 21.4704L33.873 19.35ZM33.0096 22.0079L44.5144 24.2503L29.7489 35.0731C26.9645 33.7872 24.4586 31.9384 22.2659 29.8833L33.0096 22.0079ZM70.6488 49.0954C65.648 51.7596 63.1993 53.8523 62.0377 56.405C60.79 59.1461 61.2471 62.0883 61.8799 66.1604C62.2538 68.5617 59.4 73.0331 55.6609 74.6345C54.2773 75.2269 53.2919 75.157 52.7308 74.4259C51.6287 72.9915 51.6587 68.6501 51.6824 65.1623C51.7153 60.3366 51.7442 56.1692 49.7533 54.3978C49.0372 53.761 48.1212 53.4916 47.1035 53.6165C46.2314 53.7251 45.3466 53.8661 44.4918 54.0025C39.3928 54.8151 36.1841 55.1405 34.522 51.7232C31.8289 46.1884 37.2805 42.0886 39.7494 40.5831C40.2522 40.2768 40.7186 39.9156 41.152 39.5133C47.1191 38.8002 52.7574 36.2399 57.7818 33.033C63.8062 36.6324 68.4307 42.3284 70.6488 49.0954Z" fill="#EF7E20"/><path d="M18.5 54L14.5 47.5L12 54.5V63L15 70.5L18.5 77.5L24.5 82.5V80.5L23.5 75.5L22 70.5L23.5 66L26 59L21 56.5L18.5 54Z" fill="#EF7E20" fill-opacity=".29"/><path d="M67 39.5L72.5 50L65.5 54L62.5 59L63.5 67.5L60 73.5L53.5 76.5L51 73.5L50 66V59L49 55.5L45 54.5L40.5 56.5L33.5 54V45L38.5 38.5L43.5 37.5L57.5 32L60 33L67 39.5Z" fill="#EF7E20" fill-opacity=".29"/><path d="M89.5 36L77.5 41.5L74 33L72.5 25L75 18L79.5 12.5L85 9.5L92 8L96 18L97 25L94 31.5L89.5 36Z" fill="#EF7E20" fill-opacity=".29"/></svg>