<svg width="97" height="97" viewBox="0 0 97 97" fill="none" xmlns="http://www.w3.org/2000/svg"><g clip-path="url(#clip0)" fill="#EF7E20"><path d="M90.9375 97H6.0625C2.72004 97 0 94.28 0 90.9375V6.0625C0 2.72004 2.72004 0 6.0625 0H90.9375C94.28 0 97 2.72004 97 6.0625V90.9375C97 94.28 94.28 97 90.9375 97ZM6.0625 4.04167C4.95104 4.04167 4.04167 4.947 4.04167 6.0625V90.9375C4.04167 92.053 4.95104 92.9583 6.0625 92.9583H90.9375C92.049 92.9583 92.9583 92.053 92.9583 90.9375V6.0625C92.9583 4.947 92.049 4.04167 90.9375 4.04167H6.0625Z"/><path d="M2.79785 32.6441V3.73062L7.46131 1.86523H32.644V32.6441H2.79785Z" fill-opacity=".29"/><path d="M64.3555 48.4998H32.644V95.1345H64.3555H91.4036L95.1344 90.471V25.1825V5.596L91.4036 1.86523H64.3555V48.4998Z" fill-opacity=".29"/><path d="M64.6667 50.5211H32.3333C31.2178 50.5211 30.3125 49.6158 30.3125 48.5003C30.3125 47.3848 31.2178 46.4795 32.3333 46.4795H64.6667C65.7822 46.4795 66.6875 47.3848 66.6875 48.5003C66.6875 49.6158 65.7822 50.5211 64.6667 50.5211Z"/><path d="M32.3333 97C31.2178 97 30.3125 96.0947 30.3125 94.9792V2.02083C30.3125 0.905333 31.2178 0 32.3333 0C33.4488 0 34.3542 0.905333 34.3542 2.02083V94.9792C34.3542 96.0947 33.4488 97 32.3333 97Z"/><path d="M64.6663 97C63.5508 97 62.6455 96.0947 62.6455 94.9792V2.02083C62.6455 0.905333 63.5508 0 64.6663 0C65.7818 0 66.6872 0.905333 66.6872 2.02083V94.9792C66.6872 96.0947 65.7818 97 64.6663 97Z"/><path d="M32.3333 66.6872H2.02083C0.905333 66.6872 0 65.7818 0 64.6663C0 63.5508 0.905333 62.6455 2.02083 62.6455H32.3333C33.4488 62.6455 34.3542 63.5508 34.3542 64.6663C34.3542 65.7818 33.4488 66.6872 32.3333 66.6872Z"/><path d="M32.3333 34.3542H2.02083C0.905333 34.3542 0 33.4488 0 32.3333C0 31.2178 0.905333 30.3125 2.02083 30.3125H32.3333C33.4488 30.3125 34.3542 31.2178 34.3542 32.3333C34.3542 33.4488 33.4488 34.3542 32.3333 34.3542Z"/></g><defs><clipPath id="clip0"><path fill="#fff" d="M0 0H97V97H0z"/></clipPath></defs></svg>