<svg width="70" height="41" viewBox="0 0 70 41" fill="none" xmlns="http://www.w3.org/2000/svg"><path d="M28.4375 25.6886C15.0566 25.1111 4.37489 14.1104 4.37489 0.587177H0C0 16.405 12.4468 29.2805 28.0765 30.0438C28.1991 30.0657 28.3084 30.1182 28.4375 30.1182L62.5318 30.1182L55.4399 37.21C54.589 38.061 54.589 39.4522 55.4399 40.3032C56.2909 41.1542 57.6821 41.1542 58.5331 40.3032L69.3612 29.4751C69.8009 29.0354 70.0044 28.4535 69.9891 27.8738C70.0022 27.2942 69.8009 26.7123 69.3612 26.2726L58.5331 15.4445C57.6821 14.5935 56.2909 14.5935 55.4399 15.4445C54.589 16.2955 54.589 17.6867 55.4399 18.5377L62.6456 25.7433H61.25H44.9422L28.4375 25.7433V25.6886Z" fill="#69CCDB"/></svg>