<svg width="103" height="103" viewBox="0 0 103 103" fill="none" xmlns="http://www.w3.org/2000/svg"><g clip-path="url(#clip0)" fill="#EF7E20"><path d="M103 17.664C103 17.6527 102.998 17.6414 102.998 17.63C102.997 17.5851 102.994 17.5408 102.989 17.497C102.987 17.4809 102.984 17.4648 102.981 17.4487C102.975 17.4083 102.968 17.3684 102.959 17.3294C102.955 17.3139 102.951 17.2986 102.947 17.2831C102.935 17.2407 102.922 17.1991 102.907 17.158C102.904 17.1502 102.902 17.1421 102.899 17.1345L98.8061 6.65707C98.3935 5.60132 97.3942 4.91895 96.2606 4.91895H88.8084C87.9961 4.91895 87.3377 5.57738 87.3377 6.38971C87.3377 7.20204 87.9961 7.86047 88.8084 7.86047H96.1182L99.3754 16.1988H68.5813L66.6518 7.86047H78.0247C78.837 7.86047 79.4954 7.20204 79.4954 6.38971C79.4954 5.57738 78.837 4.91895 78.0247 4.91895H64.8018H49.9821H18.5231C17.3893 4.91895 16.3903 5.60132 15.9777 6.65747L11.8849 17.1345C11.8819 17.1423 11.8803 17.1504 11.8772 17.158C11.862 17.1989 11.8487 17.2405 11.837 17.2831C11.8328 17.2986 11.8288 17.3139 11.8251 17.3294C11.8159 17.3686 11.8084 17.4085 11.8024 17.4487C11.8 17.4648 11.797 17.4809 11.795 17.497C11.7899 17.5408 11.7871 17.5851 11.7859 17.63C11.7857 17.6412 11.7843 17.6525 11.7841 17.664C11.7841 17.6658 11.7839 17.6676 11.7839 17.6694V39.2772C11.7839 40.0896 12.4423 40.748 13.2547 40.748C14.067 40.748 14.7254 40.0896 14.7254 39.2772V19.1404H45.9014V41.4961C45.9014 42.3704 46.4164 43.1671 47.2136 43.5258C47.5055 43.6571 47.8163 43.7213 48.1251 43.7213C48.6594 43.7213 49.1879 43.5294 49.6023 43.162L57.3919 36.2611L65.1815 43.1618C65.8355 43.7418 66.7733 43.8845 67.5706 43.5258C68.3676 43.1669 68.8826 42.3704 68.8826 41.4961V19.1404H100.058V85.1091C100.058 86.1645 99.1996 87.0233 98.1442 87.0233H71.1766C71.1766 87.0066 71.1746 86.9899 71.1744 86.9732C71.1728 86.8412 71.1679 86.7094 71.1567 86.5787C73.6888 87.25 76.3943 85.9486 77.4091 83.4601C77.9428 82.1511 77.9349 80.7127 77.3867 79.4099C77.335 79.2872 77.2781 79.1681 77.2182 79.0508C77.2071 79.0293 77.1964 79.0076 77.1854 78.9863C77.1264 78.8744 77.0637 78.7652 76.9975 78.6588C76.9846 78.638 76.9713 78.6179 76.9582 78.5974C76.8882 78.4882 76.8156 78.3809 76.7382 78.2777C76.7367 78.2757 76.7351 78.2739 76.7337 78.2721C76.6569 78.1701 76.5756 78.0719 76.4917 77.976C76.4764 77.9585 76.4613 77.9408 76.4459 77.9233C76.3628 77.8307 76.2765 77.7412 76.1871 77.6549C76.1696 77.638 76.1519 77.6217 76.1342 77.6052C76.0407 77.5173 75.9449 77.4318 75.8452 77.3511C75.8417 77.3485 75.8383 77.3459 75.8349 77.3433C75.7367 77.2642 75.6347 77.1894 75.5307 77.1174C75.512 77.1043 75.4935 77.091 75.4744 77.0781C75.3704 77.0081 75.2638 76.942 75.1543 76.879C75.1453 76.8738 75.137 76.8677 75.1278 76.8625C75.7494 76.3246 76.2401 75.6438 76.5595 74.8604C77.0932 73.5514 77.0854 72.113 76.5372 70.8101C76.0576 69.67 75.2145 68.7531 74.1346 68.1842C73.9803 68.1029 73.8212 68.0286 73.6576 67.9621L50.7669 58.6283L61.4222 55.3303C63.9571 54.5455 65.3848 51.8418 64.6047 49.3036C64.3136 48.3561 63.7364 47.557 62.9909 46.973C61.8814 46.1038 60.3986 45.7113 58.928 46.0201C58.921 46.0217 58.9142 46.0229 58.9071 46.0247C58.8256 46.043 50.6573 47.8797 42.1262 49.5432C41.7478 49.617 41.379 49.6883 41.0155 49.7583C40.7246 49.8142 40.4378 49.8693 40.1563 49.9228C40.0755 49.9383 39.9944 49.9536 39.9141 49.9689C39.4172 50.0632 38.9358 50.1536 38.4679 50.2405C38.2796 50.2755 38.0929 50.3101 37.9092 50.3439C27.1954 52.3176 24.1857 52.353 23.3505 52.2399C23.3472 52.2395 23.3444 52.2391 23.3412 52.2385C23.3285 52.2367 23.3161 52.2349 23.3044 52.2331C23.2959 52.2317 23.2881 52.2303 23.2803 52.229C23.2746 52.228 23.2686 52.227 23.2632 52.2262C23.2111 52.2168 23.1704 52.2069 23.139 52.1975L22.898 52.0993L23.1984 51.3628C23.4937 50.6386 23.4893 49.8428 23.1861 49.122C23.1103 48.9417 23.0179 48.7715 22.9109 48.613C22.5898 48.1376 22.1358 47.7675 21.5926 47.546L13.693 44.325C12.969 44.0295 12.173 44.0341 11.4522 44.3373C10.7312 44.6405 10.1717 45.2064 9.8764 45.9304L0.216746 69.6209C-0.392804 71.1158 0.327591 72.8278 1.8225 73.4376L9.7223 76.6587C10.083 76.8058 10.4562 76.8754 10.8237 76.8754C11.979 76.8754 13.0762 76.187 13.5387 75.053L13.6113 74.8749L15.4328 75.6174C15.4338 75.6178 15.4348 75.6184 15.436 75.6189C17.1781 76.3292 18.7833 77.3427 20.1726 78.6004C20.4252 78.8291 20.6707 79.0659 20.9086 79.3103C21.1466 79.5548 21.3768 79.807 21.5991 80.0666C21.7101 80.1963 21.8193 80.3281 21.9262 80.4615C23.9506 82.9858 26.6044 84.9659 29.6005 86.1876L31.6496 87.0231H16.6398C15.5844 87.0231 14.7256 86.1643 14.7256 85.1089V81.3874C14.7256 80.5751 14.0672 79.9167 13.2549 79.9167C12.4425 79.9167 11.7841 80.5751 11.7841 81.3874V85.1089C11.7841 87.7863 13.9622 89.9646 16.6398 89.9646H38.8638L57.8103 97.69C58.4625 97.9559 59.1373 98.0821 59.8017 98.0819C61.8897 98.0819 63.8728 96.8376 64.7087 94.7879C65.0515 93.9472 65.1615 93.0685 65.0692 92.2237C66.0547 92.3652 67.0765 92.2354 68.0027 91.8355C68.944 91.4289 69.7241 90.7813 70.2781 89.9644H98.1444C100.822 89.9644 103 87.7863 103 85.1087V17.6696C103 17.6676 103 17.666 103 17.664ZM51.1514 7.86047H63.6324L65.5619 16.1988H49.2219L51.1514 7.86047ZM46.2027 16.1988H15.4084L18.6656 7.86047H48.1322L46.2027 16.1988ZM65.9415 39.9051H65.9413L58.8677 33.6386C58.447 33.266 57.9196 33.0797 57.3923 33.0797C56.8648 33.0797 56.3372 33.266 55.9165 33.6386L48.8431 39.9051V19.1404H65.9415V39.9051ZM10.8201 73.9296L2.94564 70.7189L12.595 47.0541L20.4695 50.265L10.8201 73.9296ZM69.5793 82.8055L67.8912 82.1171C67.8904 82.1167 67.8896 82.1165 67.8888 82.1161C67.8882 82.1159 67.8876 82.1155 67.887 82.1153C67.8868 82.1153 67.8866 82.1151 67.8864 82.1151L50.3068 74.9471C49.5549 74.6406 48.6965 75.0015 48.3897 75.7538C48.0829 76.506 48.444 77.3644 49.1964 77.6712L66.7764 84.8393C66.8498 84.8693 66.9208 84.9025 66.9894 84.9389C67.0087 84.9492 67.0266 84.9617 67.0455 84.9723C67.0938 84.9997 67.1423 85.027 67.1879 85.0574C67.2099 85.0721 67.23 85.089 67.2513 85.1043C67.2917 85.1333 67.333 85.1618 67.3712 85.1932C67.3943 85.2121 67.4153 85.2332 67.4376 85.253C67.4718 85.2833 67.5068 85.3127 67.539 85.3449C67.5613 85.367 67.5812 85.3914 67.6026 85.4143C67.6321 85.4461 67.6625 85.4773 67.6903 85.5107C67.7114 85.5362 67.7299 85.5634 67.75 85.5897C67.7752 85.6227 67.8013 85.6551 67.8244 85.6893C67.844 85.7179 67.8607 85.748 67.8788 85.7772C67.8997 85.811 67.9218 85.8442 67.9409 85.879C67.9582 85.9104 67.9727 85.9432 67.9886 85.9752C68.0055 86.0096 68.0238 86.0434 68.0391 86.0786C68.0538 86.1124 68.0657 86.1474 68.0787 86.1818C68.092 86.2166 68.1065 86.2508 68.1182 86.2862C68.1298 86.3218 68.1387 86.3582 68.1485 86.3942C68.1584 86.4298 68.1695 86.4648 68.1777 86.5008C68.186 86.5372 68.1912 86.5742 68.1978 86.6109C68.2045 86.6475 68.2121 86.6837 68.2169 86.7207C68.2218 86.7577 68.2236 86.7951 68.2266 86.8324C68.2296 86.8698 68.234 86.907 68.2352 86.9444C68.2365 86.9812 68.2346 87.0184 68.2342 87.0555C68.2338 87.0937 68.2344 87.1319 68.232 87.1703C68.2298 87.2067 68.2244 87.2431 68.2204 87.2796C68.2161 87.3188 68.2129 87.358 68.2065 87.397C68.2006 87.4328 68.1916 87.4685 68.1841 87.5043C68.1757 87.5439 68.1687 87.5835 68.158 87.623C68.1487 87.6578 68.1363 87.6924 68.1252 87.727C68.1127 87.7664 68.1013 87.8058 68.0866 87.8447C68.0741 87.8714 68.0618 87.8984 68.0504 87.9255C68.0477 87.9318 68.0463 87.9382 68.0439 87.9442C67.8142 88.4747 67.3901 88.8962 66.8363 89.1354C66.2267 89.3983 65.5289 89.4075 64.9213 89.1597L61.8066 87.8897C61.7921 87.8839 61.7774 87.8799 61.763 87.8744C61.7483 87.8678 61.7344 87.8601 61.7195 87.8541L47.421 82.024C46.6684 81.7174 45.8105 82.0783 45.5039 82.8306C45.1971 83.5828 45.5582 84.4412 46.3104 84.748L60.6088 90.5782C60.6241 90.5844 60.6396 90.5888 60.6551 90.5945C60.669 90.6005 60.6819 90.6079 60.6961 90.6136C61.8961 91.103 62.4745 92.4774 61.9852 93.6774C61.4958 94.8778 60.122 95.4564 58.9214 94.9665L39.7105 87.1333C39.7097 87.1329 39.7089 87.1325 39.7081 87.1321L30.7117 83.4637C29.1281 82.818 27.6575 81.9218 26.3594 80.8191C25.5804 80.1575 24.8637 79.4218 24.2215 78.6211C23.5889 77.8323 22.8948 77.0967 22.1481 76.4205C20.5051 74.9333 18.607 73.7349 16.5472 72.8948C16.547 72.8948 16.5468 72.8946 16.5466 72.8946L14.7228 72.1511L18.3554 63.2422L21.7882 54.8234L22.0414 54.9266C22.2798 55.0237 22.6198 55.1617 23.5347 55.1963C24.6778 55.248 26.5688 55.1287 29.9565 54.6501C32.2609 54.3246 35.0876 53.8539 38.3874 53.2468C38.4687 53.2319 38.5494 53.217 38.6314 53.2019C38.7857 53.1734 38.9417 53.1444 39.0982 53.1154C39.2199 53.0929 39.3422 53.0699 39.4655 53.0468C39.6059 53.0205 39.7469 52.9941 39.889 52.9673C40.0396 52.939 40.1921 52.9102 40.3454 52.881C40.4681 52.8577 40.5907 52.8346 40.7146 52.811C40.9015 52.7754 41.0916 52.739 41.2823 52.7024C41.3805 52.6835 41.4776 52.665 41.5766 52.6461C41.8687 52.5898 42.1646 52.5326 42.466 52.4741C50.9677 50.8204 59.1735 48.9799 59.5422 48.897C59.579 48.8894 59.6158 48.885 59.6527 48.8795C60.5974 48.7397 61.523 49.2861 61.7939 50.1676C61.8891 50.4775 61.9002 50.7935 61.8402 51.0908C61.7084 51.7452 61.2329 52.3099 60.5531 52.5201L45.9718 57.0332C45.3781 57.2171 44.9641 57.7536 44.9374 58.3744C44.9104 58.995 45.2761 59.5658 45.8515 59.8003L72.5478 70.6859C73.1291 70.9229 73.5834 71.3721 73.8268 71.9509C74.0702 72.5297 74.0738 73.1686 73.8367 73.7498C73.5995 74.3312 73.1505 74.7854 72.5717 75.0288C72.2824 75.1503 71.978 75.2119 71.6733 75.2137C71.6688 75.2137 71.6644 75.2131 71.66 75.2131C71.5884 75.2131 71.517 75.2103 71.4455 75.2036C71.4244 75.2016 71.4035 75.1972 71.3824 75.1948C71.3279 75.1881 71.2733 75.1819 71.2192 75.1714C71.185 75.1648 71.1512 75.1547 71.1172 75.1467C71.0766 75.137 71.0358 75.1288 70.9955 75.1169C70.9539 75.1047 70.913 75.0884 70.872 75.0737C70.8394 75.062 70.8062 75.0524 70.774 75.0393L53.1924 67.8703C52.4403 67.5635 51.5821 67.9246 51.2753 68.677C50.9685 69.4292 51.3296 70.2876 52.082 70.5944L73.3971 79.2856C73.5425 79.3447 73.6799 79.4174 73.8081 79.5019C74.1925 79.7553 74.4937 80.1164 74.6761 80.5506C74.8892 81.0569 74.9186 81.6093 74.7637 82.129C74.7415 82.2032 74.7156 82.2768 74.686 82.3494C74.6554 82.4245 74.6214 82.4971 74.5842 82.5671C74.4975 82.7301 74.3919 82.8773 74.274 83.0115C74.2008 83.0948 74.1225 83.1724 74.0392 83.2437C74.026 83.2549 74.0139 83.2678 74.0004 83.2787C73.4637 83.7176 72.7461 83.9063 72.045 83.7647C71.9028 83.7359 71.7614 83.6951 71.6222 83.6384L69.5793 82.8055Z"/><path d="M21 49L12 45.5L4.5 63L1.5 71.5L4.5 73L12 76L13.5 73L16 74.5L22 78L27.5 83L49.5 92.5L56 96H61.5L63 94V91H67L69 88V85H74L75.5 83V79L74 76L75.5 73L74 69.5L47.5 58L58.5 55.5L63 52.5V49L58.5 47.5L37 52.5L25 54L22.5 52.5L21 49Z" fill-opacity=".29"/></g><defs><clipPath id="clip0"><path fill="#fff" d="M0 0H103V103H0z"/></clipPath></defs></svg>