<svg width="51" height="51" viewBox="0 0 51 51" fill="none" xmlns="http://www.w3.org/2000/svg"><path d="M48.8004 34.6719C49.8455 33.3388 50.3468 31.9097 50.2828 30.4379C50.2188 28.8168 49.4936 27.5477 48.8964 26.7691C49.5896 25.0414 49.8562 22.3218 47.5419 20.2102C45.8462 18.6637 42.9666 17.9705 38.9779 18.1625C36.173 18.2905 33.8267 18.813 33.7307 18.8344H33.7201C33.1868 18.9304 32.6216 19.0477 32.0457 19.1757C32.003 18.4931 32.1203 16.7974 33.3788 12.9793C34.8719 8.43601 34.7866 4.95922 33.1015 2.63425C31.3311 0.19197 28.5049 0 27.673 0C26.8731 0 26.1373 0.330615 25.6147 0.938519C24.4309 2.3143 24.5695 4.85257 24.7188 6.02572C23.311 9.80113 19.365 19.0583 16.0268 21.6286C15.9629 21.6713 15.9095 21.7246 15.8562 21.7779C14.875 22.8124 14.2138 23.9322 13.7659 24.9134C13.1366 24.5721 12.4221 24.3802 11.6542 24.3802H5.14855C2.6956 24.3802 0.711914 26.3745 0.711914 28.8168V46.1474C0.711914 48.6004 2.70627 50.5841 5.14855 50.5841H11.6542C12.6034 50.5841 13.4886 50.2854 14.2138 49.7735L16.7201 50.0721C17.104 50.1255 23.9296 50.9893 30.9365 50.8507C32.2056 50.9467 33.4001 51 34.5093 51C36.4183 51 38.0821 50.8507 39.4685 50.5521C42.732 49.8588 44.961 48.4724 46.0915 46.4354C46.9553 44.8783 46.9553 43.3319 46.8167 42.3507C48.939 40.431 49.3123 38.3087 49.2376 36.8156C49.195 35.9517 49.003 35.2158 48.8004 34.6719ZM5.14855 47.7045C4.28469 47.7045 3.59146 47.0006 3.59146 46.1474V28.8061C3.59146 27.9423 4.29535 27.2491 5.14855 27.2491H11.6542C12.5181 27.2491 13.2113 27.9529 13.2113 28.8061V46.1368C13.2113 47.0006 12.5074 47.6939 11.6542 47.6939H5.14855V47.7045ZM46.0701 33.4241C45.6222 33.8933 45.5369 34.6079 45.8782 35.1625C45.8782 35.1731 46.3154 35.9197 46.3687 36.9435C46.4434 38.3407 45.7715 39.5778 44.3637 40.6336C43.8625 41.0176 43.6598 41.6788 43.8731 42.276C43.8731 42.2867 44.3317 43.6945 43.5852 45.0276C42.8706 46.3074 41.2815 47.2246 38.8713 47.7365C36.9409 48.1524 34.3173 48.2271 31.0965 47.9711C31.0538 47.9711 31.0005 47.9711 30.9472 47.9711C24.0896 48.1204 17.1573 47.2246 17.0827 47.2139H17.072L15.9948 47.0859C16.0588 46.7873 16.0908 46.4674 16.0908 46.1474V28.8061C16.0908 28.3476 16.0162 27.8996 15.8882 27.4837C16.0802 26.7691 16.6134 25.18 17.8719 23.8256C22.6605 20.0289 27.3424 7.2202 27.545 6.66562C27.6304 6.44166 27.6517 6.19636 27.609 5.95107C27.4277 4.75659 27.4917 3.29548 27.7477 2.85822C28.3129 2.86888 29.838 3.02886 30.7552 4.29799C31.843 5.80176 31.8004 8.48934 30.6272 12.0514C28.8355 17.4799 28.6862 20.3381 30.1046 21.5966C30.8085 22.2258 31.747 22.2578 32.4296 22.0125C33.0802 21.8632 33.6987 21.7353 34.2853 21.6393C34.328 21.6286 34.3813 21.6179 34.424 21.6073C37.6981 20.8927 43.5639 20.4555 45.6009 22.3112C47.3286 23.8896 46.1021 25.9799 45.9635 26.2039C45.5689 26.8011 45.6862 27.5797 46.2194 28.0596C46.2301 28.0703 47.3499 29.1261 47.4033 30.5445C47.4459 31.4937 46.998 32.4642 46.0701 33.4241Z" fill="#EF7E20"/></svg>