<svg width="109" height="109" viewBox="0 0 109 109" fill="none" xmlns="http://www.w3.org/2000/svg"><g clip-path="url(#clip0)" fill="#EF7E20"><path d="M106.871 26.6162H100.149V19.0458C100.149 12.8145 95.0874 7.74512 88.8657 7.74512H15.1612C8.93949 7.74512 3.87802 12.8147 3.87802 19.0458V26.6162H2.12891C0.953324 26.6162 0 27.5693 0 28.7451C0 29.9209 0.953324 30.874 2.12891 30.874H3.87802V38.4444C3.87802 44.1477 7.81713 48.7389 13.1307 49.5998V52.0274C13.1307 56.8322 17.034 60.7413 21.8319 60.7413C25.6968 60.7413 28.9812 58.2047 30.1125 54.7067C31.5019 55.6483 33.1762 56.1986 34.9767 56.1986C38.9941 56.1986 42.3844 53.4578 43.3809 49.7452H88.8657C95.0874 49.7452 100.149 44.6757 100.149 38.4446V30.8742H104.742V55.0601H52.0132C50.8376 55.0601 49.8843 56.0132 49.8843 57.189V69.4474H44.502C43.3264 69.4474 42.3731 70.4005 42.3731 71.5763C42.3731 72.4085 42.8508 73.1291 43.5468 73.4791V92.7883C43.5468 97.4568 47.345 101.255 52.0134 101.255C56.6819 101.255 60.4801 97.4568 60.4801 92.7883V73.4791C61.176 73.1291 61.6538 72.4085 61.6538 71.5763C61.6538 70.4005 60.7004 69.4474 59.5249 69.4474H54.1426V59.3179H106.871C108.047 59.3179 109 58.3648 109 57.189V28.7451C109 27.5693 108.047 26.6162 106.871 26.6162ZM39.4201 47.4848C39.4201 49.9417 37.4268 51.9408 34.9767 51.9408C32.5265 51.9408 30.5332 49.9417 30.5332 47.4848C30.5332 46.309 29.5799 45.3559 28.4043 45.3559C27.2287 45.3559 26.2754 46.309 26.2754 47.4848V52.0274C26.2754 54.4844 24.2821 56.4834 21.8319 56.4834C19.3818 56.4834 17.3885 54.4844 17.3885 52.0274V30.8742H39.4201V47.4848ZM95.8911 38.4444C95.8911 42.3279 92.7394 45.4872 88.8657 45.4872H43.6779V28.7451C43.6779 27.5693 42.7246 26.6162 41.549 26.6162H15.2596C14.084 26.6162 13.1307 27.5693 13.1307 28.7451V45.2435C10.2202 44.4404 8.13583 41.7406 8.13583 38.4444V19.0458C8.13583 15.1622 11.2875 12.0029 15.1612 12.0029H88.8657C92.7394 12.0029 95.8911 15.1622 95.8911 19.0458V38.4444ZM56.2221 92.7883C56.2221 95.109 54.3342 96.9969 52.0132 96.9969C49.6923 96.9969 47.8044 95.109 47.8044 92.7883V73.7052H56.2219V92.7883H56.2221Z"/><path d="M7.5 14L14.5 10H92L96.5 14L97.5 24.5L99 39.5L93 48H56L41.5 47V29.5H15V47L10 46.5L6.5 41V21L7.5 14Z" fill-opacity=".29"/></g><defs><clipPath id="clip0"><path fill="#fff" d="M0 0H109V109H0z"/></clipPath></defs></svg>