<svg width="23" height="23" viewBox="0 0 23 23" fill="none" xmlns="http://www.w3.org/2000/svg"><path d="M17.4861 15.2148C16.7347 14.4729 15.7967 14.4729 15.05 15.2148C14.4805 15.7795 13.9109 16.3443 13.351 16.9186C13.1978 17.0766 13.0686 17.1101 12.8819 17.0048C12.5134 16.8038 12.1209 16.641 11.7668 16.4209C10.1156 15.3823 8.7324 14.047 7.50716 12.5442C6.89933 11.7975 6.3585 10.9982 5.9804 10.0985C5.90383 9.91659 5.91818 9.79694 6.06655 9.64857C6.6361 9.09817 7.19128 8.53342 7.75125 7.96866C8.53138 7.18374 8.53138 6.26481 7.74647 5.47511C7.30136 5.02522 6.85626 4.5849 6.41115 4.13501C5.95169 3.67554 5.49701 3.21129 5.03276 2.75661C4.28134 2.02434 3.34327 2.02434 2.59664 2.7614C2.02231 3.32616 1.47191 3.90527 0.88801 4.46046C0.347183 4.97257 0.0743758 5.59955 0.0169428 6.33182C-0.0739928 7.52355 0.217958 8.64828 0.629561 9.7443C1.47191 12.0129 2.75458 14.0278 4.31006 15.8753C6.41115 18.3736 8.91906 20.3503 11.8529 21.7765C13.1739 22.4178 14.5427 22.9108 16.0312 22.9922C17.0554 23.0496 17.9456 22.7912 18.6587 21.9919C19.1469 21.4463 19.6973 20.9485 20.2142 20.4268C20.98 19.6515 20.9848 18.7134 20.2238 17.9476C19.3144 17.0335 18.4003 16.1241 17.4861 15.2148Z" fill="#69CCDB"/><path d="M16.572 11.4005L18.3381 11.099C18.0605 9.47653 17.2947 8.0072 16.1317 6.8394C14.9017 5.60938 13.3462 4.83403 11.6328 4.59473L11.3839 6.37036C12.7096 6.55702 13.9157 7.15528 14.8682 8.10771C15.7679 9.0075 16.3566 10.1466 16.572 11.4005Z" fill="#69CCDB"/><path d="M19.3336 3.72357C17.2947 1.6847 14.715 0.397245 11.8673 0L11.6184 1.77564C14.0785 2.12023 16.3088 3.23539 18.07 4.99188C19.7404 6.66223 20.8364 8.77289 21.2336 11.0941L22.9997 10.7926C22.5355 8.10284 21.2672 5.66194 19.3336 3.72357Z" fill="#69CCDB"/></svg>