<svg width="57" height="57" viewBox="0 0 57 57" fill="none" xmlns="http://www.w3.org/2000/svg"><circle cx="28.5" cy="28.5" r="27" fill="#69CCDB" stroke="#fff" stroke-width="3"/><path d="M11.4264 23.3426L28.0405 33.686C28.1802 33.7742 28.3419 33.8184 28.5037 33.8184C28.6654 33.8184 28.8271 33.7742 28.9668 33.686L45.581 23.3426C45.8383 23.1809 46 22.9015 46 22.5928C46 22.2914 45.8456 22.0047 45.581 21.8429L28.9668 11.4995C28.6801 11.3231 28.3199 11.3231 28.0332 11.4995L11.419 21.8429C11.1617 22.0047 11 22.284 11 22.5928C11.0074 22.9015 11.1617 23.1809 11.4264 23.3426ZM28.5037 13.2859L43.4491 22.5928L28.5037 31.8996L13.5583 22.5928L28.5037 13.2859Z" fill="#fff"/><path d="M45.1178 27.6211C44.8825 27.6211 44.6546 27.7167 44.4929 27.8784C44.3312 28.0401 44.2356 28.268 44.2356 28.5033C44.2356 28.7385 44.3312 28.9664 44.4929 29.1281C44.6546 29.2899 44.8825 29.3854 45.1178 29.3854C45.353 29.3854 45.5809 29.2899 45.7426 29.1281C45.9044 28.9664 45.9999 28.7385 45.9999 28.5033C45.9999 28.268 45.9044 28.0401 45.7426 27.8784C45.5809 27.7167 45.353 27.6211 45.1178 27.6211Z" fill="#fff"/><path d="M41.8832 29.4811C41.4715 29.7384 41.3392 30.2824 41.6038 30.6941C41.7729 30.9588 42.0596 31.1131 42.3537 31.1131C42.5154 31.1131 42.6771 31.069 42.8168 30.9808C43.2285 30.7235 43.3535 30.1795 43.0962 29.7678C42.8389 29.3488 42.2949 29.2238 41.8832 29.4811Z" fill="#fff"/><path d="M33.5761 34.6493C33.1644 34.9066 33.0321 35.4506 33.2967 35.8623C33.4658 36.1343 33.7525 36.2813 34.0466 36.2813C34.2083 36.2813 34.37 36.2372 34.5097 36.149C34.9214 35.8917 35.0463 35.3477 34.789 34.936C34.5317 34.5243 33.9877 34.392 33.5761 34.6493Z" fill="#fff"/><path d="M30.8047 36.3766C30.3931 36.6339 30.2681 37.1779 30.5254 37.5896C30.6945 37.8616 30.9812 38.0086 31.2752 38.0086C31.437 38.0086 31.5987 37.9645 31.7384 37.8763C32.15 37.619 32.275 37.075 32.0177 36.6633C31.7604 36.2443 31.2238 36.1193 30.8047 36.3766Z" fill="#fff"/><path d="M36.3476 32.9284C35.9359 33.1857 35.8036 33.7297 36.0609 34.1414C36.23 34.4134 36.5167 34.5604 36.8108 34.5604C36.9725 34.5604 37.1342 34.5163 37.2739 34.4281C37.6856 34.1708 37.8106 33.6268 37.5533 33.2151C37.3033 32.7961 36.7593 32.6711 36.3476 32.9284Z" fill="#fff"/><path d="M39.1119 31.2087C38.7002 31.466 38.5752 32.01 38.8325 32.4216C39.0016 32.6863 39.2883 32.8407 39.5824 32.8407C39.7441 32.8407 39.9058 32.7966 40.0455 32.7083C40.4572 32.451 40.5821 31.907 40.3248 31.4954C40.0675 31.0763 39.5309 30.9514 39.1119 31.2087Z" fill="#fff"/><path d="M27.8789 38.2221C27.7172 38.3839 27.6216 38.6118 27.6216 38.847C27.6216 39.0823 27.7172 39.3101 27.8789 39.4719C28.0406 39.6336 28.2685 39.7292 28.5037 39.7292C28.739 39.7292 28.9669 39.6336 29.1286 39.4719C29.2903 39.3101 29.3859 39.0823 29.3859 38.847C29.3859 38.6118 29.2903 38.3839 29.1286 38.2221C28.9669 38.0604 28.739 37.9648 28.5037 37.9648C28.2685 37.9648 28.048 38.0604 27.8789 38.2221Z" fill="#fff"/><path d="M24.9824 36.6564C24.7251 37.068 24.8501 37.612 25.2618 37.8693C25.4088 37.9576 25.5705 38.0017 25.7249 38.0017C26.019 38.0017 26.3057 37.8546 26.4747 37.5826C26.732 37.171 26.6071 36.627 26.188 36.3697C25.7837 36.1197 25.2397 36.2447 24.9824 36.6564Z" fill="#fff"/><path d="M13.9111 29.7602C13.6538 30.1719 13.7788 30.7159 14.1905 30.9732C14.3375 31.0614 14.4992 31.1055 14.6536 31.1055C14.9477 31.1055 15.2344 30.9585 15.4035 30.6865C15.6608 30.2748 15.5358 29.7308 15.1241 29.4735C14.7124 29.2162 14.1684 29.3485 13.9111 29.7602Z" fill="#fff"/><path d="M22.2183 34.936C21.961 35.3477 22.0859 35.8917 22.4976 36.149C22.6446 36.2372 22.8064 36.2813 22.9607 36.2813C23.2548 36.2813 23.5415 36.1343 23.7106 35.8623C23.9679 35.4506 23.8429 34.9066 23.4312 34.6493C23.0196 34.392 22.4756 34.5243 22.2183 34.936Z" fill="#fff"/><path d="M19.4468 33.2081C19.1895 33.6198 19.3144 34.1638 19.7261 34.4211C19.8732 34.5093 20.0349 34.5534 20.1893 34.5534C20.4833 34.5534 20.77 34.4064 20.9391 34.1344C21.1964 33.7227 21.0714 33.1787 20.6524 32.9214C20.2481 32.6715 19.7041 32.7964 19.4468 33.2081Z" fill="#fff"/><path d="M16.6753 31.4884C16.418 31.9001 16.543 32.4441 16.9546 32.7014C17.1017 32.7896 17.2634 32.8337 17.4178 32.8337C17.7118 32.8337 17.9985 32.6867 18.1676 32.4147C18.4249 32.003 18.2999 31.459 17.8883 31.2017C17.4766 30.9517 16.9326 31.0767 16.6753 31.4884Z" fill="#fff"/><path d="M11.8895 29.3854C12.1247 29.3854 12.3526 29.2899 12.5144 29.1281C12.6761 28.9664 12.7717 28.7385 12.7717 28.5033C12.7717 28.268 12.6761 28.0401 12.5144 27.8784C12.3526 27.7167 12.1247 27.6211 11.8895 27.6211C11.6542 27.6211 11.4264 27.7167 11.2646 27.8784C11.1029 28.0401 11.0073 28.268 11.0073 28.5033C11.0073 28.7385 11.1029 28.9664 11.2646 29.1281C11.4337 29.2972 11.6542 29.3854 11.8895 29.3854Z" fill="#fff"/><path d="M44.6547 33.6641L28.5036 43.7208L12.3526 33.6641C11.9409 33.4068 11.3969 33.5317 11.1396 33.9434C10.8823 34.3551 11.0073 34.8991 11.419 35.1564L28.0331 45.4998C28.1728 45.588 28.3346 45.6321 28.4963 45.6321C28.658 45.6321 28.8197 45.588 28.9594 45.4998L45.5736 35.1564C45.9853 34.8991 46.1102 34.3551 45.8529 33.9434C45.6103 33.5317 45.0663 33.4068 44.6547 33.6641Z" fill="#fff"/></svg>