<svg width="47" height="47" viewBox="0 0 47 47" fill="none" xmlns="http://www.w3.org/2000/svg"><g clip-path="url(#clip0)" fill="#EF7E20"><path d="M37.3771 18.5368H37.3111C36.4097 18.5317 35.5388 18.863 34.8682 19.4656C34.3254 17.9635 32.9461 16.8837 31.3304 16.8837C30.3402 16.8906 29.3944 17.2972 28.7084 18.0117C28.0776 16.7347 26.8121 15.8684 25.3571 15.8684H25.2868C24.507 15.8564 23.7461 16.1101 23.1292 16.5872V7.48299C23.1292 5.28289 21.4163 3.49316 19.3328 3.49316C17.2516 3.49316 15.5476 5.28173 15.5464 7.48029L15.529 25.5436L14.5068 24.302C13.6104 23.186 12.2908 22.493 10.8632 22.3884C9.46495 22.2926 8.08946 22.7791 7.06256 23.7334L6.17311 24.4704C5.88627 24.7082 5.80443 25.1135 5.97622 25.444L14.6241 42.0669C16.2054 45.1047 19.2139 46.9999 22.4756 46.9999H32.2214V46.9914C37.1629 46.9914 41.1693 42.7035 41.1743 37.4385C41.1763 35.0829 41.1674 33.3271 41.1689 31.9041C41.1739 28.0969 41.1701 26.6921 41.1604 22.4976C41.1554 20.3026 39.4549 18.5368 37.3771 18.5368ZM39.5761 31.8987C39.5745 33.3221 39.5722 35.0848 39.5699 37.4405C39.5657 41.8349 36.2483 45.4182 32.1751 45.4182H22.476C19.8061 45.4182 17.335 43.8489 16.0274 41.3365L7.67368 25.2841L8.08598 24.9402C8.09641 24.9317 8.10644 24.9216 8.11648 24.9128C8.82565 24.2453 9.77997 23.9025 10.7517 23.9662C11.745 24.0422 12.6614 24.5279 13.2826 25.3065L15.7028 28.2513C15.9143 28.5096 16.2656 28.6065 16.5799 28.4942C16.8941 28.3818 17.1041 28.0838 17.1041 27.7502L17.1184 7.48106C17.1192 6.15382 18.1229 5.07404 19.3336 5.07404C20.5442 5.07404 21.5479 6.15498 21.5479 7.48299V19.7042C21.5479 19.7466 21.546 19.7895 21.546 19.8327C21.546 19.8513 21.5479 19.8702 21.5479 19.8883V25.1135C21.5479 25.5501 21.9019 25.9041 22.3386 25.9041C22.7752 25.9041 23.1292 25.5501 23.1292 25.1135V19.7308C23.1292 18.4503 24.1074 17.4496 25.2868 17.4496H25.3571C26.5685 17.4496 27.5765 18.5055 27.5765 19.8335V24.6147C27.5765 25.0514 27.9305 25.4054 28.3671 25.4054C28.8037 25.4054 29.1578 25.0514 29.1578 24.6147V20.8635C29.1578 19.5351 30.1175 18.4545 31.3355 18.4545C32.5465 18.4545 33.5062 19.5347 33.5062 20.8635V24.4024C33.5062 24.839 33.8602 25.193 34.2969 25.193C34.7335 25.193 35.0875 24.839 35.0875 24.4024V22.4861C35.0875 21.1577 36.0997 20.118 37.3111 20.118H37.3771C38.5855 20.118 39.5703 21.1754 39.5734 22.4996C39.583 26.6909 39.5811 28.0942 39.5761 31.8987Z"/><path d="M13.0351 7.82446C13.4718 7.82446 13.8258 7.47046 13.8258 7.03383C13.8385 4.01685 16.288 1.57817 19.3046 1.57817C22.3216 1.57817 24.7707 4.01685 24.7834 7.03383C24.7834 7.47046 25.1374 7.82446 25.574 7.82446C26.0107 7.82446 26.3647 7.47046 26.3647 7.03383C26.35 3.14476 23.1937 0 19.3046 0C15.4159 0 12.2592 3.14476 12.2445 7.03383C12.2445 7.47046 12.5985 7.82446 13.0351 7.82446Z"/></g><defs><clipPath id="clip0"><path fill="#fff" d="M0 0H47V47H0z"/></clipPath></defs></svg>