<svg width="45" height="45" viewBox="0 0 45 45" fill="none" xmlns="http://www.w3.org/2000/svg"><g clip-path="url(#clip0)"><path d="M44.9999 7.71763C44.9999 7.7127 44.9992 7.70778 44.9991 7.70277C44.9985 7.68317 44.9974 7.66384 44.9951 7.64468C44.9942 7.63765 44.9929 7.63061 44.9919 7.62358C44.9892 7.60592 44.986 7.58852 44.9819 7.57146C44.9804 7.5647 44.9786 7.55802 44.9767 7.55125C44.9717 7.5327 44.9659 7.51451 44.9592 7.49658C44.9579 7.49315 44.9571 7.48964 44.9558 7.4863L43.1677 2.90879C42.9874 2.44754 42.5509 2.14941 42.0556 2.14941H38.7998C38.4449 2.14941 38.1572 2.43708 38.1572 2.79198C38.1572 3.14688 38.4449 3.43455 38.7998 3.43455H41.9934L43.4164 7.07752H29.9627L29.1197 3.43455H34.0884C34.4433 3.43455 34.731 3.14688 34.731 2.79198C34.731 2.43708 34.4433 2.14941 34.0884 2.14941H28.3115H21.8369H8.09264C7.59729 2.14941 7.16082 2.44754 6.98056 2.90896L5.19243 7.4863C5.19111 7.48973 5.19041 7.49324 5.18909 7.49658C5.18241 7.51442 5.17661 7.53262 5.17151 7.55125C5.16967 7.55802 5.16791 7.5647 5.16633 7.57146C5.16228 7.5886 5.15903 7.60601 5.15639 7.62358C5.15534 7.63061 5.15402 7.63765 5.15314 7.64468C5.15095 7.66384 5.14971 7.68317 5.14919 7.70277C5.1491 7.7077 5.14848 7.71262 5.1484 7.71763C5.1484 7.71842 5.14831 7.71921 5.14831 7.72V17.1603C5.14831 17.5152 5.43597 17.8029 5.79088 17.8029C6.14578 17.8029 6.43344 17.5152 6.43344 17.1603V8.36265H20.054V18.1297C20.054 18.5117 20.279 18.8598 20.6273 19.0165C20.7548 19.0739 20.8906 19.1019 21.0255 19.1019C21.259 19.1019 21.4899 19.0181 21.6709 18.8576L25.0741 15.8426L28.4773 18.8575C28.7631 19.1109 29.1728 19.1732 29.5211 19.0165C29.8693 18.8597 30.0943 18.5117 30.0943 18.1297V8.36265H43.7148V37.184C43.7148 37.645 43.3396 38.0202 42.8785 38.0202H31.0966C31.0966 38.0129 31.0957 38.0056 31.0956 37.9983C31.0949 37.9407 31.0928 37.8831 31.0879 37.826C32.1941 38.1193 33.3762 37.5507 33.8195 36.4635C34.0527 35.8916 34.0492 35.2632 33.8097 34.694C33.7872 34.6404 33.7623 34.5884 33.7361 34.5371C33.7313 34.5277 33.7266 34.5182 33.7218 34.5089C33.696 34.4601 33.6686 34.4123 33.6397 34.3658C33.634 34.3568 33.6282 34.348 33.6225 34.339C33.5919 34.2913 33.5602 34.2445 33.5264 34.1994C33.5258 34.1985 33.5251 34.1977 33.5244 34.1969C33.4909 34.1524 33.4554 34.1095 33.4187 34.0675C33.412 34.0599 33.4054 34.0522 33.3987 34.0445C33.3624 34.0041 33.3247 33.965 33.2856 33.9273C33.278 33.9199 33.2703 33.9128 33.2625 33.9056C33.2217 33.8671 33.1798 33.8298 33.1362 33.7945C33.1347 33.7934 33.1332 33.7923 33.1318 33.7911C33.0889 33.7566 33.0443 33.7239 32.9989 33.6924C32.9907 33.6867 32.9826 33.6809 32.9743 33.6753C32.9288 33.6447 32.8822 33.6158 32.8344 33.5883C32.8305 33.586 32.8269 33.5833 32.8228 33.5811C33.0944 33.346 33.3088 33.0486 33.4483 32.7064C33.6815 32.1345 33.6781 31.5061 33.4386 30.9368C33.229 30.4387 32.8607 30.0381 32.3889 29.7896C32.3215 29.754 32.252 29.7216 32.1805 29.6925L22.1797 25.6147L26.8349 24.1738C27.9424 23.8309 28.5662 22.6497 28.2254 21.5408C28.0982 21.1268 27.846 20.7777 27.5203 20.5226C27.0356 20.1428 26.3877 19.9713 25.7453 20.1062C25.7422 20.1069 25.7392 20.1075 25.7361 20.1082C25.7005 20.1162 22.1318 20.9187 18.4047 21.6455C18.2393 21.6777 18.0782 21.7088 17.9194 21.7394C17.7923 21.7638 17.667 21.7879 17.544 21.8113C17.5087 21.8181 17.4733 21.8247 17.4382 21.8314C17.2211 21.8726 17.0108 21.9121 16.8064 21.9501C16.7241 21.9654 16.6425 21.9805 16.5623 21.9953C11.8815 22.8575 10.5666 22.873 10.2017 22.8236C10.2003 22.8234 10.199 22.8233 10.1976 22.823C10.1921 22.8222 10.1866 22.8214 10.1815 22.8206C10.1778 22.82 10.1744 22.8194 10.171 22.8189C10.1685 22.8184 10.1659 22.818 10.1635 22.8176C10.1408 22.8135 10.123 22.8092 10.1093 22.8051L10.004 22.7622L10.1352 22.4404C10.2642 22.124 10.2623 21.7763 10.1299 21.4614C10.0967 21.3827 10.0564 21.3083 10.0096 21.239C9.86934 21.0314 9.67098 20.8696 9.43367 20.7729L5.98239 19.3657C5.66607 19.2365 5.31829 19.2386 5.00338 19.371C4.68838 19.5035 4.44395 19.7507 4.31493 20.067L0.0946948 30.4173C-0.171613 31.0704 0.143122 31.8183 0.796236 32.0847L4.24761 33.492C4.40519 33.5563 4.56823 33.5867 4.72881 33.5867C5.23356 33.5867 5.71292 33.2859 5.91498 32.7905L5.94671 32.7127L6.74247 33.0371C6.7429 33.0373 6.74334 33.0375 6.74387 33.0377C7.505 33.3481 8.20628 33.7909 8.81325 34.3404C8.92364 34.4403 9.03087 34.5437 9.13484 34.6505C9.23882 34.7573 9.33937 34.8675 9.43648 34.9809C9.485 35.0376 9.53272 35.0952 9.57939 35.1534C10.4638 36.2563 11.6233 37.1214 12.9322 37.6551L13.8275 38.0201H7.26981C6.80873 38.0201 6.43353 37.6449 6.43353 37.1839V35.558C6.43353 35.2031 6.14587 34.9154 5.79096 34.9154C5.43606 34.9154 5.1484 35.2031 5.1484 35.558V37.1839C5.1484 38.3536 6.09999 39.3053 7.26981 39.3053H16.9793L25.2569 42.6805C25.5419 42.7966 25.8367 42.8517 26.127 42.8517C27.0392 42.8517 27.9056 42.3081 28.2708 41.4125C28.4206 41.0452 28.4686 40.6613 28.4283 40.2923C28.8589 40.3541 29.3053 40.2974 29.7099 40.1227C30.1212 39.945 30.462 39.6621 30.704 39.3052H42.8786C44.0484 39.3052 45 38.3536 45 37.1838V7.72009C45 7.71921 44.9999 7.71851 44.9999 7.71763ZM22.3477 3.43455H27.8006L28.6435 7.07752H21.5047L22.3477 3.43455ZM20.1857 7.07752H6.73183L8.15487 3.43455H21.0286L20.1857 7.07752ZM28.8094 17.4346H28.8093L25.7189 14.6968C25.5351 14.5341 25.3047 14.4527 25.0743 14.4527C24.8439 14.4527 24.6133 14.5341 24.4295 14.6968L21.3392 17.4346V8.36265H28.8094V17.4346ZM4.72723 32.2997L1.28693 30.897L5.50268 20.558L8.94298 21.9608L4.72723 32.2997ZM30.3987 36.1775L29.6612 35.8768C29.6609 35.8766 29.6605 35.8765 29.6602 35.8763C29.6599 35.8762 29.6596 35.8761 29.6594 35.876C29.6593 35.876 29.6592 35.8759 29.6591 35.8759L21.9787 32.7443C21.6502 32.6103 21.2752 32.768 21.1411 33.0967C21.0071 33.4253 21.1649 33.8003 21.4936 33.9344L29.1741 37.0661C29.2062 37.0792 29.2372 37.0937 29.2672 37.1096C29.2756 37.1141 29.2835 37.1195 29.2917 37.1242C29.3128 37.1361 29.334 37.1481 29.354 37.1614C29.3635 37.1678 29.3723 37.1752 29.3816 37.1818C29.3993 37.1945 29.4173 37.207 29.434 37.2207C29.4441 37.229 29.4533 37.2382 29.463 37.2468C29.478 37.2601 29.4933 37.2729 29.5073 37.287C29.5171 37.2966 29.5258 37.3073 29.5351 37.3173C29.548 37.3312 29.5613 37.3448 29.5734 37.3594C29.5826 37.3705 29.5907 37.3824 29.5995 37.3939C29.6105 37.4083 29.6219 37.4225 29.632 37.4374C29.6406 37.4499 29.6479 37.4631 29.6558 37.4758C29.6649 37.4906 29.6746 37.5051 29.6829 37.5203C29.6905 37.534 29.6968 37.5484 29.7038 37.5623C29.7111 37.5774 29.7191 37.5921 29.7258 37.6075C29.7322 37.6223 29.7374 37.6376 29.7431 37.6526C29.7489 37.6678 29.7553 37.6827 29.7604 37.6982C29.7655 37.7138 29.7693 37.7297 29.7736 37.7454C29.7779 37.761 29.7828 37.7763 29.7864 37.792C29.79 37.8079 29.7923 37.8241 29.7952 37.8401C29.7981 37.8561 29.8014 37.8719 29.8035 37.888C29.8056 37.9042 29.8064 37.9206 29.8077 37.9368C29.8091 37.9532 29.811 37.9694 29.8115 37.9858C29.812 38.0019 29.8113 38.0181 29.8111 38.0343C29.8109 38.051 29.8112 38.0677 29.8101 38.0845C29.8091 38.1004 29.8068 38.1163 29.805 38.1322C29.8032 38.1493 29.8018 38.1665 29.7989 38.1835C29.7964 38.1992 29.7924 38.2147 29.7892 38.2304C29.7855 38.2477 29.7824 38.265 29.7778 38.2822C29.7737 38.2974 29.7683 38.3126 29.7634 38.3277C29.758 38.3449 29.753 38.3621 29.7466 38.3791C29.7411 38.3908 29.7358 38.4026 29.7307 38.4144C29.7296 38.4171 29.729 38.42 29.7279 38.4226C29.6276 38.6544 29.4423 38.8385 29.2003 38.943C28.934 39.0579 28.6291 39.0619 28.3637 38.9536L27.0029 38.3988C26.9966 38.3962 26.9901 38.3945 26.9838 38.3921C26.9774 38.3892 26.9713 38.3859 26.9648 38.3832L20.7179 35.8361C20.3891 35.7021 20.0143 35.8598 19.8803 36.1885C19.7463 36.5171 19.9041 36.8922 20.2327 37.0262L26.4796 39.5733C26.4863 39.5761 26.493 39.578 26.4998 39.5805C26.5059 39.5831 26.5115 39.5864 26.5177 39.5888C27.042 39.8027 27.2947 40.4031 27.0809 40.9274C26.8671 41.4518 26.2669 41.7046 25.7424 41.4906L17.3493 38.0683C17.3489 38.0681 17.3486 38.068 17.3482 38.0678L13.4177 36.4651C12.7259 36.183 12.0834 35.7914 11.5162 35.3097C11.1759 35.0206 10.8628 34.6992 10.5822 34.3494C10.3058 34.0048 10.0026 33.6834 9.67634 33.388C8.95854 32.7382 8.12929 32.2146 7.22938 31.8476C7.22929 31.8476 7.2292 31.8475 7.22912 31.8475L6.4323 31.5227L8.01934 27.6304L9.5191 23.9523L9.62976 23.9974C9.73391 24.0399 9.88244 24.1001 10.2822 24.1153C10.7816 24.1378 11.6077 24.0857 13.0878 23.8766C14.0946 23.7344 15.3295 23.5288 16.7712 23.2635C16.8067 23.257 16.842 23.2505 16.8778 23.2439C16.9452 23.2314 17.0133 23.2188 17.0817 23.2061C17.1349 23.1963 17.1883 23.1863 17.2422 23.1762C17.3036 23.1646 17.3652 23.1531 17.4272 23.1414C17.4931 23.129 17.5597 23.1165 17.6266 23.1037C17.6803 23.0935 17.7338 23.0834 17.7879 23.0731C17.8696 23.0576 17.9526 23.0417 18.0359 23.0257C18.0788 23.0174 18.1213 23.0093 18.1645 23.0011C18.2922 22.9765 18.4214 22.9515 18.5531 22.9259C22.2674 22.2035 25.8525 21.3994 26.0136 21.3631C26.0297 21.3598 26.0458 21.3579 26.0618 21.3555C26.4746 21.2944 26.879 21.5331 26.9974 21.9183C27.0389 22.0536 27.0438 22.1917 27.0176 22.3216C26.96 22.6075 26.7522 22.8542 26.4552 22.9461L20.0848 24.9178C19.8254 24.9981 19.6445 25.2325 19.6328 25.5038C19.6211 25.7749 19.7808 26.0242 20.0322 26.1267L31.6956 30.8826C31.9496 30.9861 32.1481 31.1824 32.2544 31.4352C32.3608 31.6881 32.3624 31.9672 32.2587 32.2211C32.1551 32.4751 31.9589 32.6736 31.7061 32.7799C31.5797 32.833 31.4467 32.8599 31.3136 32.8607C31.3116 32.8607 31.3097 32.8604 31.3078 32.8604C31.2765 32.8604 31.2453 32.8592 31.2141 32.8563C31.2048 32.8554 31.1957 32.8535 31.1865 32.8525C31.1627 32.8496 31.1388 32.8468 31.1152 32.8423C31.1003 32.8394 31.0855 32.835 31.0706 32.8314C31.0529 32.8272 31.035 32.8236 31.0175 32.8184C30.9993 32.8131 30.9814 32.806 30.9635 32.7995C30.9493 32.7944 30.9348 32.7902 30.9207 32.7845L23.2394 29.6524C22.9108 29.5184 22.5359 29.6762 22.4018 30.0049C22.2678 30.3335 22.4256 30.7085 22.7543 30.8426L32.0667 34.6397C32.1302 34.6655 32.1903 34.6973 32.2463 34.7342C32.4142 34.8449 32.5458 35.0027 32.6255 35.1924C32.7186 35.4136 32.7314 35.6549 32.6637 35.882C32.6541 35.9144 32.6427 35.9465 32.6298 35.9783C32.6165 36.0111 32.6016 36.0428 32.5853 36.0734C32.5475 36.1446 32.5013 36.2089 32.4498 36.2675C32.4178 36.3039 32.3836 36.3378 32.3472 36.3689C32.3414 36.3739 32.3362 36.3795 32.3303 36.3842C32.0958 36.576 31.7823 36.6585 31.476 36.5966C31.4138 36.584 31.3521 36.5662 31.2912 36.5414L30.3987 36.1775Z" fill="#fff"/></g><defs><clipPath id="clip0"><path fill="#fff" d="M0 0H45V45H0z"/></clipPath></defs></svg>