<svg width="72" height="70" viewBox="0 0 72 70" fill="none" xmlns="http://www.w3.org/2000/svg"><path d="M71.4268 21.322C70.9169 20.6736 70.1512 20.3016 69.3262 20.3016H64.0443L66.8199 8.85421C67.029 7.9912 66.8343 7.09584 66.2853 6.39777C65.7363 5.69971 64.9119 5.29935 64.0239 5.29935H54.0169V2.89396H55.3826C55.9793 2.89396 56.4629 2.41021 56.4629 1.81368C56.4629 1.21715 55.9793 0.733398 55.3826 0.733398H50.4906C49.8939 0.733398 49.4103 1.21715 49.4103 1.81368C49.4103 2.41021 49.8939 2.89396 50.4906 2.89396H51.8562V5.29921H41.3601C40.472 5.29921 39.6477 5.69957 39.0987 6.39763C38.5497 7.0957 38.3548 7.99106 38.564 8.85407L41.3397 20.3015H36.045C35.22 20.3015 34.4541 20.6735 33.9441 21.322C33.4342 21.9706 33.253 22.8022 33.4475 23.6039L36.3129 35.4218C36.5836 36.5384 37.5238 37.3412 38.6474 37.4507V43.4575H9.14991C8.08509 43.4575 7.04756 43.8943 6.30366 44.6561L0.307547 50.7951C0.112781 50.9942 0 51.2716 0 51.5499V64.1716C0 67.3389 2.57681 69.9157 5.74425 69.9157H63.5539C65.3988 69.9157 66.8995 68.4148 66.8995 66.5701V57.0373C66.8995 56.4406 66.4159 55.957 65.8193 55.957C65.2226 55.957 64.739 56.4407 64.739 57.0373V66.5701C64.739 67.2234 64.2074 67.7551 63.5539 67.7551H59.0722V59.5948C59.0722 57.8901 57.6854 56.5033 55.9807 56.5033H49.4034C47.6987 56.5033 46.3119 57.8901 46.3119 59.5948V67.7551H40.8082V37.4648H64.7388V52.0749C64.7388 52.6716 65.2224 53.1552 65.8191 53.1552C66.4158 53.1552 66.8994 52.6714 66.8994 52.0749V37.4285C67.9444 37.2565 68.8016 36.4799 69.0581 35.4221L71.9235 23.6042C72.1181 22.8022 71.9369 21.9704 71.4268 21.322ZM48.4726 59.5948C48.4726 59.0815 48.8901 58.6639 49.4034 58.6639H55.9807C56.494 58.6639 56.9115 59.0814 56.9115 59.5948V67.7551H48.4726V59.5948ZM40.664 8.34515C40.5927 8.05096 40.7167 7.83566 40.797 7.73357C40.8773 7.63134 41.0574 7.46005 41.3601 7.46005H64.0239C64.3267 7.46005 64.5067 7.63134 64.587 7.73357C64.6673 7.83566 64.7913 8.05096 64.72 8.34515L61.821 20.3018H43.5631L40.664 8.34515ZM7.84927 46.166C8.1893 45.8179 8.66334 45.6182 9.14991 45.6182H38.6475V50.4695H3.6457L7.84927 46.166ZM2.1607 64.1716V52.6302H38.6477V67.755H35.2641V59.5947C35.2641 57.89 33.8773 56.5032 32.1725 56.5032H25.5953C23.8906 56.5032 22.5038 57.89 22.5038 59.5947V67.755H5.74425C3.76819 67.7551 2.1607 66.1475 2.1607 64.1716ZM24.6645 67.7551V59.5948C24.6645 59.0815 25.082 58.6639 25.5953 58.6639H32.1725C32.6857 58.6639 33.1034 59.0814 33.1034 59.5948V67.7551H24.6645ZM69.8238 23.095C67.2262 32.9396 67.4616 35.7883 65.8193 35.3042H39.728C39.2871 35.255 38.661 35.5036 38.413 34.913L35.5476 23.095C35.5445 22.8706 35.4826 22.6044 36.0451 22.4625H69.3263C69.545 22.5124 69.8186 22.5148 69.8238 23.095Z" fill="#EF7E20"/><path d="M62.3949 25.1934H43.4787C42.882 25.1934 42.3984 25.6771 42.3984 26.2736V31.492C42.3984 32.0886 42.882 32.5722 43.4787 32.5722H62.3949C62.9916 32.5722 63.4752 32.0885 63.4752 31.492V26.2736C63.4753 25.6771 62.9917 25.1934 62.3949 25.1934ZM61.3146 30.4117H44.5591V27.3541H61.3146V30.4117Z" fill="#EF7E20"/><path d="M17.5506 56.5029H6.95089C6.35422 56.5029 5.87061 56.9867 5.87061 57.5832C5.87061 58.1799 6.35422 58.6635 6.95089 58.6635H17.5505C18.1472 58.6635 18.6308 58.1797 18.6308 57.5832C18.6309 56.9865 18.1473 56.5029 17.5506 56.5029Z" fill="#EF7E20"/><path d="M47.3923 39.8701C46.7956 39.8701 46.312 40.3539 46.312 40.9504C46.312 41.5471 46.7956 42.0307 47.3923 42.0307H57.9919C58.5886 42.0307 59.0722 41.5469 59.0722 40.9504C59.0722 40.3537 58.5886 39.8701 57.9919 39.8701H47.3923Z" fill="#EF7E20"/><path d="M49.6715 12.7383C49.01 12.7383 48.4736 13.2746 48.4736 13.9361C48.4736 14.5976 49.01 15.134 49.6715 15.134C50.333 15.134 50.8693 14.5976 50.8693 13.9361C50.8693 13.2746 50.3331 12.7383 49.6715 12.7383Z" fill="#EF7E20"/><path d="M55.4893 12.7383C54.8278 12.7383 54.2915 13.2746 54.2915 13.9361C54.2915 14.5976 54.8277 15.134 55.4893 15.134C56.151 15.134 56.6872 14.5976 56.6872 13.9361C56.6872 13.2746 56.1508 12.7383 55.4893 12.7383Z" fill="#EF7E20"/><path d="M1.23798 15.8153L3.81071 17.9912C5.99631 19.8619 9.53682 20.1463 12.0972 18.6021L34.1378 4.66361C34.5263 4.40514 34.8521 3.74871 34.4256 3.10366C33.2078 1.4748 30.1074 -1.12072 27.0906 0.71655C24.592 2.23825 20.2963 5.13358 18.8694 6.10024L11.0525 3.09255C10.7894 2.99158 10.4976 2.99707 10.2387 3.10802L6.46614 4.72577C5.88156 5.0111 5.52353 5.81336 6.17434 6.52633L10.9024 10.7271L8.05056 13.3116L3.80579 12.7338C3.53973 12.6977 3.26931 12.7618 3.04782 12.9142L1.32334 14.1004C0.899918 14.4053 0.608121 15.1907 1.23798 15.8153ZM3.92814 14.9311C4.77779 14.9017 8.47848 15.9291 9.12873 15.2504L13.2457 11.5196C13.5905 11.1928 13.7958 10.4697 13.2378 9.91146L8.88137 6.04103L10.6866 5.26689L18.6208 8.31958C18.9522 8.44685 19.324 8.40368 19.6168 8.20427C19.6732 8.16574 25.2969 4.33863 28.2145 2.56183C29.558 1.74325 31.0122 2.71778 31.8882 3.52975L10.9422 16.7758C9.33587 17.7396 6.80546 17.692 5.20586 16.3414L3.71312 15.0789L3.92814 14.9311Z" fill="#EF7E20"/><path d="M10.951 31.876L6.34819 34.7058C5.83983 35.0183 5.68121 35.6837 5.99367 36.1919C6.19758 36.5238 6.55196 36.7066 6.91491 36.7066C7.10785 36.7066 7.30332 36.6548 7.47966 36.5464L12.0825 33.7166C12.5908 33.4042 12.7494 32.7387 12.437 32.2305C12.1246 31.7222 11.4592 31.5635 10.951 31.876Z" fill="#EF7E20"/><path d="M22.0503 19.6621C21.7308 19.1581 21.0631 19.0089 20.5595 19.3281L9.9229 26.0716C9.4189 26.3911 9.26956 27.0587 9.58892 27.5625C9.79451 27.887 10.1445 28.0646 10.5023 28.0646C10.7001 28.0646 10.9004 28.0103 11.0797 27.8965L21.7163 21.153C22.2203 20.8335 22.3698 20.166 22.0503 19.6621Z" fill="#EF7E20"/></svg>