<svg width="68" height="68" viewBox="0 0 68 68" fill="none" xmlns="http://www.w3.org/2000/svg"><path d="M66.6251 28.3746C66.9235 28.3746 67.2096 28.2561 67.4206 28.0451C67.6316 27.8342 67.7501 27.548 67.7501 27.2496V22.7496C67.7501 22.4513 67.6316 22.1651 67.4206 21.9541C67.2096 21.7432 66.9235 21.6246 66.6251 21.6246H54.2501V12.6246H55.3751C55.6735 12.6246 55.9596 12.5061 56.1706 12.2951C56.3816 12.0842 56.5001 11.798 56.5001 11.4996V6.99964C56.5001 6.70127 56.3816 6.41513 56.1706 6.20415C55.9596 5.99317 55.6735 5.87464 55.3751 5.87464H42.3363C41.6656 4.21308 40.5136 2.78987 39.0283 1.78767C37.5429 0.785463 35.7919 0.25 34.0001 0.25C32.2082 0.25 30.4573 0.785463 28.9719 1.78767C27.4866 2.78987 26.3346 4.21308 25.6638 5.87464H12.6251C12.3267 5.87464 12.0406 5.99317 11.8296 6.20415C11.6186 6.41513 11.5001 6.70127 11.5001 6.99964V11.4996C11.5001 11.798 11.6186 12.0842 11.8296 12.2951C12.0406 12.5061 12.3267 12.6246 12.6251 12.6246H13.7501V21.6246H1.37509C1.07672 21.6246 0.79057 21.7432 0.579592 21.9541C0.368613 22.1651 0.250087 22.4513 0.250087 22.7496V27.2496C0.250087 27.548 0.368613 27.8342 0.579592 28.0451C0.79057 28.2561 1.07672 28.3746 1.37509 28.3746H2.50009V64.1834L0.643837 65.7697C0.46905 65.9191 0.344273 66.1186 0.286313 66.3411C0.228353 66.5637 0.239995 66.7987 0.319672 67.0144C0.399348 67.2301 0.543231 67.4163 0.731936 67.5477C0.920642 67.6792 1.1451 67.7497 1.37509 67.7496H66.6251C66.8551 67.7497 67.0795 67.6792 67.2682 67.5477C67.4569 67.4163 67.6008 67.2301 67.6805 67.0144C67.7602 66.7987 67.7718 66.5637 67.7139 66.3411C67.6559 66.1186 67.5311 65.9191 67.3563 65.7697L65.5001 64.1834V28.3746H66.6251ZM42.9213 8.12464H54.2501V10.3746H42.9213C42.9703 10.0016 42.9966 9.62589 43.0001 9.24964C42.9966 8.87339 42.9703 8.4977 42.9213 8.12464ZM54.2501 28.3746H63.2501V62.2484L62.0126 61.1909C60.1772 59.6159 57.8386 58.7499 55.4201 58.7496H54.2501V28.3746ZM34.0001 2.49964C35.3351 2.49964 36.6402 2.89552 37.7502 3.63722C38.8602 4.37892 39.7254 5.43313 40.2363 6.66653C40.7472 7.89993 40.8808 9.25713 40.6204 10.5665C40.3599 11.8759 39.7171 13.0786 38.7731 14.0226C37.8291 14.9666 36.6263 15.6095 35.317 15.8699C34.0076 16.1304 32.6504 15.9967 31.417 15.4858C30.1836 14.9749 29.1294 14.1098 28.3877 12.9997C27.646 11.8897 27.2501 10.5847 27.2501 9.24964C27.2501 7.45943 27.9612 5.74254 29.2271 4.47667C30.493 3.2108 32.2099 2.49964 34.0001 2.49964ZM34.0001 18.2496C35.7917 18.2483 37.5421 17.7122 39.0272 16.7101C40.5123 15.708 41.6645 14.2855 42.3363 12.6246H52.0001V58.7496H47.5001V39.6246C47.5001 39.3263 47.3816 39.0401 47.1706 38.8292C46.9596 38.6182 46.6735 38.4996 46.3751 38.4996H21.6251C21.3267 38.4996 21.0406 38.6182 20.8296 38.8292C20.6186 39.0401 20.5001 39.3263 20.5001 39.6246V58.7496H16.0001V12.6246H25.6638C26.3357 14.2855 27.4879 15.708 28.973 16.7101C30.4581 17.7122 32.2085 18.2483 34.0001 18.2496ZM45.2501 40.7496V58.7496H35.1251V40.7496H45.2501ZM32.8751 40.7496V58.7496H22.7501V40.7496H32.8751ZM13.7501 8.12464H25.0788C25.0298 8.4977 25.0035 8.87339 25.0001 9.24964C25.0035 9.62589 25.0298 10.0016 25.0788 10.3746H13.7501V8.12464ZM2.50009 23.8746H13.7501V26.1246H2.50009V23.8746ZM13.7501 28.3746V58.7496H12.5801C10.1615 58.7499 7.82299 59.6159 5.98759 61.1909L4.75009 62.2484V28.3746H13.7501ZM4.41259 65.4996L7.45009 62.9009C8.87828 61.675 10.6979 61.0006 12.5801 60.9996H55.4201C57.3022 61.0006 59.1219 61.675 60.5501 62.9009L63.5876 65.4996H4.41259ZM54.2501 26.1246V23.8746H65.5001V26.1246H54.2501Z" fill="#EF7E20"/><path d="M7 32.875H11.5V35.125H7V32.875Z" fill="#EF7E20"/><path d="M7 39.625H11.5V41.875H7V39.625Z" fill="#EF7E20"/><path d="M7 46.375H11.5V48.625H7V46.375Z" fill="#EF7E20"/><path d="M7 52H11.5V54.25H7V52Z" fill="#EF7E20"/><path d="M56.5 32.875H61V35.125H56.5V32.875Z" fill="#EF7E20"/><path d="M56.5 39.625H61V41.875H56.5V39.625Z" fill="#EF7E20"/><path d="M56.5 46.375H61V48.625H56.5V46.375Z" fill="#EF7E20"/><path d="M56.5 52H61V54.25H56.5V52Z" fill="#EF7E20"/><path d="M37.375 48.625H39.625V50.875H37.375V48.625Z" fill="#EF7E20"/><path d="M28.375 48.625H30.625V50.875H28.375V48.625Z" fill="#EF7E20"/><path d="M38.5 8.125V10.375H35.125V13.75H32.875V10.375H29.5V8.125H32.875V4.75H35.125V8.125H38.5Z" fill="#EF7E20"/><path d="M47.5 20.5H20.5C20.2016 20.5 19.9155 20.6185 19.7045 20.8295C19.4935 21.0405 19.375 21.3266 19.375 21.625V26.125C19.375 26.4234 19.4935 26.7095 19.7045 26.9205C19.9155 27.1315 20.2016 27.25 20.5 27.25H47.5C47.7984 27.25 48.0845 27.1315 48.2955 26.9205C48.5065 26.7095 48.625 26.4234 48.625 26.125V21.625C48.625 21.3266 48.5065 21.0405 48.2955 20.8295C48.0845 20.6185 47.7984 20.5 47.5 20.5ZM46.375 25H21.625V22.75H46.375V25Z" fill="#EF7E20"/><path d="M47.5 29.5H20.5C20.2016 29.5 19.9155 29.6185 19.7045 29.8295C19.4935 30.0405 19.375 30.3266 19.375 30.625V35.125C19.375 35.4234 19.4935 35.7095 19.7045 35.9205C19.9155 36.1315 20.2016 36.25 20.5 36.25H47.5C47.7984 36.25 48.0845 36.1315 48.2955 35.9205C48.5065 35.7095 48.625 35.4234 48.625 35.125V30.625C48.625 30.3266 48.5065 30.0405 48.2955 29.8295C48.0845 29.6185 47.7984 29.5 47.5 29.5ZM46.375 34H21.625V31.75H46.375V34Z" fill="#EF7E20"/></svg>