<svg width="73" height="73" viewBox="0 0 73 73" fill="none" xmlns="http://www.w3.org/2000/svg"><path d="M71.8594 39.9219V37.6406H65.0156V30.7969H62.7344V33.0781H55.8906V30.7969H53.6094V37.6406H51.3281V3.42188H53.6094V1.14062H19.3906V3.42188H21.6719V21.6719H1.14062V23.9531H3.42188V69.5781H1.14062V71.8594H71.8594V69.5781H69.5781V39.9219H71.8594ZM55.8906 35.3594H62.7344V37.6406H55.8906V35.3594ZM62.7344 65.0156H55.8906V62.7344H62.7344V65.0156ZM62.7344 60.4531H55.8906V58.1719H62.7344V60.4531ZM62.7344 55.8906H55.8906V53.6094H62.7344V55.8906ZM62.7344 51.3281H55.8906V49.0469H62.7344V51.3281ZM62.7344 46.7656H55.8906V44.4844H62.7344V46.7656ZM55.8906 67.2969H62.7344V69.5781H55.8906V67.2969ZM62.7344 42.2031H55.8906V39.9219H62.7344V42.2031ZM53.6094 39.9219V69.5781H51.3281V39.9219H53.6094ZM49.0469 3.42188V69.5781H46.7656V59.3125C46.7656 58.6817 46.2546 58.1719 45.625 58.1719H27.375C26.7454 58.1719 26.2344 58.6817 26.2344 59.3125V69.5781H23.9531V3.42188H49.0469ZM37.6406 60.4531H44.4844V69.5781H37.6406V60.4531ZM35.3594 69.5781H28.5156V60.4531H35.3594V69.5781ZM5.70312 23.9531H21.6719V69.5781H5.70312V23.9531ZM67.2969 69.5781H65.0156V39.9219H67.2969V69.5781Z" fill="#EF7E20"/><path d="M27.375 23.9531H34.2188C34.8484 23.9531 35.3594 23.4433 35.3594 22.8125V6.84375C35.3594 6.21298 34.8484 5.70312 34.2188 5.70312H27.375C26.7454 5.70312 26.2344 6.21298 26.2344 6.84375V22.8125C26.2344 23.4433 26.7454 23.9531 27.375 23.9531ZM28.5156 7.98438H33.0781V21.6719H28.5156V7.98438Z" fill="#EF7E20"/><path d="M38.7812 39.9219H45.625C46.2546 39.9219 46.7656 39.412 46.7656 38.7812V22.8125C46.7656 22.1817 46.2546 21.6719 45.625 21.6719H38.7812C38.1516 21.6719 37.6406 22.1817 37.6406 22.8125V38.7812C37.6406 39.412 38.1516 39.9219 38.7812 39.9219ZM39.9219 23.9531H44.4844V37.6406H39.9219V23.9531Z" fill="#EF7E20"/><path d="M27.375 55.8906H34.2188C34.8484 55.8906 35.3594 55.3808 35.3594 54.75V38.7812C35.3594 38.1505 34.8484 37.6406 34.2188 37.6406H27.375C26.7454 37.6406 26.2344 38.1505 26.2344 38.7812V54.75C26.2344 55.3808 26.7454 55.8906 27.375 55.8906ZM28.5156 39.9219H33.0781V53.6094H28.5156V39.9219Z" fill="#EF7E20"/><path d="M18.25 26.2344H9.125C8.49538 26.2344 7.98438 26.7442 7.98438 27.375V36.5C7.98438 37.1308 8.49538 37.6406 9.125 37.6406H18.25C18.8796 37.6406 19.3906 37.1308 19.3906 36.5V27.375C19.3906 26.7442 18.8796 26.2344 18.25 26.2344ZM17.1094 35.3594H10.2656V28.5156H17.1094V35.3594Z" fill="#EF7E20"/><path d="M18.25 39.9219H9.125C8.49538 39.9219 7.98438 40.4317 7.98438 41.0625V50.1875C7.98438 50.8183 8.49538 51.3281 9.125 51.3281H18.25C18.8796 51.3281 19.3906 50.8183 19.3906 50.1875V41.0625C19.3906 40.4317 18.8796 39.9219 18.25 39.9219ZM17.1094 49.0469H10.2656V42.2031H17.1094V49.0469Z" fill="#EF7E20"/><path d="M18.25 53.6094H9.125C8.49538 53.6094 7.98438 54.1192 7.98438 54.75V63.875C7.98438 64.5058 8.49538 65.0156 9.125 65.0156H18.25C18.8796 65.0156 19.3906 64.5058 19.3906 63.875V54.75C19.3906 54.1192 18.8796 53.6094 18.25 53.6094ZM17.1094 62.7344H10.2656V55.8906H17.1094V62.7344Z" fill="#EF7E20"/></svg>