<svg width="101" height="101" viewBox="0 0 101 101" fill="none" xmlns="http://www.w3.org/2000/svg">
<path d="M54.8872 49.6707C54.612 49.2639 54.1532 49.0205 53.6622 49.0205H49.5222L51.8732 43.143C52.1768 42.3843 51.8077 41.5232 51.049 41.2198C50.2901 40.9156 49.4292 41.2853 49.1258 42.044L45.9633 49.9506C45.781 50.4065 45.8364 50.9231 46.1118 51.3295C46.387 51.7361 46.846 51.9795 47.3368 51.9795H51.4769L49.1258 57.8571C48.8223 58.6157 49.1913 59.4768 49.95 59.7802C50.1303 59.8524 50.3162 59.8865 50.499 59.8865C51.0863 59.8865 51.6418 59.5346 51.8732 58.9562L55.0358 51.0496C55.218 50.5937 55.1626 50.0771 54.8872 49.6707Z" fill="#EF7E20"/>
<path d="M10.2072 51.0377H2.14869L1.07422 65.543V73.0643L2.14869 81.66L5.90933 87.5696L10.2072 92.9419L17.1912 97.2398L25.2498 99.926L34.3827 98.8515L41.3668 96.1653L47.8136 90.793L53.1859 82.7345L55.3349 71.9898L55.8721 65.0058H61.7817L64.4678 62.8568L65.0051 38.6813L60.7072 35.9951H38.6806L35.9944 39.7558V61.7824L38.1434 64.4685L45.6646 65.0058V75.2132L44.0529 80.5855L38.1434 87.0324L32.2338 89.7185H25.2498L15.5795 84.3462L10.7444 75.2132V65.543V54.7983L10.2072 51.0377Z" fill="#EF7E20" fill-opacity="0.29"/>
<path d="M92.8424 8.47482C87.5879 3.13739 80.5837 0.129082 73.1202 0.00401524C65.6726 -0.123024 58.5629 2.7683 53.102 8.13848C47.4936 13.6536 44.2771 21.2843 44.2771 29.0733V34.7885H39.4315C36.8718 34.7885 34.7894 36.8711 34.7894 39.4306V61.5688C34.7894 64.1285 36.872 66.2108 39.4315 66.2108H44.2771V72.638C44.2771 77.1013 42.3773 81.3909 39.0644 84.4065C35.7091 87.4607 31.3613 88.9075 26.8242 88.4804C18.7624 87.7215 12.4475 80.5389 12.4475 72.1284C12.4475 71.3113 11.7851 70.6489 10.968 70.6489C10.1509 70.6489 9.48848 71.3113 9.48848 72.1284C9.48848 76.8999 11.2084 81.5027 14.3314 85.089C17.5046 88.7329 21.8429 90.9835 26.5469 91.4262C27.1647 91.4844 27.779 91.5132 28.3893 91.5132C33.0923 91.5132 37.5344 89.8005 41.0564 86.5945C44.9837 83.0193 47.2363 77.9324 47.2363 72.638V66.2108H53.7652V71.926C53.7652 78.9272 50.8709 85.7887 45.8245 90.7511C40.9337 95.5607 34.5819 98.1482 27.9307 98.0368C21.2475 97.9249 14.9745 95.23 10.2677 90.4487C5.5552 85.6619 2.96016 79.3365 2.96016 72.6378V52.0811C2.96016 52.0248 3.00573 51.9793 3.06195 51.9793H9.38709C9.44331 51.9793 9.48888 52.0248 9.48888 52.0811V65.7198C9.48888 66.5369 10.1513 67.1993 10.9684 67.1993C11.7854 67.1993 12.4479 66.5369 12.4479 65.7198V52.0811C12.4479 50.3933 11.0749 49.0203 9.38709 49.0203H7.70382V41.0119C7.70382 40.1948 7.0414 39.5324 6.22432 39.5324C5.40725 39.5324 4.74483 40.1948 4.74483 41.0119V49.0203H3.06176C1.37395 49.0203 0.000976562 50.3933 0.000976562 52.0811V72.6378C0.000976562 80.1183 2.89822 87.181 8.15891 92.5245C13.4135 97.862 20.4176 100.87 27.8812 100.995C28.0358 100.998 28.1895 100.999 28.3438 100.999C35.6229 100.999 42.5516 98.1198 47.8991 92.8609C53.5076 87.3457 56.724 79.7151 56.724 71.926V66.2108H61.5697C64.1294 66.2108 66.2117 64.1283 66.2117 61.5688V39.4308C66.2117 36.8711 64.1292 34.7887 61.5697 34.7887H56.724V28.3616C56.724 23.8983 58.6239 19.6087 61.9368 16.5931C65.2921 13.5388 69.6396 12.0925 74.1769 12.5192C82.2388 13.278 88.5537 20.4607 88.5537 28.8711C88.5537 29.6882 89.2161 30.3506 90.0332 30.3506C90.8503 30.3506 91.5127 29.6882 91.5127 28.8711C91.5127 24.0997 89.7927 19.4969 86.6698 15.9106C83.4966 12.2667 79.1583 10.0161 74.4543 9.57339C69.0758 9.06721 63.9238 10.783 59.9448 14.405C56.0174 17.9803 53.7648 23.0672 53.7648 28.3616V34.7887H47.2357V29.0735C47.2357 22.0724 50.13 15.2109 55.1765 10.2484C60.0673 5.43889 66.4198 2.85293 73.0703 2.96281C79.7534 3.07466 86.0265 5.76951 90.7333 10.5508C95.4458 15.3377 98.0408 21.663 98.0408 28.3618V48.9185C98.0408 48.9747 97.9952 49.0203 97.939 49.0203H91.6139C91.5576 49.0203 91.5121 48.9747 91.5121 48.9185V35.2797C91.5121 34.4626 90.8497 33.8002 90.0326 33.8002C89.2155 33.8002 88.5531 34.4626 88.5531 35.2797V48.9185C88.5531 50.6063 89.9261 51.9793 91.6139 51.9793H93.2969V59.9877C93.2969 60.8048 93.9594 61.4672 94.7764 61.4672C95.5935 61.4672 96.2559 60.8048 96.2559 59.9877V51.9793H97.939C99.6268 51.9793 101 50.6063 101 48.9185V28.3616C101 20.8811 98.1031 13.8188 92.8424 8.47482ZM61.5697 37.7477C62.4976 37.7477 63.2527 38.5028 63.2527 39.4308V61.569C63.2527 62.4971 62.4976 63.252 61.5697 63.252H39.4315C38.5034 63.252 37.7484 62.4969 37.7484 61.569V39.4308C37.7484 38.5027 38.5035 37.7477 39.4315 37.7477H61.5697Z" fill="#EF7E20"/>
<path d="M4.38438 35.6068L2.8031 32.4443C2.43776 31.7134 1.54908 31.4169 0.818209 31.7826C0.0873382 32.148 -0.208955 33.0367 0.156579 33.7675L1.73786 36.9301C1.99707 37.4485 2.51943 37.7482 3.06231 37.7482C3.28463 37.7482 3.5103 37.6979 3.72275 37.5917C4.45362 37.2264 4.74992 36.3377 4.38438 35.6068Z" fill="#EF7E20"/>
<path d="M11.6279 31.7826C10.8971 31.4169 10.0084 31.7136 9.64305 32.4442L8.06177 35.6068C7.69643 36.3377 7.99253 37.2264 8.7234 37.5917C8.93585 37.698 9.16152 37.7481 9.38384 37.7481C9.92652 37.7481 10.4491 37.4483 10.7083 36.9301L12.2896 33.7675C12.6551 33.0366 12.3588 32.1479 11.6279 31.7826Z" fill="#EF7E20"/>
<path d="M100.843 67.2328L99.2621 64.0702C98.8967 63.3394 98.0083 63.0429 97.2772 63.4086C96.5463 63.774 96.25 64.6626 96.6156 65.3935L98.1968 68.5561C98.4561 69.0745 98.9784 69.3741 99.5213 69.3741C99.7436 69.3741 99.9693 69.3238 100.182 69.2177C100.913 68.8524 101.209 67.9637 100.843 67.2328Z" fill="#EF7E20"/>
<path d="M92.2755 63.4096C91.5446 63.0438 90.6561 63.3405 90.2906 64.0712L88.7093 67.2338C88.3438 67.9646 88.6401 68.8533 89.3709 69.2186C89.5834 69.325 89.8091 69.3751 90.0314 69.3751C90.5741 69.3751 91.0966 69.0752 91.3558 68.557L92.9371 65.3944C93.3026 64.6636 93.0063 63.7749 92.2755 63.4096Z" fill="#EF7E20"/>
</svg>
