<svg width="99" height="98" viewBox="0 0 99 98" fill="none" xmlns="http://www.w3.org/2000/svg">
<path fill-rule="evenodd" clip-rule="evenodd" d="M60.6355 26.0215C62.7011 24.4393 65.6641 24.8227 67.2543 26.8771L67.91 27.7246L92.9393 2.6952C93.5251 2.10941 94.4749 2.10941 95.0607 2.6952C95.6464 3.28099 95.6464 4.23073 95.0607 4.81652L69.7606 30.1166L97.9634 66.5721C99.5508 68.6279 99.1662 71.5745 97.1027 73.1581L79.648 86.525C78.8262 87.1577 77.8165 87.5016 76.7772 87.5016C76.5705 87.5009 76.3638 87.488 76.1585 87.4615C74.9161 87.3039 73.7882 86.6575 73.0277 85.6672L71.3618 83.5139C71.3092 86.5615 71.055 89.6019 70.6012 92.6165C70.4738 93.3703 69.8184 93.9221 69.0499 93.9221H6.11569C6.06397 93.9221 6.01284 93.9196 5.9624 93.9148L2.56066 97.3165C1.97487 97.9023 1.02513 97.9023 0.43934 97.3165C-0.146447 96.7307 -0.146447 95.781 0.43934 95.1952L4.54199 91.0925V1.5657C4.54199 0.700804 5.24637 0 6.11569 0H24.9957C36.255 0 37.6508 8.42757 39.1482 23.3243C39.4759 28.791 41.1231 34.0986 43.9485 38.7986L60.6355 26.0215ZM9.08577 90.7914H59.9304C60.6484 87.7073 61.0683 84.5623 61.1828 81.3993C61.1828 80.5344 61.8872 79.8336 62.7565 79.8336C63.6251 79.8336 64.3295 80.5344 64.3295 81.3993C64.2352 84.5601 63.8397 87.7044 63.1498 90.7914H67.6807C68.1453 87.0151 68.3138 83.2087 68.1849 79.4066L47.372 52.5052L9.08577 90.7914ZM45.5213 50.1132L7.68867 87.9459V3.13069H24.9957C32.8412 3.13069 34.3954 7.49961 36.0166 23.6382C36.765 31.0231 38.5634 36.4834 41.7756 41.1905C41.0561 42.7627 41.2649 44.6007 42.3186 45.9736L45.5213 50.1132ZM49.6116 50.2656L75.5218 83.7583C76.0519 84.4433 77.0394 84.5716 77.7286 84.0449L95.1819 70.6788H95.1826C95.8704 70.1514 95.9993 69.169 95.4714 68.4832L67.5212 32.356L57.8836 41.9935C59.1141 41.2291 60.5785 40.9078 62.029 41.0956C63.6848 41.3098 65.1865 42.1697 66.2042 43.486L68.1236 45.9654C69.5007 44.9113 71.4763 45.1664 72.5364 46.5358L85.0115 62.6621C86.5982 64.718 86.2136 67.6638 84.1523 69.2488L84.1508 69.2503C82.0838 70.8274 79.1236 70.4434 77.5327 68.3911L65.0554 52.2669C64.5462 51.6083 64.3208 50.7764 64.4288 49.9531C64.5361 49.129 64.9683 48.3816 65.6302 47.8757L63.71 45.395C63.203 44.735 62.4518 44.3044 61.6236 44.199C60.796 44.093 59.9598 44.3173 59.2979 44.8224L58.0519 45.7776C57.6076 46.1309 57.0062 46.2176 56.479 46.0055C55.9525 45.7934 55.5816 45.3147 55.5088 44.7529C55.4923 44.6242 55.4921 44.4957 55.5071 44.3701L49.6116 50.2656ZM65.6706 29.964L47.761 47.8735L44.8128 44.0625C44.2827 43.3775 44.4109 42.3951 45.0987 41.8677L62.5541 28.5008C63.2434 27.9748 64.2308 28.1031 64.7609 28.7882L65.6706 29.964ZM82.2314 66.7681C81.5429 67.2948 80.5547 67.1672 80.0246 66.4822L67.5496 50.3572L70.043 48.4468L82.5173 64.5711C83.0482 65.2568 82.92 66.24 82.2314 66.7681ZM31.2581 13.7804C31.7939 16.7062 32.0964 19.6699 32.1634 22.6437C32.3507 26.7202 32.5134 30.2422 34.2701 33.7369C34.5214 34.237 34.4854 34.8325 34.1757 35.2997C33.866 35.7662 33.3295 36.0335 32.7684 35.9998C32.2073 35.9661 31.7068 35.6372 31.4554 35.1371C29.4006 31.0483 29.2155 27.0355 29.0196 22.7856C28.9577 19.9709 28.6746 17.1655 28.1733 14.3953C26.9014 8.06795 15.8661 9.36566 15.7509 9.37927C15.1891 9.45666 14.6295 9.22736 14.2852 8.77879C13.9409 8.33021 13.866 7.7326 14.0886 7.2138C14.3111 6.695 14.7973 6.336 15.3605 6.27295C15.9331 6.19699 29.4201 4.63129 31.2581 13.7804Z" fill="#EF7E20"/>
<path d="M28.5 1.75586H6.5V92.7559H68.5L69.5 87.7559V78.2559L42.5 43.2559L43.5 40.7559L40.5 35.2559L38.5 31.2559L37.5 23.2559L37 16.2559L33 4.75586L28.5 1.75586Z" fill="#EF7E20" fill-opacity="0.29"/>
</svg>
