<svg width="101" height="101" viewBox="0 0 101 101" fill="none" xmlns="http://www.w3.org/2000/svg">
<g clip-path="url(#clip0)">
<path d="M89.8633 50.3695H70.2936C69.8244 50.3719 69.3591 50.2766 68.9281 50.0908L52.3617 39.8153C50.9854 39.1353 49.4169 38.9503 47.9203 39.2907L47.9094 34.9539C47.9094 34.2622 47.8946 33.5049 47.879 32.7039C47.8087 29.0479 47.7111 24.0413 49.1687 21.2441C50.823 18.0721 54.3064 18.4094 55.7258 18.7014C58.7759 19.3275 61.2414 21.7289 63.6248 24.0499C64.3165 24.7221 65.0004 25.3872 65.6906 26.0079C68.1123 28.186 70.4825 28.9714 72.7192 28.3516C73.9808 28.0276 75.041 27.175 75.6288 26.0134C76.415 24.0148 76.3986 21.7898 75.582 19.8037C74.3422 16.5193 72.606 13.4449 70.4349 10.6875C66.3354 5.28275 60.3584 1.61269 53.6842 0.402615C52.2579 0.166064 50.8144 0.0466176 49.3685 0.0450561H39.6223C36.9929 -0.201644 34.369 0.571246 32.2931 2.20368C31.8677 2.587 31.475 2.98438 31.0885 3.37707C30.311 4.31859 29.3202 5.06025 28.1976 5.54116C26.3684 5.87061 24.4854 5.71604 22.7343 5.09382C20.5803 2.19744 16.8104 1.01078 13.3854 2.1506C9.96053 3.29041 7.65435 6.49986 7.66606 10.1098V20.1745C7.66294 24.1444 10.4446 27.5716 14.3301 28.3851C18.2156 29.1978 22.1386 27.1735 23.7266 23.5354C25.0202 23.5948 26.2599 24.0726 27.2576 24.8978C29.5014 26.5692 30.9144 29.1283 31.1338 31.917C31.1338 35.0062 31.1338 43.3183 31.1494 48.6926H26.1061C23.3081 48.6801 20.7989 50.4133 19.8192 53.0333C18.8394 55.6541 19.5959 58.6082 21.7155 60.4351C20.2439 61.6928 19.396 63.5313 19.396 65.4674C19.396 67.4036 20.2439 69.2421 21.7155 70.4998C20.2439 71.7575 19.396 73.5968 19.396 75.5322C19.396 77.4683 20.2439 79.3068 21.7155 80.5645C19.5959 82.3914 18.8394 85.3455 19.8192 87.9663C20.7989 90.5863 23.3081 92.3195 26.1061 92.307H28.7636C28.6254 93.0377 28.4849 93.7208 28.3647 94.2884C27.9251 95.9357 28.2655 97.6938 29.2875 99.0585C30.3359 100.336 31.9192 101.052 33.5704 100.997L46.1185 100.98C47.7697 101.037 49.3529 100.322 50.403 99.046C51.4304 97.6954 51.7731 95.945 51.332 94.3071C51.1868 93.6248 51.0705 92.9417 50.9393 92.2602C51.0822 92.2523 51.2274 92.2555 51.3703 92.2453C56.1169 91.8292 60.6457 90.0672 64.4258 87.1669L72.8511 80.9166C73.3156 80.6856 73.8262 80.5653 74.3446 80.5645H89.8633C91.7159 80.563 93.2164 79.0617 93.2187 77.2099V53.725C93.2164 51.8724 91.7159 50.3719 89.8633 50.3695ZM16.0531 25.2077C13.2754 25.2046 11.0238 22.953 11.0207 20.1745V10.1098C11.0207 7.33052 13.2738 5.07743 16.0531 5.07743C18.8331 5.07743 21.0862 7.33052 21.0862 10.1098V20.1745C21.0831 22.953 18.8316 25.2046 16.0531 25.2077ZM29.2984 22.234C27.9041 21.1098 26.2178 20.408 24.4378 20.2089L24.4409 20.1745V10.1098C24.43 9.7054 24.3894 9.30178 24.3191 8.90284C25.9742 9.22136 27.6808 9.15501 29.3054 8.70767C30.916 8.06593 32.347 7.04478 33.4775 5.73165C33.8186 5.38502 34.1637 5.03371 34.5455 4.68942C36.0186 3.64329 37.8283 3.18346 39.6223 3.39971H49.3685C50.6301 3.40205 51.8902 3.50667 53.1346 3.71277C58.9805 4.78545 64.2104 8.01206 67.7922 12.7548C69.7525 15.2437 71.3202 18.0175 72.4405 20.9818C72.9315 22.088 73.0018 23.3364 72.6388 24.491C72.4772 24.8142 72.1766 25.0461 71.8222 25.1187C70.7417 25.4193 69.4699 24.8931 67.9343 23.5128C67.2762 22.921 66.6258 22.2871 65.9669 21.6454C63.3633 19.1112 60.4138 16.239 56.4011 15.4146C52.4187 14.3029 48.1936 16.0735 46.1942 19.6936C44.3401 23.2497 44.4423 28.528 44.5251 32.7687C44.5399 33.5463 44.5548 34.2825 44.5548 34.9531L44.5688 40.5062L36.4105 43.7687C35.7274 44.0475 35.0834 44.4152 34.4955 44.8609C34.4892 39.923 34.4892 34.3286 34.4892 31.917C34.266 28.0838 32.3673 24.5418 29.2984 22.234ZM22.7515 55.4027C22.753 53.5501 24.2543 52.0488 26.1061 52.0473H31.1385V58.7573H26.1061C24.2543 58.7558 22.753 57.2545 22.7515 55.4027ZM22.7515 65.4674C22.753 63.6148 24.2543 62.1143 26.1061 62.112H31.1385V67.0655C31.1471 67.6667 31.2634 68.2615 31.4812 68.8221H26.1061C24.2543 68.8205 22.753 67.3192 22.7515 65.4674ZM22.7515 75.5322C22.753 73.6804 24.2543 72.1791 26.1061 72.1775H37.8486C39.702 72.1775 41.204 73.6796 41.204 75.5322C41.204 77.3855 39.702 78.8876 37.8486 78.8876H26.1061C24.2543 78.8853 22.753 77.3848 22.7515 75.5322ZM22.7515 85.5977C22.753 83.7451 24.2543 82.2438 26.1061 82.2423H37.8486C39.702 82.2423 41.204 83.7443 41.204 85.5977C41.204 87.4503 39.702 88.9523 37.8486 88.9523H26.1061C24.2543 88.9508 22.753 87.4495 22.7515 85.5977ZM47.7751 96.9615C47.352 97.4221 46.7431 97.6657 46.1185 97.6251L33.5711 97.6415C32.9466 97.6883 32.3353 97.4416 31.9184 96.9748C31.5296 96.401 31.4273 95.6804 31.6389 95.0207C31.8029 94.2494 31.9957 93.3063 32.1745 92.307H47.5347C47.7025 93.2126 47.8618 94.1128 48.0585 95.0379C48.2623 95.6882 48.1577 96.3971 47.7751 96.9615ZM89.8633 77.2099H74.3446C73.2344 77.2107 72.1415 77.4855 71.1633 78.0117C71.0922 78.0499 71.0243 78.0929 70.9595 78.1413L62.4273 84.4712C59.1593 86.9905 55.2409 88.5261 51.1321 88.8977C50.6208 88.9344 50.1055 88.9523 49.591 88.9523H43.625C45.2769 86.1941 44.6906 82.6459 42.24 80.5645C43.7834 79.2428 44.636 77.2856 44.5532 75.255C44.4705 73.2237 43.4618 71.343 41.8161 70.15C44.5142 68.2225 46.1357 65.1271 46.1856 61.8114C49.0539 65.85 53.9583 70.4998 61.3335 70.4998C62.2602 70.4998 63.0112 69.7488 63.0112 68.8221C63.0112 67.8962 62.2602 67.1451 61.3335 67.1451C50.9167 67.1451 46.1755 54.9343 46.1287 54.8109C45.8437 54.0521 45.056 53.6055 44.2581 53.7515C43.4602 53.8967 42.881 54.5915 42.881 55.4027V60.4351C42.881 65.2121 40.7044 68.0031 36.4098 68.7315C35.9398 68.8119 35.4589 68.6784 35.0982 68.3677C34.7149 68.0437 34.4939 67.5675 34.4939 67.0655V52.2924C34.4947 52.2713 34.5064 52.2534 34.5064 52.2315L34.5041 51.4235C34.5478 49.4147 35.7907 47.627 37.6581 46.8853L46.8781 43.1973L46.9195 43.1801L48.1171 42.7015C48.9563 42.3565 49.9002 42.3705 50.7285 42.7406L67.2933 53.0153C68.2255 53.4806 69.2521 53.7234 70.2936 53.725H89.8633V77.2099Z" fill="#EF7E20"/>
<path d="M17 3.5L22 7H27L31.5 5.5L34 2H37.5H44.5H53L61 4.5L67.5 10L73 17L75 23.5L73 26L70 27L63.5 21.5L57 17H51L46.5 21.5V30V41.5L38.5 44.5L32.5 48V39V30L28 23.5L22 21.5V24.5L15.5 27L10 23.5L9 16L10 7L13.5 3.5H17Z" fill="#EF7E20" fill-opacity="0.29"/>
<path d="M49 94V90.5H31.5L29.5 94L31.5 99H44.5L49 97.5V94Z" fill="#EF7E20" fill-opacity="0.29"/>
</g>
<defs>
<clipPath id="clip0">
<rect width="101" height="101" fill="white"/>
</clipPath>
</defs>
</svg>
