<svg width="101" height="101" viewBox="0 0 101 101" fill="none" xmlns="http://www.w3.org/2000/svg">
<path d="M36.7439 63.2703C36.2203 62.0147 34.9905 61.1982 33.6301 61.2022C32.2688 61.2061 31.0446 62.0296 30.5279 63.2883L26.1663 74.1039L24.8826 77.1927C23.67 80.1351 23.9143 83.476 25.5401 86.2118C27.0305 88.7731 29.6536 90.4686 32.6007 90.7754C32.9459 90.8114 33.2927 90.8294 33.6395 90.8294C33.9854 90.8294 34.3314 90.8114 34.6751 90.7762C37.6238 90.4701 40.2492 88.7746 41.7396 86.2118C43.3662 83.4768 43.6097 80.1351 42.3972 77.1927L36.7439 63.2703ZM38.8488 84.4897C37.8985 86.1351 36.2195 87.2279 34.3307 87.4298C33.8704 87.4776 33.4062 87.4776 32.9459 87.4298C31.0579 87.2271 29.3804 86.1343 28.4301 84.4897C27.3459 82.669 27.1823 80.4436 27.9886 78.4835L33.6324 64.5462L38.0073 75.3954L39.2911 78.4835C40.0974 80.4436 39.9338 82.669 38.8488 84.4897Z" fill="#EF7E20"/>
<path d="M76.5 24.5L50.5 51.5L41 44.5L26.5 34.5L28 32L34 27.5L38 29.5L43 31L38.5 24.5V20.5L45 15L51 8.5L57 3L60.5 2L67 12L76.5 24.5Z" fill="#EF7E20" fill-opacity="0.29"/>
<path d="M26.5 76.5L33 63L37 67L41 78.5V85.5L34 89.5L29.5 87.5L26.5 83.5V76.5Z" fill="#EF7E20" fill-opacity="0.29"/>
<path d="M10.0916 57.1895C9.16321 57.1895 8.41016 57.9425 8.41016 58.8717V60.5539C8.41016 61.4823 9.16321 62.2354 10.0916 62.2354C11.0208 62.2354 11.7738 61.4823 11.7738 60.5539V58.8717C11.7738 57.9425 11.0208 57.1895 10.0916 57.1895Z" fill="#EF7E20"/>
<path d="M10.0916 65.5996C9.16319 65.5996 8.41016 66.3526 8.41016 67.2818V89.147C8.41016 90.0762 9.16319 90.8292 10.0916 90.8292C11.0207 90.8292 11.7737 90.0762 11.7737 89.147V67.2818C11.7737 66.3526 11.0207 65.5996 10.0916 65.5996Z" fill="#EF7E20"/>
<path d="M91.5158 54.6267C87.3953 52.507 83.8305 50.6275 82.5397 46.489L90.2094 38.8194C90.8403 38.1884 91.1949 37.3329 91.1949 36.4405C91.1949 35.5481 90.8403 34.6926 90.2094 34.0616L79.5065 23.3572C78.7222 22.5729 77.6012 22.2269 76.5108 22.4312L61.8158 1.4387C61.2451 0.623829 60.3442 0.102501 59.3532 0.0156126C58.3622 -0.0704927 57.3845 0.284887 56.6808 0.988602L37.5881 20.0813C36.5298 21.1451 36.3012 22.7803 37.0261 24.0938L39.4973 28.5431L35.0488 26.0703C33.7345 25.347 32.1008 25.5764 31.0355 26.6331L26.2151 31.4542C26.0069 31.6679 25.8277 31.909 25.6836 32.1705C18.3655 32.572 0 34.1955 0 40.37V47.098C0.0547944 48.3097 0.678666 49.4236 1.68218 50.1046V92.8269C1.69236 92.9224 1.71115 93.0164 1.73933 93.1087L1.74324 93.1314C1.76594 93.2817 1.80899 93.4281 1.87083 93.5659C3.88805 99.3373 22.4257 100.921 33.639 100.921C45.509 100.921 65.5966 99.1494 65.5966 92.5107V63.4322L71.7155 57.3132C75.8533 58.604 77.7335 62.168 79.8533 66.2893C80.9601 68.6666 82.3433 70.9045 83.9738 72.9577C85.4548 74.6806 87.5918 75.6998 89.8618 75.7671C89.9652 75.7703 90.0685 75.7726 90.1718 75.7726C92.4246 75.7703 94.5851 74.8763 96.1796 73.285L98.5131 70.9531C100.18 69.2818 101.078 66.9946 100.994 64.6353C100.928 62.3652 99.908 60.2283 98.1859 58.748C96.1319 57.1167 93.8931 55.7336 91.5158 54.6267ZM87.8321 36.4389L61.6663 62.6055L50.9626 51.9011L77.1284 25.736L87.8321 36.4389ZM4.35614 47.8792C3.97415 47.6905 3.63599 47.4228 3.36515 47.0941L3.36359 47.0949V44.4632C4.02738 44.7888 4.71074 45.0722 5.40976 45.3133L5.48334 45.3383L5.48882 45.3407C11.434 47.4941 21.9443 48.7802 33.639 48.7802C36.9822 48.7802 40.3239 48.6581 43.5928 48.4381L47.6593 51.285C47.6499 51.3336 47.6522 51.3837 47.6452 51.433C42.9916 51.9097 38.3169 52.1469 33.639 52.1438C20.6003 52.1438 8.56748 50.3943 4.35614 47.8792ZM34.4844 42.0616L39.1223 45.3078C37.3024 45.3767 35.4715 45.4158 33.639 45.4158C26.6159 45.4769 19.6007 44.914 12.6763 43.7336C19.6007 42.554 26.6159 41.9912 33.639 42.0522C33.9263 42.0569 34.2042 42.0593 34.4836 42.0616H34.4844ZM33.4143 29.0112L43.0096 34.3419C43.6663 34.7074 44.4851 34.5924 45.0166 34.0616C45.5473 33.5301 45.6624 32.7106 45.2969 32.0546L39.9669 22.4593L47.282 15.1443L57.9958 28.0014C58.3755 28.4789 58.9845 28.7129 59.5856 28.6135C60.1876 28.5141 60.6886 28.0969 60.8944 27.5231C61.1011 26.9493 60.9805 26.3083 60.5798 25.8488L49.6702 12.7561L59.0596 3.36667L73.7507 24.3552L49.581 48.525L28.5932 33.8331L33.4143 29.0112ZM25.7001 35.545C25.9435 35.9575 26.2723 36.3137 26.6645 36.5892L29.7369 38.7387C19.9631 38.983 11.3502 40.1399 6.02346 41.9458C5.0309 41.6491 4.12053 41.127 3.36359 40.4193V40.4107C3.8763 39.0706 10.926 36.3528 25.7001 35.545ZM33.639 97.5573C15.834 97.5573 5.57884 94.2649 5.04577 92.4919V51.9003C10.8461 54.1242 21.5459 55.5073 33.639 55.5073C38.7646 55.5144 43.8855 55.2373 48.9798 54.676L59.2874 64.9836C59.9168 65.6169 60.7731 65.9715 61.6663 65.9691C61.8565 65.9668 62.0459 65.948 62.233 65.9136V92.488C61.7164 94.2602 51.4604 97.5573 33.639 97.5573ZM96.1342 68.575L93.8015 70.9077C92.791 71.912 91.4102 72.4536 89.9863 72.4051C88.6517 72.3691 87.3937 71.7726 86.5209 70.7621C85.0673 68.9069 83.8337 66.8897 82.8442 64.7504C80.8967 60.9633 78.7308 56.752 74.3394 54.6893L79.9151 49.1128C81.9777 53.505 86.1883 55.6702 89.9761 57.6185C92.1154 58.6079 94.1327 59.8416 95.9878 61.2952C96.9984 62.168 97.5949 63.4251 97.6317 64.7597C97.6818 66.1844 97.1401 67.5652 96.1342 68.575Z" fill="#EF7E20"/>
<path d="M58.0993 49.5225L56.9103 50.7115C56.4742 51.1343 56.3005 51.7589 56.4547 52.346C56.6089 52.9331 57.0668 53.3919 57.6539 53.5461C58.241 53.7003 58.8657 53.5257 59.2884 53.0905L60.4783 51.9014C61.1209 51.2415 61.1139 50.1886 60.4634 49.5373C59.8121 48.8868 58.7585 48.8798 58.0993 49.5225Z" fill="#EF7E20"/>
<path d="M75.9373 31.6827L62.8556 44.7652C62.4196 45.1879 62.2458 45.8126 62.4 46.3997C62.5542 46.9868 63.0129 47.4455 63.6 47.5997C64.1871 47.7539 64.8117 47.5793 65.2344 47.1441L78.3162 34.0608C78.7514 33.6381 78.926 33.0134 78.7717 32.4264C78.6175 31.8393 78.1588 31.3806 77.5717 31.2271C76.9847 31.0729 76.36 31.2467 75.9373 31.6827Z" fill="#EF7E20"/>
</svg>
