<svg width="103" height="103" viewBox="0 0 103 103" fill="none" xmlns="http://www.w3.org/2000/svg">
<g clip-path="url(#clip0)">
<path d="M56.1814 12.4848L60.0829 22.6287L67.8859 16.3863L71.7874 14.0454L78.0299 10.1439H82.7117L85.8329 14.0454V17.9469L79.5905 24.1893L84.2723 20.2878L88.1738 21.8484L90.5147 24.1893V29.6515L84.2723 34.3333L90.5147 31.2121L93.6359 32.7727L95.9768 36.6742L95.1965 40.5757L88.9541 45.2575L94.4162 42.1363L97.5374 42.9166L100.659 45.2575V49.9393L97.5374 53.0606L93.6359 56.9621L79.5905 65.5454L73.348 69.4469L67.8859 71.0075H64.7647L60.0829 72.5681L57.742 74.909L54.6208 72.5681L37.4541 45.2575L39.0147 39.7954L40.5753 31.2121L42.9162 24.1893L42.1359 16.3863L40.5753 12.4848L39.0147 8.58327V4.68176L42.1359 1.56055H45.2571L49.939 5.46206L56.1814 12.4848Z" fill="#EF7E20" fill-opacity="0.29"/>
<path d="M101.175 44.125C100.107 42.5124 98.4886 41.4013 96.6066 40.9801C97.8207 38.658 97.7712 35.7606 96.2246 33.4259C95.1245 31.7639 93.4648 30.6904 91.6582 30.2842C91.9804 29.6697 92.2185 29.0064 92.3607 28.307C92.7552 26.3621 92.3702 24.3802 91.2739 22.7261C90.206 21.1128 88.5872 20.0016 86.7051 19.5812C87.9192 17.2591 87.8697 14.3617 86.3232 12.0262C84.0624 8.61182 79.4433 7.67275 76.0281 9.93437L68.6334 14.8316C64.6917 12.8325 60.4993 11.4141 56.1482 10.6062C54.773 8.5183 53.1738 6.57731 51.3837 4.8422L48.3245 1.87727C46.0841 -0.294759 42.5707 -0.620878 39.9696 1.10244C36.8923 3.1401 36.0467 7.30184 38.0844 10.3791C38.1645 10.5009 38.2431 10.6235 38.3209 10.7461C28.293 12.7751 19.1538 18.0968 12.3894 25.8945C5.04894 34.3571 1.00586 45.1953 1.00586 56.4122C1.00586 58.5622 1.15281 60.7162 1.44357 62.8127C3.68396 79.1116 14.541 93.1575 29.7766 99.4701C35.4267 101.812 41.4218 103 47.5929 103C57.3662 103 66.7215 100.007 74.6482 94.3449C82.4027 88.8048 88.2045 81.1595 91.4272 72.2356C91.7281 71.4042 91.2967 70.4856 90.4653 70.1854C89.6331 69.8852 88.7153 70.3158 88.4151 71.148C85.414 79.4582 80.0099 86.5778 72.7858 91.7383C65.406 97.0104 56.6944 99.797 47.5929 99.797C42.8874 99.797 38.2926 99.0544 33.8951 97.5896L46.9257 88.9604C46.9265 88.9596 46.9273 88.9596 46.9281 88.9588C46.9289 88.9588 46.9289 88.958 46.9297 88.9573L57.7592 81.7858H57.7599C58.732 81.1414 59.396 80.1575 59.6286 79.0142C59.8612 77.8708 59.6349 76.7046 58.9905 75.7326L58.8475 75.5157L60.9512 74.1224C62.4521 73.1283 64.2572 72.7385 66.0347 73.0238C68.6083 73.4371 71.222 72.8713 73.394 71.4325L90.8425 59.8777C90.7231 61.3912 90.5266 62.896 90.2524 64.3758C90.0905 65.2457 90.6649 66.0818 91.5348 66.2429C91.6331 66.2617 91.7321 66.2704 91.8287 66.2704C92.5855 66.2704 93.2581 65.7313 93.4012 64.9604C93.8452 62.5723 94.1006 60.126 94.1666 57.6766L99.0835 54.4201C100.738 53.3247 101.867 51.6501 102.261 49.7059C102.657 47.761 102.271 45.7791 101.175 44.125ZM65.5239 16.8905L60.6306 20.1313L59.6671 17.5357C59.2648 16.4528 58.8035 15.3912 58.2927 14.3523C60.7752 14.9817 63.1924 15.8304 65.5239 16.8905ZM14.8089 27.9935C21.3101 20.499 30.1656 15.4611 39.8533 13.7142C41.4076 17.4799 41.7801 21.6872 40.8513 25.6973L36.9465 42.5667C36.3328 41.9113 35.5359 41.4594 34.6385 41.2771C33.4944 41.0437 32.329 41.2708 31.3569 41.9152L20.2964 49.2391C20.2956 49.2391 20.2956 49.2391 20.2948 49.2399C20.2948 49.2399 20.294 49.2399 20.294 49.2407L4.3417 59.8046C4.25447 58.6793 4.20889 57.5453 4.20889 56.4122C4.20889 45.9669 7.9738 35.8738 14.8089 27.9935ZM56.49 78.3753C56.428 78.6802 56.2504 78.9434 55.9903 79.1155H55.991L46.4794 85.414L28.8257 59.0863C28.333 58.3516 27.3382 58.1559 26.6034 58.6486C25.8695 59.1414 25.673 60.1354 26.1657 60.8702L43.8083 87.1829L30.23 96.1751C16.7374 90.2735 7.08188 77.8103 4.76055 63.3078L20.7317 52.7659L22.5698 55.5085C22.8794 55.969 23.3855 56.2181 23.9017 56.2181C24.2082 56.2181 24.5186 56.1309 24.7921 55.947C25.5268 55.4543 25.7233 54.4594 25.2306 53.7246L23.4051 51.0018L33.1258 44.5855C33.3843 44.4134 33.6947 44.3536 33.9996 44.4157C34.3045 44.4778 34.5678 44.6554 34.7399 44.9147L56.3203 77.5014C56.4916 77.76 56.5521 78.0704 56.49 78.3753ZM99.1228 49.0678C98.898 50.1743 98.256 51.1267 97.3146 51.7499L91.6936 55.4723C91.692 55.4731 91.6904 55.4747 91.6881 55.4755L71.6251 68.7623C70.1242 69.7563 68.3191 70.1469 66.5416 69.8608C63.9688 69.4483 61.3551 70.0133 59.1823 71.4521L57.0786 72.8454L39.4038 46.1563L43.9726 26.4203C45.149 21.3359 44.5289 15.9805 42.2878 11.3151C42.2673 11.2663 42.2453 11.2192 42.2202 11.1728C41.7896 10.2911 41.3008 9.43537 40.7546 8.61025C39.6922 7.00559 40.133 4.83591 41.7385 3.77269C43.0948 2.87449 44.9274 3.04422 46.0951 4.1766L49.1543 7.14232C52.4635 10.3509 55.0606 14.3303 56.6637 18.6508L58.3297 23.1386C58.3328 23.1473 58.3359 23.1544 58.3391 23.1622C58.343 23.1724 58.3477 23.1834 58.3517 23.1936C58.3635 23.2211 58.3745 23.2463 58.3862 23.2675C58.4185 23.3351 58.4538 23.4019 58.4963 23.4655C58.985 24.2034 59.9783 24.4054 60.7154 23.9166L77.797 12.6054C79.7395 11.319 82.3666 11.8526 83.653 13.7951C84.9394 15.7377 84.4058 18.3647 82.4632 19.6511L80.9804 20.6334C80.9804 20.6334 80.9796 20.6334 80.9788 20.6342L77.6712 22.8251C77.6665 22.8282 77.6634 22.8314 77.6587 22.8337C77.6398 22.8471 77.6217 22.8597 77.6068 22.8722C76.9231 23.3744 76.7463 24.3292 77.2202 25.0443C77.7082 25.7822 78.7023 25.9841 79.4401 25.4953L82.7501 23.3029C83.6907 22.6813 84.8168 22.462 85.9224 22.6868C87.0281 22.9115 87.9813 23.5536 88.6037 24.495C89.2269 25.4356 89.4469 26.5633 89.2221 27.6689C88.9974 28.7754 88.3554 29.7278 87.4139 30.351L82.622 33.5249C81.8841 34.0129 81.6821 35.0062 82.1709 35.7441C82.4789 36.2093 82.9882 36.4616 83.5076 36.4616C83.8109 36.4616 84.1182 36.3751 84.3901 36.1952L85.1319 35.704L87.6984 34.0043C89.6418 32.7179 92.268 33.2515 93.5544 35.194C94.8408 37.1374 94.3072 39.7636 92.3647 41.0508L89.971 42.6358C89.9585 42.6437 89.9459 42.6523 89.9333 42.661L87.5727 44.224C86.8348 44.712 86.6328 45.7061 87.1216 46.4439C87.4297 46.9092 87.9389 47.1614 88.4583 47.1614C88.7616 47.1614 89.0689 47.075 89.3408 46.895L90.0826 46.4039C90.0826 46.4039 90.0826 46.4031 90.0834 46.4031L92.6499 44.7041C93.5906 44.081 94.7174 43.8609 95.8239 44.0865C96.9303 44.3104 97.8828 44.9532 98.5059 45.8939C99.1283 46.8345 99.3475 47.9622 99.1228 49.0678Z" fill="#EF7E20"/>
</g>
<defs>
<clipPath id="clip0">
<rect width="103" height="103" fill="white"/>
</clipPath>
</defs>
</svg>
