<svg width="79" height="79" viewBox="0 0 79 79" fill="none" xmlns="http://www.w3.org/2000/svg">
<circle cx="39.5" cy="39.5" r="39.5" fill="currentColor"/>
<g clip-path="url(#clip0)">
<path d="M26.0437 24.0047H17.3823C16.6188 24.0047 16 23.3987 16 22.6518C16 21.9049 16.6188 21.2988 17.3823 21.2988H26.0437C26.8072 21.2988 27.426 21.9049 27.426 22.6518C27.426 23.3987 26.8072 24.0047 26.0437 24.0047Z" fill="white"/>
<path d="M30.992 28.8484C27.5005 28.8484 24.6602 26.0685 24.6602 22.6516C24.6602 19.234 27.5005 16.4541 30.992 16.4541C34.4834 16.4541 37.3238 19.234 37.3238 22.6516C37.3238 26.0686 34.4834 28.8484 30.992 28.8484ZM30.992 19.1601C29.025 19.1601 27.4248 20.7265 27.4248 22.6516C27.4248 24.5767 29.025 26.1424 30.992 26.1424C32.9589 26.1424 34.5591 24.5767 34.5591 22.6516C34.5591 20.7265 32.9589 19.1601 30.992 19.1601Z" fill="white"/>
<path d="M61.6209 24.0047H40.9605C40.1969 24.0047 39.5781 23.3987 39.5781 22.6518C39.5781 21.9049 40.1969 21.2988 40.9605 21.2988H61.6208C62.3844 21.2988 63.0032 21.9049 63.0032 22.6518C63.0032 23.3987 62.3845 24.0047 61.6209 24.0047Z" fill="white"/>
<path d="M49.5545 45.1973C46.0629 45.1973 43.2227 42.4174 43.2227 39.0005C43.2227 35.5836 46.063 32.8037 49.5545 32.8037C53.0459 32.8037 55.8863 35.5836 55.8863 39.0005C55.8863 42.4174 53.046 45.1973 49.5545 45.1973ZM49.5545 35.5097C47.5875 35.5097 45.9873 37.0754 45.9873 39.0005C45.9873 40.9256 47.5875 42.4913 49.5545 42.4913C51.5214 42.4913 53.1216 40.9256 53.1216 39.0005C53.1216 37.0754 51.5214 35.5097 49.5545 35.5097Z" fill="white"/>
<path d="M39.5897 40.3533H17.3823C16.6188 40.3533 16 39.7473 16 39.0004C16 38.2535 16.6188 37.6475 17.3823 37.6475H39.5897C40.3532 37.6475 40.972 38.2535 40.972 39.0004C40.972 39.7473 40.3532 40.3533 39.5897 40.3533Z" fill="white"/>
<path d="M61.6183 40.3533H54.5034C53.7399 40.3533 53.1211 39.7473 53.1211 39.0004C53.1211 38.2535 53.7399 37.6475 54.5034 37.6475H61.6183C62.3818 37.6475 63.0006 38.2535 63.0006 39.0004C63.0006 39.7473 62.3818 40.3533 61.6183 40.3533Z" fill="white"/>
<path d="M29.449 61.5466C25.9575 61.5466 23.1172 58.7667 23.1172 55.3491C23.1172 51.9323 25.9575 49.1523 29.449 49.1523C32.9405 49.1523 35.7808 51.9323 35.7808 55.3491C35.7808 58.7667 32.9405 61.5466 29.449 61.5466ZM29.449 51.8583C27.482 51.8583 25.8819 53.424 25.8819 55.3491C25.8819 57.2742 27.482 58.8407 29.449 58.8407C31.416 58.8407 33.0161 57.2742 33.0161 55.3491C33.0161 53.424 31.416 51.8583 29.449 51.8583Z" fill="white"/>
<path d="M61.617 56.702H39.4097C38.6461 56.702 38.0273 56.0959 38.0273 55.349C38.0273 54.6021 38.6461 53.9961 39.4097 53.9961H61.617C62.3805 53.9961 62.9993 54.6021 62.9993 55.349C62.9993 56.0959 62.3805 56.702 61.617 56.702Z" fill="white"/>
<path d="M24.4972 56.702H17.3823C16.6188 56.702 16 56.096 16 55.349C16 54.6021 16.6188 53.9961 17.3823 53.9961H24.4972C25.2607 53.9961 25.8795 54.6021 25.8795 55.349C25.8795 56.096 25.2607 56.702 24.4972 56.702Z" fill="white"/>
</g>
<defs>
<clipPath id="clip0">
<rect width="47" height="46" fill="white" transform="translate(16 16)"/>
</clipPath>
</defs>
</svg>
