<svg width="47" height="47" viewBox="0 0 47 47" fill="none" xmlns="http://www.w3.org/2000/svg">
<g clip-path="url(#clip0)">
<path d="M39.8478 0H7.1522C3.20823 0 0 3.20823 0 7.1522V29.6305C0 33.5744 3.20823 36.7826 7.1522 36.7826H29.2075L39.1245 46.7016C39.3207 46.8958 39.5823 47 39.8479 47C39.9786 47 40.1115 46.9735 40.2382 46.9223C40.6203 46.7649 40.8697 46.391 40.8697 45.9782V36.711C44.3313 36.2125 47.0001 33.2269 47.0001 29.6304V7.1522C47 3.20823 43.7917 0 39.8478 0ZM44.9565 29.6304C44.9565 32.4484 42.6637 34.739 39.8478 34.739C39.2838 34.739 38.826 35.1968 38.826 35.7608V43.5117L30.3538 35.0374C30.1617 34.8474 29.9021 34.739 29.6304 34.739H7.1522C4.33632 34.739 2.04354 32.4483 2.04354 29.6304V7.1522C2.04354 4.33421 4.33632 2.04354 7.1522 2.04354H39.8478C42.6637 2.04354 44.9565 4.33431 44.9565 7.1522V29.6304Z" fill="#EF7E20"/>
<path d="M23.5 5.64323L26.3943 12.7249C26.6814 13.4273 27.3413 13.9068 28.0981 13.9628L35.7275 14.527L29.8869 19.468C29.3075 19.9581 29.0554 20.7339 29.2361 21.471L31.057 28.9013L24.553 24.8734C23.9079 24.4739 23.0921 24.4738 22.447 24.8734L15.943 28.9013L17.7639 21.471C17.9446 20.7339 17.6925 19.9581 17.1131 19.468L11.2725 14.527L18.9019 13.9628C19.6587 13.9068 20.3186 13.4273 20.6057 12.7249L23.5 5.64323Z" stroke="#EF7E20" stroke-width="2"/>
</g>
<defs>
<clipPath id="clip0">
<rect width="47" height="47" fill="white"/>
</clipPath>
</defs>
</svg>
