<svg width="47" height="47" viewBox="0 0 47 47" fill="none" xmlns="http://www.w3.org/2000/svg">
<g clip-path="url(#clip0)">
<path d="M39.8478 0H7.1522C3.20823 0 0 3.20823 0 7.1522V29.6305C0 33.5744 3.20823 36.7826 7.1522 36.7826H29.2075L39.1245 46.7016C39.3207 46.8958 39.5823 47 39.8479 47C39.9786 47 40.1115 46.9735 40.2382 46.9223C40.6203 46.7649 40.8697 46.391 40.8697 45.9782V36.711C44.3313 36.2125 47.0001 33.2269 47.0001 29.6304V7.1522C47 3.20823 43.7917 0 39.8478 0ZM44.9565 29.6304C44.9565 32.4484 42.6637 34.739 39.8478 34.739C39.2838 34.739 38.826 35.1968 38.826 35.7608V43.5117L30.3538 35.0374C30.1617 34.8474 29.9021 34.739 29.6304 34.739H7.1522C4.33632 34.739 2.04354 32.4483 2.04354 29.6304V7.1522C2.04354 4.33421 4.33632 2.04354 7.1522 2.04354H39.8478C42.6637 2.04354 44.9565 4.33431 44.9565 7.1522V29.6304Z" fill="currentColor"/>
<path d="M23.4998 24.5215C21.8098 24.5215 20.4346 25.8967 20.4346 27.5867C20.4346 29.2767 21.8098 30.6519 23.4998 30.6519C25.1898 30.6519 26.565 29.2767 26.565 27.5867C26.565 25.8967 25.1898 24.5215 23.4998 24.5215ZM23.4998 28.6085C22.9358 28.6085 22.478 28.1487 22.478 27.5867C22.478 27.0247 22.9358 26.5649 23.4998 26.5649C24.0638 26.5649 24.5216 27.0247 24.5216 27.5867C24.5216 28.1487 24.0638 28.6085 23.4998 28.6085Z" fill="currentColor"/>
<path d="M26.7658 7.10761C26.1875 6.48642 25.37 6.13086 24.522 6.13086H22.4786C21.6306 6.13086 20.8152 6.48642 20.2369 7.10761C19.6586 7.72678 19.3622 8.56665 19.4215 9.42903L20.2859 19.4972C20.4044 21.1688 21.8104 22.4786 23.5003 22.4786C25.1759 22.4786 26.5819 21.1687 26.6983 19.5135L27.5791 9.41466C27.6404 8.56876 27.344 7.72889 26.7658 7.10761ZM25.5438 9.25326L24.661 19.3542C24.6181 19.9611 24.1073 20.4352 23.484 20.4352C22.8751 20.4352 22.3662 19.9611 22.3212 19.3378L21.4588 9.26964C21.4384 8.98151 21.5344 8.70765 21.7306 8.49922C21.9268 8.29078 22.1924 8.1743 22.4785 8.1743H24.522C24.8082 8.1743 25.0738 8.29078 25.2699 8.49922C25.4661 8.70765 25.5622 8.98151 25.5438 9.25326Z" fill="currentColor"/>
</g>
<defs>
<clipPath id="clip0">
<rect width="47" height="47" fill="currentColor"/>
</clipPath>
</defs>
</svg>
