<svg width="101" height="101" viewBox="0 0 101 101" fill="none" xmlns="http://www.w3.org/2000/svg">
<g clip-path="url(#clip0)">
<path d="M47.5856 74.7423C46.8259 74.1848 45.7569 74.3475 45.1986 75.1076L44.9878 75.3946C44.4301 76.1541 44.5924 77.2215 45.3511 77.7804C45.6559 78.005 46.011 78.1135 46.3627 78.1135C46.8861 78.1135 47.4027 77.8737 47.7373 77.4203L47.9513 77.1294C48.5094 76.3693 48.3456 75.3005 47.5856 74.7423Z" fill="#EF7E20"/>
<path d="M48.0312 90.9871L43.6395 83.0014L47.7399 77.4168C48.2983 76.6568 48.1344 75.588 47.3741 75.0297C46.6141 74.4712 45.5453 74.6352 44.9872 75.3956L40.2414 81.8591C39.8479 82.3948 39.8013 83.1101 40.1215 83.6926L45.0389 92.6329V92.6327C45.35 93.1979 45.9341 93.5177 46.5368 93.5177C46.8151 93.5175 47.0972 93.4494 47.3582 93.306C48.1843 92.8517 48.4857 91.8135 48.0312 90.9871Z" fill="#EF7E20"/>
<path d="M60.7573 81.8597L56.0308 75.4225C55.6388 74.8889 54.9746 74.6295 54.3248 74.7581C53.6752 74.8857 53.1582 75.3777 52.9976 76.0198C52.8743 76.513 52.9771 77.0349 53.2779 77.4447L57.3582 83.002L52.9964 90.9335C52.8579 91.1854 52.7852 91.4695 52.7852 91.7573C52.7852 92.5367 53.313 93.2173 54.068 93.4112C54.2094 93.4477 54.352 93.4652 54.4929 93.4652C55.1042 93.4652 55.6836 93.1354 55.9891 92.5805L60.877 83.6937C61.1976 83.1107 61.1506 82.3955 60.7573 81.8597Z" fill="#EF7E20"/>
<path d="M63.465 55.0241C62.9034 54.7292 62.2244 54.7694 61.7019 55.1296C60.6861 55.8293 59.7436 56.5706 58.9005 57.3327C54.305 61.4871 49.9389 60.9249 49.7679 60.9004C49.6649 60.8842 49.5601 60.8768 49.4566 60.8801C47.6404 60.9267 44.3657 59.2671 40.9015 56.5464C40.3717 56.1303 39.8284 55.7338 39.2859 55.3677C38.7628 55.0142 38.0868 54.9785 37.5293 55.275C36.9716 55.5713 36.623 56.1512 36.623 56.7829V62.6409C36.623 63.1589 36.8588 63.6485 37.2628 63.9728C37.3105 64.0113 37.3602 64.0468 37.4115 64.0796L49.5199 72.1706C49.5219 72.1718 49.5237 72.1734 49.5256 72.1748L49.5576 72.1961C49.8426 72.3847 50.1711 72.4799 50.5007 72.4799C50.7781 72.4799 51.0554 72.4127 51.3089 72.2772C51.3624 72.2485 51.4137 72.2172 51.463 72.1836C51.4687 72.1799 51.4744 72.1761 51.4803 72.1722C51.487 72.1679 51.4937 72.1633 51.5005 72.1588L63.5802 64.0869C63.6288 64.0561 63.6761 64.0229 63.7217 63.9874C64.1361 63.6639 64.3784 63.1674 64.3784 62.6415V56.5359C64.3784 55.9011 64.0268 55.3194 63.465 55.0241ZM60.9629 61.7276L50.5005 68.7187L40.0383 61.7274V60.1743C42.5858 62.0256 46.3333 64.2964 49.3879 64.2962C49.3942 64.2962 49.4013 64.2962 49.4079 64.2962C50.4334 64.4096 55.6636 64.7179 60.9633 60.0687V61.7276H60.9629Z" fill="#EF7E20"/>
<path d="M52.1843 70.4912C52.0717 69.814 51.5641 69.2702 50.8962 69.1108C50.2279 68.9524 49.5299 69.2078 49.1236 69.7614L45.1986 75.1075C44.6403 75.8677 44.804 76.9365 45.5645 77.4946C45.8689 77.7183 46.2228 77.826 46.5737 77.826C47.0988 77.826 47.6168 77.5843 47.9518 77.1285L51.8563 71.8106C52.0784 71.5202 52.2078 71.1588 52.2078 70.7725C52.2076 70.6786 52.1997 70.584 52.1843 70.4912Z" fill="#EF7E20"/>
<path d="M76.516 15.4403C76.4821 15.1728 75.6822 9.39965 70.2479 7.12221C70.4057 6.10826 70.3891 4.80512 69.7455 3.5373C68.8802 1.83331 67.1729 0.722901 64.6706 0.236443C64.5633 0.215533 64.4544 0.205078 64.3449 0.205078H41.4252C32.1185 0.205078 24.5469 7.77654 24.5469 17.0836V26.0771C24.5469 28.4202 25.3456 30.7052 26.7955 32.5105C27.5143 33.4057 28.3997 34.9691 28.5332 37.3327C28.5853 38.2555 29.3578 38.9686 30.2863 38.943C31.2103 38.917 31.9457 38.1602 31.9457 37.2361V25.5106C33.1053 20.7152 37.0626 19.782 37.743 19.6559H45.1566C46.0287 19.6559 46.8863 19.5227 47.7059 19.26C49.1156 18.8079 51.352 17.9758 52.9802 17.3574C54.0695 16.9433 55.2756 16.9281 56.3757 17.3148L64.3126 20.1009C68.2804 21.5646 68.9885 25.048 69.0763 25.5952V39.6676C69.0763 40.5614 69.7654 41.3029 70.6566 41.3694C70.7 41.3725 70.7426 41.3743 70.7852 41.3743C71.6228 41.3741 72.346 40.7604 72.4729 39.9195C72.4796 39.8755 73.1613 35.4711 75.36 31.9448C76.125 30.7172 76.5296 29.3176 76.5296 27.8973V15.6559C76.5296 15.5839 76.5251 15.5119 76.516 15.4403ZM73.1142 27.8965C73.1142 28.6593 72.899 29.416 72.4914 30.0889V25.4784C72.4914 25.4167 72.488 25.3553 72.4813 25.294C72.4545 25.046 71.7489 19.1939 65.4788 16.8906C65.4711 16.8879 65.4634 16.8851 65.4557 16.8823L57.5069 14.0918C56.6107 13.7772 55.6731 13.6202 54.7361 13.6202C53.7284 13.6202 52.7214 13.8018 51.7672 14.1648C49.4876 15.0308 47.7223 15.6682 46.6628 16.0079C46.1808 16.1623 45.6741 16.2408 45.1564 16.2408H37.6049C37.5317 16.2408 37.4583 16.2456 37.3855 16.2548C37.0965 16.2923 30.2855 17.2609 28.5715 24.9434C28.5443 25.0655 28.5305 25.1902 28.5305 25.3153V28.8298C28.1586 27.9705 27.9617 27.0319 27.9617 26.0773V17.0839C27.9617 9.66043 34.0014 3.62074 41.4248 3.62074H64.1725C65.1142 3.82136 66.2588 4.23305 66.693 5.07064C67.2246 6.09584 66.619 7.50747 66.6184 7.50866C66.4 7.97322 66.4026 8.51116 66.6245 8.97375C66.8466 9.43634 67.2652 9.77445 67.7643 9.89459C72.1117 10.9411 72.9984 15.1107 73.114 15.7851V27.8965H73.1142Z" fill="#EF7E20"/>
<path d="M72.4804 25.2938C72.4535 25.0458 71.7479 19.1938 65.4778 16.8905C65.4701 16.8877 65.4624 16.885 65.4547 16.8822L57.5059 14.0917C55.6457 13.4387 53.6075 13.4648 51.7661 14.1643C49.4864 15.0303 47.7211 15.6676 46.6616 16.0075C46.1797 16.162 45.6729 16.2403 45.1553 16.2403H37.6037C37.5305 16.2403 37.4572 16.245 37.3844 16.2543C37.0954 16.2918 30.2844 17.2603 28.5703 24.9429C28.5431 25.065 28.5293 25.1897 28.5293 25.3147V39.9945C28.5293 40.0071 28.5295 40.0197 28.5297 40.0323C28.5409 40.5423 28.9017 52.5848 37.2224 58.0922L37.2654 58.1226C37.3011 58.1479 37.3368 58.1731 37.3741 58.1982C37.8485 58.5185 38.3249 58.8663 38.7909 59.232C41.2149 61.1355 45.783 64.2959 49.3866 64.2959C49.3933 64.2959 49.3997 64.2959 49.4066 64.2959C49.6022 64.3174 49.9516 64.3462 50.4254 64.3462C52.4677 64.3462 56.8249 63.811 61.1893 59.8657C61.9217 59.2038 62.7453 58.5564 63.6381 57.9413L63.7658 57.852C63.8074 57.8226 63.849 57.793 63.892 57.7642C66.6675 55.9 71.4745 51.0899 72.4837 39.8193C72.4883 39.7688 72.4906 39.7177 72.4906 39.6668V25.4783C72.4904 25.4167 72.4869 25.3554 72.4804 25.2938ZM69.075 39.5897C68.1445 49.7611 63.8107 53.7043 61.9876 54.9287C61.9229 54.9723 61.859 55.0173 61.7951 55.0622L61.7004 55.1289C60.6847 55.8286 59.7421 56.5699 58.899 57.332C54.3206 61.471 49.9688 60.9281 49.7553 60.8982C49.6561 60.8834 49.5555 60.877 49.4551 60.8798C47.6389 60.9264 44.3642 59.2668 40.9 56.5461C40.3702 56.1298 39.8269 55.7333 39.2852 55.3678L39.2432 55.3382C39.2022 55.309 39.1613 55.28 39.1132 55.2481C32.3987 50.8039 31.9594 40.4038 31.9446 39.9698V25.5102C33.1082 20.6973 37.0901 19.7747 37.7391 19.6556H45.1555C46.0276 19.6556 46.8851 19.5224 47.7047 19.2596C49.1144 18.8075 51.351 17.9754 52.979 17.357C54.0683 16.9429 55.2744 16.9278 56.3746 17.3144L64.3114 20.1006C68.2792 21.5643 68.9874 25.0476 69.0752 25.5948V39.5897H69.075Z" fill="#EF7E20"/>
<path d="M52.0269 70.0093C51.7608 69.4771 51.2368 69.1218 50.6441 69.0713C50.0523 69.0224 49.4751 69.2826 49.1229 69.7623L45.0324 75.3335C44.4748 76.0934 44.6377 77.1614 45.397 77.7198C45.7016 77.9439 46.0561 78.0522 46.4074 78.0522C46.9313 78.0522 47.4486 77.8117 47.7833 77.3574L51.874 71.8068C52.0904 71.5132 52.2072 71.138 52.2072 70.7735C52.2074 70.5086 52.1453 70.2466 52.0269 70.0093Z" fill="#EF7E20"/>
<path d="M52.1367 97.5041C51.4952 96.8332 50.4352 96.7975 49.7503 97.4242L49.36 97.7812C48.7755 98.3156 48.6352 99.182 49.0214 99.8736L49.0335 99.8951C49.2943 100.362 49.7594 100.68 50.2895 100.754C50.368 100.765 50.4465 100.77 50.5246 100.77C50.9742 100.77 51.4095 100.592 51.7321 100.27L52.1102 99.8914C52.7665 99.2351 52.7784 98.1746 52.1367 97.5041Z" fill="#EF7E20"/>
<path d="M51.6412 97.7811L51.2508 97.424C50.5659 96.7975 49.5058 96.8332 48.8642 97.5039C48.2225 98.175 48.2344 99.2357 48.8909 99.8918L49.2696 100.27C49.5922 100.593 50.0273 100.77 50.4769 100.77C50.5572 100.77 50.6379 100.765 50.7185 100.753C51.2504 100.677 51.7155 100.355 51.9742 99.8841L51.9862 99.8626C52.3645 99.1722 52.2221 98.3123 51.6412 97.7811Z" fill="#EF7E20"/>
<path d="M51.6699 97.8072L51.6677 97.8052C51.404 97.5586 51.0629 97.3961 50.6871 97.3549C50.1839 97.3 49.6937 97.4705 49.3372 97.8025L49.3321 97.8072C48.9869 98.122 48.7858 98.5649 48.7758 99.032C48.7657 99.4995 48.9476 99.9503 49.2788 100.28L49.2968 100.298C49.6299 100.629 50.0653 100.794 50.5009 100.794C50.938 100.794 51.375 100.627 51.7081 100.295L51.7261 100.277C52.0559 99.9465 52.2366 99.4962 52.2258 99.0298C52.2155 98.5633 52.0145 98.1216 51.6699 97.8072Z" fill="#EF7E20"/>
<path d="M51.0546 69.1196C50.3474 68.8932 49.5713 69.1557 49.1407 69.7613C48.659 70.4395 48.7385 71.3637 49.3253 71.9534C49.6555 72.2852 50.0939 72.4552 50.5355 72.4552C50.8786 72.4552 51.2234 72.3526 51.5209 72.1431C51.9754 71.8234 52.2458 71.3026 52.2458 70.7467V70.7425C52.2458 69.9994 51.7625 69.3455 51.0546 69.1196Z" fill="#EF7E20"/>
<path d="M51.8863 69.7474L51.8717 69.7276C51.4336 69.1347 50.6643 68.8904 49.9642 69.1211C49.2641 69.3517 48.791 70.0058 48.791 70.7428V70.772C48.791 71.4007 49.1439 71.9737 49.6978 72.2712C49.9488 72.4059 50.2257 72.4724 50.5023 72.4724C50.8359 72.4724 51.1691 72.3757 51.4555 72.186C51.8459 71.9276 52.1132 71.52 52.1946 71.059C52.2761 70.5982 52.1647 70.1238 51.8863 69.7474Z" fill="#EF7E20"/>
<path d="M70.8147 64.3828C70.6378 63.9151 70.2648 63.5486 69.7941 63.3801L63.2466 61.0331C63.1936 61.0141 63.1385 60.9971 63.0837 60.9837C62.6164 60.8668 62.1212 60.9526 61.7208 61.2205L49.5893 69.3269C49.5862 69.3291 49.5826 69.3312 49.5793 69.3336L50.5318 70.75L49.5579 69.348C49.2021 69.5833 48.9472 69.9441 48.8438 70.358C48.787 70.5853 48.7778 70.8226 48.8162 71.0536C48.8602 71.3175 48.9656 71.5677 49.1242 71.7837L58.0061 83.8802C58.3288 84.3201 58.8409 84.5773 59.3822 84.5773C59.4193 84.5773 59.4566 84.576 59.4938 84.5734C60.0756 84.5351 60.5977 84.2033 60.8786 83.6922L70.7137 65.8104C70.955 65.3721 70.9919 64.8502 70.8147 64.3828ZM59.1755 79.7023L52.933 71.2001L62.9032 64.5379L66.7564 65.9193L59.1755 79.7023Z" fill="#EF7E20"/>
<path d="M52.1833 70.4784C52.103 70.0199 51.8393 69.6141 51.4526 69.3547L39.2807 61.2213C38.8933 60.962 38.4157 60.8733 37.9606 60.9743C37.8908 60.9897 37.8221 61.0098 37.7549 61.0339L31.2074 63.3809C30.7367 63.5496 30.3637 63.9161 30.1868 64.3836C30.0098 64.8513 30.0465 65.3729 30.2876 65.8112L40.1226 83.693C40.4036 84.2039 40.9257 84.5359 41.5075 84.5742C41.5445 84.5766 41.5818 84.5777 41.6189 84.5777C42.1602 84.5777 42.6721 84.3205 42.9954 83.8804L47.7413 77.417C47.745 77.4121 47.7487 77.4067 47.7525 77.4014L51.8775 71.7831C52.1529 71.4079 52.2634 70.9368 52.1833 70.4784ZM44.9886 75.395C44.9845 75.4005 44.9805 75.4061 44.9764 75.4116L41.8254 79.7031L34.2445 65.9199L38.0979 64.5387L48.0679 71.2009L44.9886 75.395Z" fill="#EF7E20"/>
<path d="M100.915 93.5354L98.7125 80.2332C98.0183 76.0411 95.1049 72.5387 91.1091 71.0935L69.7976 63.3831C69.1406 63.1456 68.4061 63.3319 67.9418 63.853C67.4774 64.3744 67.377 65.126 67.6887 65.7511L72.1382 74.6743L67.7721 74.7415C67.1793 74.7508 66.6335 75.0664 66.3307 75.5762C66.0277 76.0859 66.0107 76.716 66.2857 77.2413L68.0765 80.6605L49.7499 97.4255C49.7312 97.4427 49.7128 97.4601 49.6949 97.478L49.3165 97.8564C48.7805 98.3925 48.662 99.2179 49.0259 99.8831L49.0393 99.9073C49.339 100.455 49.9134 100.795 50.5376 100.795H94.7589C96.596 100.795 98.3308 99.992 99.5185 98.591C100.706 97.19 101.216 95.3471 100.915 93.5354ZM96.9142 96.3822C96.3761 97.0166 95.5906 97.3804 94.7591 97.3804H54.8589L71.3525 82.2927C71.9246 81.7697 72.0725 80.9272 71.7127 80.2405L70.5985 78.1134L74.9041 78.0471C75.4909 78.0382 76.0317 77.7283 76.3368 77.2271C76.6416 76.7254 76.6678 76.1029 76.4061 75.5775L72.6507 68.0467L89.9482 74.3046C92.7839 75.3304 94.8514 77.8159 95.344 80.7909L97.5469 94.0931C97.5469 94.0933 97.5469 94.0933 97.5469 94.0933C97.6826 94.9137 97.4522 95.7478 96.9142 96.3822Z" fill="#EF7E20"/>
<path d="M51.6842 97.8209L51.6643 97.8029C50.9884 97.191 49.9504 97.2182 49.3074 97.8648L49.2896 97.8828C48.8033 98.372 48.6591 99.1059 48.9239 99.7426C49.1888 100.38 49.811 100.794 50.5006 100.794H50.5381C51.2441 100.794 51.8775 100.36 52.1312 99.701C52.3855 99.0419 52.2077 98.2947 51.6842 97.8209Z" fill="#EF7E20"/>
<path d="M51.6295 97.7714C51.2419 97.4224 50.7161 97.2695 50.2013 97.3573C49.687 97.4443 49.2408 97.7621 48.9899 98.2194L48.978 98.2409C48.618 98.8972 48.7275 99.7115 49.2481 100.25L49.2542 100.256C49.5888 100.602 50.0346 100.776 50.4816 100.776C50.8929 100.776 51.3054 100.628 51.632 100.33L51.65 100.314C51.805 100.172 51.9329 100.003 52.0268 99.8152C52.3706 99.1282 52.2006 98.285 51.6295 97.7714Z" fill="#EF7E20"/>
<path d="M51.7039 97.8763L51.6968 97.869C51.6922 97.8645 51.6875 97.8597 51.6831 97.8554L51.3044 97.477C51.2866 97.4591 51.2683 97.4415 51.2497 97.4248L32.9231 80.6597L34.7141 77.2405C34.9893 76.7154 34.9721 76.0851 34.6693 75.5754C34.3663 75.0659 33.8207 74.75 33.2279 74.7408L28.8614 74.6735L33.311 65.7504C33.6227 65.1254 33.522 64.3736 33.0579 63.8523C32.5937 63.3309 31.8583 63.1445 31.202 63.3824L9.89076 71.0927C5.89494 72.5377 2.98132 76.0401 2.28714 80.2324L0.0842722 93.5347C-0.215769 95.3472 0.293572 97.1896 1.48151 98.5904C2.66964 99.9912 4.40459 100.795 6.24114 100.795H50.5001C51.1918 100.795 51.8149 100.377 52.0785 99.7383C52.3422 99.0992 52.1943 98.3638 51.7039 97.8763ZM6.24134 97.3796C5.40967 97.3796 4.62415 97.0158 4.0864 96.3814C3.54866 95.7472 3.31825 94.913 3.45397 94.0924L5.65684 80.7901C6.14941 77.8148 8.21696 75.3296 11.0527 74.3038L28.3499 68.0459L24.5948 75.5764C24.3328 76.1017 24.3588 76.7243 24.664 77.2259C24.9688 77.7274 25.5099 78.0371 26.0968 78.0459L30.4023 78.1124L29.2881 80.2395C28.9285 80.926 29.0765 81.7688 29.6481 82.2917L46.1417 97.3796H6.24134Z" fill="#EF7E20"/>
<path d="M56.3123 76.8468C56.4355 76.3537 56.3328 75.8315 56.0319 75.4218L51.8763 69.7624C51.4396 69.1675 50.6695 68.931 49.9684 69.161C49.5898 69.285 49.2779 69.5356 49.0704 69.8557L44.9908 75.3912C44.9324 75.4701 44.8805 75.5549 44.8365 75.6429C44.557 76.2022 44.6053 76.8693 44.9624 77.3824L46.6997 79.8772L44.8489 91.543C44.7896 91.9176 44.8566 92.3011 45.0393 92.6334L49.0039 99.8417C49.304 100.388 49.8776 100.726 50.5002 100.726C51.123 100.726 51.6964 100.388 51.9965 99.8417L55.9907 92.58C56.1292 92.3279 56.202 92.0448 56.202 91.7572V91.7562C56.202 91.6666 56.1947 91.5771 56.1809 91.4885L54.3386 79.8774L56.0572 77.41C56.1752 77.2392 56.2621 77.0481 56.3123 76.8468ZM50.5002 95.4757L48.3135 91.5002L50.1804 79.7334C50.2497 79.2975 50.1473 78.852 49.8952 78.4901L48.4642 76.4349L50.5051 73.6657L52.5567 76.4598L51.1429 78.4901C50.8908 78.8518 50.7886 79.2975 50.8577 79.7334L52.7161 91.4465L50.5002 95.4757Z" fill="#EF7E20"/>
<path d="M63 62.5V57.5L69.5 48L70.5 35V24.5L66.5 19L55 15L45.5 17.5H38L31.5 21L30.5 28L31.5 49L38 57.5V62.5L50 71L63 62.5Z" fill="#EF7E20" fill-opacity="0.29"/>
</g>
<defs>
<clipPath id="clip0">
<rect width="101" height="101" fill="white"/>
</clipPath>
</defs>
</svg>
