<svg width="48" height="48" viewBox="0 0 48 48" fill="none" xmlns="http://www.w3.org/2000/svg">
<g clip-path="url(#clip0)">
<path d="M40.4971 24.1109C40.4971 19.8273 38.8631 15.767 35.8962 12.6779C35.6275 12.3983 35.1829 12.3894 34.9033 12.6579C34.6236 12.9265 34.6146 13.3711 34.8832 13.6508C37.5977 16.477 39.0927 20.1917 39.0927 24.1108C39.0927 32.4385 32.3176 39.2136 23.9899 39.2136C15.6622 39.2136 8.88694 32.4385 8.88694 24.1109C8.88694 15.7832 15.662 9.00803 23.9897 9.00803C27.136 9.00803 30.1514 9.9661 32.7099 11.7787C33.0262 12.0029 33.4647 11.9281 33.6888 11.6116C33.9131 11.2951 33.8383 10.8568 33.5218 10.6327C30.7246 8.651 27.4285 7.60352 23.9897 7.60352C14.8876 7.60352 7.48242 15.0087 7.48242 24.1108C7.48242 33.2129 14.8876 40.6181 23.9897 40.6181C33.0918 40.6181 40.4971 33.213 40.4971 24.1109Z" fill="white"/>
<path d="M16.6137 32.746C16.1495 32.349 15.7141 31.9123 15.3131 31.4379C15.0627 31.1418 14.6197 31.1045 14.3234 31.355C14.0272 31.6054 13.9901 32.0484 14.2405 32.3447C16.673 35.2225 20.2266 36.8729 23.9901 36.8729C31.027 36.8729 36.7518 31.148 36.7518 24.1112C36.7518 17.0745 31.0269 11.3496 23.9901 11.3496C16.9534 11.3496 11.2285 17.0745 11.2285 24.1112C11.2285 26.0423 11.6493 27.8982 12.4793 29.6272C12.6471 29.9769 13.0667 30.1243 13.4163 29.9565C13.7659 29.7887 13.9133 29.3692 13.7455 29.0195C13.0074 27.4816 12.633 25.8303 12.633 24.1112C12.633 17.8489 17.7279 12.7541 23.9901 12.7541C30.2524 12.7541 35.3472 17.849 35.3472 24.1112C35.3472 27.5619 33.7998 30.6578 31.363 32.7424C30.2029 31.5075 28.7133 30.6149 27.0774 30.1742V28.8935C27.5447 28.6126 27.9781 28.2668 28.3649 27.8575C28.6313 27.5756 28.6188 27.1311 28.3368 26.8646C28.055 26.5983 27.6105 26.6109 27.344 26.8927C26.4623 27.8258 25.2711 28.3398 23.99 28.3398C21.4452 28.3398 19.3746 26.2693 19.3746 23.7243V21.7312H28.6054V23.7243C28.6054 23.9978 28.5797 24.2775 28.5293 24.5555C28.4599 24.9371 28.713 25.3027 29.0945 25.3721C29.4759 25.4414 29.8417 25.1884 29.9111 24.8068C29.9767 24.4462 30.01 24.0819 30.01 23.7243V21.029C30.01 21.0282 30.0099 21.0276 30.0099 21.0268C30.0099 21.026 30.01 21.0251 30.01 21.0243L29.9754 15.8022C29.9729 15.4201 29.7576 15.0796 29.4135 14.9134C29.0695 14.7473 28.669 14.7905 28.3682 15.026L27.6859 15.5604H22.467C19.9875 15.5604 17.9703 17.5776 17.9703 20.0571V21.0289V23.7242C17.9703 25.9158 19.1478 27.8369 20.9029 28.8898V30.1742C19.2651 30.6154 17.7742 31.5093 16.6137 32.746ZM22.4669 16.9651H27.9281C28.0851 16.9651 28.2376 16.9124 28.3612 16.8157L28.5764 16.6471L28.6008 20.3268H19.3747V20.0573C19.3747 18.3522 20.7619 16.9651 22.4669 16.9651ZM30.2349 33.5924C28.442 34.7773 26.2953 35.4683 23.99 35.4683C21.7415 35.4683 19.5776 34.8053 17.7427 33.595C18.651 32.6648 19.7854 31.9764 21.0286 31.5981C21.4054 32.8779 22.59 33.8151 23.99 33.8151C25.3901 33.8151 26.5748 32.8779 26.9515 31.5981C28.1935 31.9761 29.3269 32.6635 30.2349 33.5924ZM23.99 29.7443C24.5693 29.7443 25.1337 29.662 25.6727 29.5062V30.728C25.6727 31.6558 24.9179 32.4107 23.99 32.4107C23.0622 32.4107 22.3073 31.6558 22.3073 30.728V29.5032C22.8417 29.659 23.406 29.7443 23.99 29.7443Z" fill="white"/>
<path d="M31.7593 7.9447C32.1419 8.00715 32.503 7.7475 32.5655 7.36473C32.8317 5.73343 33.6732 4.23874 34.935 3.15605C34.9945 3.10492 35.0557 3.05605 35.1167 3.00707C34.8863 3.56551 34.7589 4.17685 34.7589 4.8175C34.7589 6.02051 35.2082 7.11997 35.9465 7.95912C35.544 8.2153 35.1685 8.51409 34.8248 8.8551C34.5496 9.12824 34.5479 9.57291 34.8211 9.84819C34.9584 9.98649 35.139 10.0558 35.3195 10.0558C35.4984 10.0558 35.6772 9.98789 35.8142 9.85194C36.196 9.473 36.6271 9.1597 37.0978 8.91503C37.8084 9.33695 38.6371 9.5803 39.5217 9.5803C40.4069 9.5803 41.2359 9.33676 41.9468 8.91438C43.5682 9.75765 44.646 11.3968 44.7725 13.2235C43.7396 14.3742 42.3259 15.1867 40.6975 15.46C40.315 15.5242 40.057 15.8863 40.1212 16.2688C40.1788 16.612 40.4762 16.8549 40.813 16.8549C40.8515 16.8549 40.8907 16.8517 40.93 16.8451C42.8788 16.518 44.6626 15.5064 45.9526 13.9969C47.2577 12.4697 47.9764 10.5209 47.9764 8.50941C47.9764 3.84744 44.1836 0.0546875 39.5216 0.0546875C37.5035 0.0546875 35.5497 0.777545 34.0202 2.09021C32.5076 3.38817 31.4987 5.18108 31.1792 7.1386C31.1167 7.52128 31.3764 7.88224 31.7593 7.9447ZM36.1634 4.8175C36.1634 2.96569 37.6699 1.45911 39.5217 1.45911C41.3735 1.45911 42.8801 2.96569 42.8801 4.8175C42.8801 6.6693 41.3735 8.17588 39.5217 8.17588C37.6699 8.17588 36.1634 6.6693 36.1634 4.8175ZM46.5719 8.50941C46.5719 9.60399 46.3234 10.6447 45.8767 11.5746C45.4049 10.0915 44.423 8.8037 43.0972 7.95902C43.8355 7.11978 44.2846 6.02042 44.2846 4.8175C44.2846 4.17853 44.1579 3.56879 43.9285 3.01176C45.5387 4.30494 46.5719 6.2883 46.5719 8.50941Z" fill="white"/>
<path d="M7.07456 16.7911C7.11389 16.7976 7.15284 16.8008 7.19142 16.8008C7.52822 16.8008 7.8257 16.5577 7.88319 16.2145C7.94724 15.832 7.68909 15.4699 7.30659 15.4059C5.67922 15.1333 4.26609 14.3224 3.23312 13.1735C3.37572 11.367 4.44849 9.75006 6.05507 8.91446C6.76594 9.33685 7.59498 9.58039 8.48011 9.58039C9.36477 9.58039 10.1934 9.33713 10.904 8.91512C11.3711 9.15782 11.7992 9.46822 12.1789 9.84332C12.3157 9.97853 12.494 10.0459 12.6723 10.0459C12.8535 10.0459 13.0346 9.97628 13.1719 9.83723C13.4445 9.56129 13.4417 9.11662 13.1659 8.84415C12.8252 8.50772 12.4532 8.21305 12.0551 7.95949C12.7936 7.12024 13.2429 6.02069 13.2429 4.81749C13.2429 4.14463 13.1026 3.50408 12.8497 2.92336C12.9277 2.98507 13.0053 3.04771 13.0809 3.11297C14.3455 4.20353 15.1843 5.7072 15.443 7.34693C15.5035 7.73008 15.8637 7.99189 16.2461 7.93121C16.6293 7.87082 16.8908 7.51126 16.8304 7.12811C16.5201 5.16038 15.5143 3.35679 13.9983 2.04938C12.4659 0.72782 10.5063 0 8.4802 0C3.81824 0 0.0253906 3.79276 0.0253906 8.45472C0.0253906 10.4666 0.744409 12.4159 2.05005 13.9432C3.3407 15.4531 5.1251 16.4645 7.07456 16.7911ZM5.12182 4.81749C5.12182 2.96568 6.6284 1.45911 8.4802 1.45911C10.332 1.45911 11.8386 2.96568 11.8386 4.81749C11.8386 6.6693 10.332 8.17588 8.4802 8.17588C6.6284 8.17588 5.12182 6.6693 5.12182 4.81749ZM4.10916 2.92832C3.85766 3.50792 3.7173 4.14651 3.7173 4.81758C3.7173 6.02079 4.16675 7.12052 4.90534 7.95977C3.58912 8.79817 2.61204 10.073 2.13619 11.5423C1.68263 10.6068 1.42991 9.5583 1.42991 8.45481C1.42991 6.21723 2.47852 4.22066 4.10916 2.92832Z" fill="white"/>
<path d="M40.9632 31.3215C40.5812 31.2536 40.2167 31.5082 40.1488 31.8901C40.0857 32.2453 40.3017 32.5853 40.6396 32.6857C40.6454 32.6879 40.6508 32.6907 40.6567 32.6928C41.9863 33.1706 42.8797 34.4407 42.8797 35.8533C42.8797 37.7051 41.3731 39.2117 39.5213 39.2117C38.421 39.2117 37.3887 38.6705 36.76 37.7639C36.5391 37.4453 36.1016 37.366 35.7828 37.5871C35.464 37.808 35.3848 38.2456 35.6059 38.5643C35.7108 38.7156 35.8243 38.8592 35.9444 38.9957C34.6208 39.8394 33.6402 41.1248 33.168 42.6052C32.9025 42.0528 32.7058 41.4581 32.5903 40.8311C32.52 40.4497 32.1543 40.1976 31.7724 40.2677C31.391 40.338 31.1388 40.7042 31.209 41.0856C31.9474 45.092 35.4431 47.9999 39.5213 47.9999C44.1833 47.9999 47.976 44.2071 47.976 39.5451C47.9761 35.5022 45.0267 32.0437 40.9632 31.3215ZM39.5214 46.5954C37.4566 46.5954 35.5719 45.7006 34.2712 44.2506C34.4006 42.4276 35.4774 40.7923 37.0962 39.9504C37.8208 40.3796 38.6559 40.6162 39.5213 40.6162C40.4064 40.6162 41.2355 40.3727 41.9463 39.9503C43.5634 40.7913 44.6397 42.424 44.771 44.2448C43.4793 45.6863 41.6048 46.5954 39.5214 46.5954ZM45.8737 42.6021C45.4009 41.1226 44.42 39.8382 43.0965 38.9952C43.8349 38.156 44.2843 37.0564 44.2843 35.8533C44.2843 35.272 44.177 34.708 43.9795 34.1833C45.5758 35.4688 46.5717 37.4087 46.5717 39.5452C46.5716 40.6398 46.3208 41.6769 45.8737 42.6021Z" fill="white"/>
<path d="M16.2282 40.2778C15.8465 40.207 15.4804 40.4588 15.4095 40.8401C15.2938 41.4636 15.0977 42.0551 14.8334 42.6048C14.3608 41.1246 13.3798 39.8396 12.056 38.9961C12.1725 38.8637 12.283 38.7251 12.3852 38.5788C12.6074 38.261 12.5299 37.8231 12.212 37.6009C11.8941 37.3786 11.4563 37.4562 11.2341 37.7741C10.6049 38.6743 9.57526 39.2117 8.48011 39.2117C6.6283 39.2117 5.12172 37.7051 5.12172 35.8533C5.12172 34.4454 6.01097 33.1768 7.3344 32.6963C7.34011 32.6943 7.34545 32.6915 7.35107 32.6893C7.6844 32.5853 7.89611 32.2474 7.83244 31.8949C7.76353 31.5132 7.39779 31.2599 7.0166 31.3286C2.9657 32.0601 0.0253906 35.5158 0.0253906 39.5452C0.0253906 44.2072 3.81815 48 8.48011 48C12.5529 48 16.0479 45.0966 16.7904 41.0964C16.8613 40.7152 16.6095 40.3486 16.2282 40.2778ZM4.02021 34.1894C3.82395 34.7127 3.7174 35.2747 3.7174 35.8534C3.7174 37.0562 4.16656 38.1556 4.90468 38.9948C3.58125 39.8379 2.60081 41.1228 2.12814 42.6027C1.68094 41.6773 1.43 40.6401 1.43 39.5453C1.42991 37.4135 2.42533 35.4751 4.02021 34.1894ZM8.4802 46.5955C6.39674 46.5955 4.52228 45.6864 3.2305 44.2449C3.36177 42.4241 4.43801 40.7914 6.05517 39.9504C6.76604 40.3728 7.59508 40.6163 8.4802 40.6163C9.34492 40.6163 10.1803 40.3797 10.9052 39.9504C12.5239 40.7922 13.6007 42.4272 13.7304 44.2502C12.4293 45.7003 10.5444 46.5955 8.4802 46.5955Z" fill="white"/>
</g>
<defs>
<clipPath id="clip0">
<rect width="48" height="48" fill="white"/>
</clipPath>
</defs>
</svg>
