<svg width="47" height="47" viewBox="0 0 47 47" fill="none" xmlns="http://www.w3.org/2000/svg">
<g clip-path="url(#clip0)">
<path d="M46.8086 20.0449L38.942 9.82608C38.6508 9.44813 38.1198 9.3549 37.7171 9.61093L32.6381 12.841H26.0141C25.9284 12.841 25.843 12.8593 25.7606 12.8833L20.6246 14.3618L15.2953 12.9041L10.1171 9.61093C9.7212 9.3592 9.19982 9.44455 8.90543 9.80958L0.204445 20.5871C-0.108239 20.9744 -0.0566028 21.5399 0.320625 21.8644L4.88107 25.7891L8.97248 31.3026C7.77589 32.5774 7.7992 34.5879 9.0442 35.8333C9.59605 36.3848 10.2978 36.6964 11.0196 36.7688C10.9945 36.9323 10.9816 37.0984 10.9816 37.2669C10.9816 38.1368 11.3205 38.9547 11.9354 39.5697C12.5508 40.185 13.3687 40.5239 14.2386 40.5239C14.2504 40.5239 14.2619 40.5232 14.2734 40.5228C14.273 40.545 14.272 40.5669 14.272 40.5892C14.272 41.4591 14.6108 42.277 15.2258 42.8923C15.8411 43.5073 16.659 43.8461 17.529 43.8461C17.7007 43.8461 17.8707 43.8322 18.0374 43.8063C18.1081 44.5307 18.4204 45.2357 18.974 45.7893C19.6087 46.4244 20.4428 46.7417 21.2768 46.7417C22.1109 46.7417 22.945 46.4244 23.58 45.7893L24.0781 45.2912L24.2871 45.4598C24.9168 46.0697 25.7344 46.3745 26.5519 46.3745C27.386 46.3745 28.2201 46.0572 28.8548 45.4221C29.5027 44.7742 29.8201 43.9189 29.8068 43.068C30.6573 43.0809 31.5129 42.764 32.1609 42.1164C32.8081 41.4688 33.1255 40.6143 33.1129 39.7637C33.999 39.7777 34.8395 39.4374 35.4666 38.8102C36.1146 38.1623 36.4319 37.3071 36.4187 36.4561C37.2699 36.469 38.1248 36.1521 38.7728 35.5041C39.8786 34.3982 40.021 32.6889 39.2009 31.427L42.1882 25.1705L46.6795 21.3057C47.0506 20.9862 47.1073 20.4326 46.8086 20.0449ZM9.82232 11.6079L13.5458 13.9756L5.44583 23.8437L2.19995 21.05L9.82232 11.6079ZM10.3476 32.5304L11.4714 31.4066C11.5055 31.3725 11.5414 31.3403 11.5779 31.3101C11.7977 31.1308 12.0638 31.024 12.3457 30.9985C12.3535 30.9978 12.3618 30.9978 12.3697 30.9975C12.4098 30.9942 12.45 30.9921 12.4905 30.9924C12.8756 30.9978 13.2335 31.1552 13.4989 31.4353C14.0195 31.9857 13.9915 32.885 13.4365 33.4401L12.3467 34.5298C11.7956 35.081 10.8988 35.081 10.3476 34.5298C9.7965 33.9783 9.7965 33.0815 10.3476 32.5304ZM13.2389 38.2663C12.9717 37.9995 12.8247 37.6445 12.8247 37.2669C12.8247 36.8893 12.9717 36.5343 13.2389 36.2672L15.418 34.0881C15.8354 33.6707 16.4916 33.5563 17.0251 33.8105C17.5752 34.0726 17.8847 34.6697 17.804 35.2703C17.761 35.5909 17.6118 35.8928 17.383 36.1219L15.2383 38.2663C14.9712 38.5334 14.6162 38.6804 14.2386 38.6804C13.861 38.6804 13.506 38.5334 13.2389 38.2663ZM16.5292 41.5885C16.2621 41.3217 16.1151 40.9667 16.1151 40.5892C16.1151 40.2116 16.2621 39.8566 16.5292 39.5894L18.708 37.4103C19.1544 36.9643 19.8705 36.8682 20.417 37.1862C20.9161 37.4767 21.1775 38.0468 21.0918 38.6148C21.0448 38.9271 20.8964 39.2208 20.673 39.4442L18.5287 41.5885C18.2615 41.8557 17.9065 42.0027 17.529 42.0027C17.1514 42.0027 16.7964 41.8557 16.5292 41.5885ZM20.2771 44.4859C19.726 43.9347 19.726 43.0379 20.2771 42.4868L21.4009 41.363C21.435 41.3289 21.4705 41.297 21.5071 41.2669C21.5081 41.2662 21.5089 41.2654 21.5096 41.2647C21.6924 41.1163 21.9072 41.0169 22.1364 40.9736C22.1417 40.9728 22.1471 40.9721 22.1525 40.9714C22.1919 40.9642 22.2321 40.9585 22.2723 40.9549C22.2884 40.9535 22.3045 40.9535 22.321 40.9524C22.354 40.9506 22.3867 40.9485 22.42 40.9488C22.8048 40.9542 23.163 41.1112 23.4283 41.3917C23.461 41.4261 23.4914 41.4619 23.5194 41.4989C23.9433 42.0529 23.8862 42.8758 23.3602 43.4022L22.2762 44.4862C21.7251 45.0374 20.8283 45.037 20.2771 44.4859ZM37.4693 34.2007C36.9182 34.7522 36.0214 34.7518 35.4702 34.2007C35.4501 34.1806 35.429 34.1619 35.4075 34.1444L29.4816 28.1561C29.1233 27.7942 28.5399 27.7914 28.1781 28.1496C27.8163 28.5075 27.8134 29.0909 28.1713 29.4527L34.1614 35.5052C34.1621 35.5059 34.1628 35.5066 34.1636 35.5073C34.7147 36.0585 34.7147 36.9556 34.1636 37.5068C33.8964 37.7739 33.5414 37.9209 33.1638 37.9209C32.7859 37.9209 32.4309 37.7739 32.1641 37.5068L28.157 33.458C27.7991 33.0962 27.2157 33.0934 26.8539 33.4512C26.4921 33.8095 26.4892 34.3929 26.8471 34.7547L30.7929 38.7414C30.813 38.7665 30.8345 38.7905 30.8574 38.8135C31.4086 39.3646 31.4086 40.2618 30.8574 40.8129C30.3059 41.364 29.4088 41.3637 28.8576 40.8125L26.6706 38.6026C26.3124 38.2408 25.729 38.2376 25.3672 38.5958C25.0054 38.9537 25.0025 39.5371 25.3604 39.8989L27.4864 42.0468C27.5065 42.0719 27.528 42.0963 27.5513 42.1192C28.1024 42.6704 28.1024 43.5675 27.5513 44.1187C27.0002 44.6702 26.1034 44.6698 25.5522 44.1187C25.4887 44.0552 25.4142 44.0064 25.3432 43.9519C25.2829 43.906 25.2671 43.8741 25.2973 43.801C25.3277 43.7267 25.3733 43.6597 25.4038 43.5851C25.4375 43.5019 25.4647 43.4162 25.4913 43.3302C25.6325 42.8748 25.6741 42.3849 25.6107 41.9123C25.4887 41.0055 24.99 40.1872 24.2341 39.6694C23.8256 39.3901 23.353 39.2068 22.8632 39.138C23.1006 38.0909 22.8155 36.9556 22.074 36.1721C21.4637 35.5274 20.6393 35.1656 19.7525 35.1534C19.7202 35.1531 19.688 35.1531 19.6553 35.1534C19.6751 34.3072 19.3674 33.4663 18.784 32.8499C18.1733 32.2052 17.3489 31.8433 16.4625 31.8312C16.199 31.8276 15.9329 31.8555 15.6762 31.9147C15.5664 31.1513 15.1817 30.4449 14.599 29.9396C14.0199 29.4383 13.2916 29.1601 12.516 29.1493C11.6995 29.1375 10.8973 29.4387 10.291 29.9863L6.72848 25.1859L15.2512 14.8028L17.9675 15.5458L14.4201 21.8056C13.9912 22.5625 13.8829 23.4411 14.1149 24.2794C14.3469 25.1181 14.8912 25.8159 15.6482 26.2448C15.6955 26.2717 15.7432 26.2972 15.7916 26.3215C15.7952 26.3233 15.7988 26.3251 15.8027 26.3269C15.93 26.3904 16.0609 26.4449 16.1936 26.4908C16.8114 26.7049 17.4788 26.7282 18.1224 26.5503C18.9608 26.3183 19.6586 25.7736 20.0874 25.017L22.3928 20.9489L26.5089 21.2408L37.4697 32.2012C38.0205 32.7527 38.0205 33.6495 37.4693 34.2007ZM37.8512 29.9762L27.5689 19.6942C27.5495 19.6745 27.5291 19.6559 27.5079 19.6383C27.3598 19.515 27.1762 19.4404 26.9826 19.4267L21.9427 19.0692C21.5942 19.0452 21.2478 19.2306 21.0757 19.5343L18.4839 24.1084C18.2978 24.4368 17.9948 24.6731 17.6308 24.7739C17.2672 24.8747 16.8857 24.8273 16.5568 24.6412C16.2284 24.4551 15.9921 24.1521 15.8913 23.7882C15.7906 23.4242 15.8375 23.0427 16.024 22.7142L19.4839 16.6079L20.886 16.2045C20.8953 16.2017 20.9043 16.1981 20.9136 16.1952L26.1464 14.6841H32.4689L40.362 24.718L37.8512 29.9762ZM41.5693 23.2715L34.2701 13.9874L37.9954 11.6183L44.8159 20.4777L41.5693 23.2715Z" fill="white"/>
<path d="M28.4743 11.1104C28.7102 11.1104 28.9462 11.0204 29.1262 10.8404L35.4214 4.54514C35.7815 4.18512 35.7815 3.60171 35.4214 3.24169C35.0614 2.88168 34.478 2.88168 34.118 3.24169L27.8227 9.53695C27.4627 9.89697 27.4627 10.4804 27.8227 10.8404C28.0028 11.0204 28.2387 11.1104 28.4743 11.1104Z" fill="white"/>
<path d="M17.8739 10.8404C18.0539 11.0204 18.2898 11.1104 18.5258 11.1104C18.7614 11.1104 18.9973 11.0204 19.1773 10.8404C19.5373 10.4804 19.5373 9.89697 19.1773 9.53695L12.8821 3.24169C12.522 2.88168 11.9386 2.88168 11.5786 3.24169C11.2186 3.60171 11.2186 4.18512 11.5786 4.54514L17.8739 10.8404Z" fill="white"/>
<path d="M23.4997 11.1106C24.0085 11.1106 24.4212 10.6978 24.4212 10.189V4.97917C24.4212 4.47034 24.0085 4.05762 23.4997 4.05762C22.9909 4.05762 22.5781 4.47034 22.5781 4.97917V10.189C22.5781 10.6978 22.9909 11.1106 23.4997 11.1106Z" fill="white"/>
<path d="M22.6507 1.63871C22.797 1.99335 23.1617 2.22607 23.5464 2.20599C23.9265 2.18626 24.2604 1.92952 24.378 1.56771C24.496 1.20303 24.3676 0.787437 24.0621 0.555076C23.7505 0.317695 23.3159 0.304428 22.9899 0.519935C22.6263 0.760185 22.4854 1.23853 22.6507 1.63871Z" fill="white"/>
</g>
<defs>
<clipPath id="clip0">
<rect width="47" height="47" fill="white"/>
</clipPath>
</defs>
</svg>
