<svg width="82" height="82" viewBox="0 0 82 82" fill="none" xmlns="http://www.w3.org/2000/svg">
<path d="M0.99895 28.918L39.9235 53.1512C40.2508 53.3579 40.6297 53.4612 41.0086 53.4612C41.3875 53.4612 41.7664 53.3579 42.0937 53.1512L81.0183 28.918C81.6211 28.5391 82 27.8846 82 27.1613C82 26.4551 81.6383 25.7834 81.0183 25.4045L42.0937 1.17135C41.422 0.757988 40.578 0.757988 39.9063 1.17135L0.981726 25.4045C0.378912 25.7834 0 26.4379 0 27.1613C0.0172233 27.8846 0.378912 28.5391 0.99895 28.918ZM41.0086 5.3566L76.0235 27.1613L41.0086 48.9659L5.9937 27.1613L41.0086 5.3566Z" fill="#EF7E20"/>
<path d="M79.9332 38.9424C79.3821 38.9424 78.8482 39.1663 78.4693 39.5452C78.0904 39.9241 77.8665 40.458 77.8665 41.0092C77.8665 41.5603 78.0904 42.0942 78.4693 42.4731C78.8482 42.8521 79.3821 43.076 79.9332 43.076C80.4844 43.076 81.0183 42.8521 81.3972 42.4731C81.7761 42.0942 82 41.5603 82 41.0092C82 40.458 81.7761 39.9241 81.3972 39.5452C81.0183 39.1663 80.4844 38.9424 79.9332 38.9424Z" fill="#EF7E20"/>
<path d="M72.3549 43.299C71.3904 43.9018 71.0804 45.1763 71.7005 46.1409C72.0966 46.7609 72.7683 47.1226 73.4572 47.1226C73.8361 47.1226 74.2151 47.0192 74.5423 46.8126C75.5068 46.2097 75.7996 44.9352 75.1968 43.9707C74.594 42.989 73.3195 42.6962 72.3549 43.299Z" fill="#EF7E20"/>
<path d="M52.8928 55.4072C51.9283 56.01 51.6183 57.2845 52.2383 58.249C52.6344 58.8863 53.3061 59.2308 53.9951 59.2308C54.374 59.2308 54.7529 59.1274 55.0801 58.9208C56.0446 58.3179 56.3374 57.0434 55.7346 56.0789C55.1318 55.1144 53.8573 54.8044 52.8928 55.4072Z" fill="#EF7E20"/>
<path d="M46.3996 59.4543C45.435 60.0571 45.1423 61.3316 45.7451 62.2961C46.1412 62.9334 46.8129 63.2778 47.5018 63.2778C47.8808 63.2778 48.2597 63.1745 48.5869 62.9678C49.5514 62.365 49.8442 61.0905 49.2414 60.126C48.6386 59.1443 47.3813 58.8515 46.3996 59.4543Z" fill="#EF7E20"/>
<path d="M59.3858 51.3771C58.4213 51.98 58.1113 53.2545 58.7141 54.219C59.1102 54.8563 59.7819 55.2007 60.4709 55.2007C60.8498 55.2007 61.2287 55.0974 61.5559 54.8907C62.5204 54.2879 62.8132 53.0134 62.2104 52.0489C61.6248 51.0671 60.3503 50.7743 59.3858 51.3771Z" fill="#EF7E20"/>
<path d="M65.8617 47.3469C64.8972 47.9497 64.6044 49.2242 65.2072 50.1887C65.6034 50.8087 66.2751 51.1704 66.964 51.1704C67.3429 51.1704 67.7218 51.0671 68.0491 50.8604C69.0136 50.2576 69.3064 48.9831 68.7036 48.0186C68.1007 47.0368 66.8434 46.744 65.8617 47.3469Z" fill="#EF7E20"/>
<path d="M39.5447 63.7776C39.1658 64.1565 38.9419 64.6905 38.9419 65.2416C38.9419 65.7927 39.1658 66.3267 39.5447 66.7056C39.9236 67.0845 40.4575 67.3084 41.0087 67.3084C41.5598 67.3084 42.0938 67.0845 42.4727 66.7056C42.8516 66.3267 43.0755 65.7927 43.0755 65.2416C43.0755 64.6905 42.8516 64.1565 42.4727 63.7776C42.0938 63.3987 41.5598 63.1748 41.0087 63.1748C40.4575 63.1748 39.9408 63.3987 39.5447 63.7776Z" fill="#EF7E20"/>
<path d="M32.7587 60.1094C32.1559 61.0739 32.4487 62.3484 33.4132 62.9512C33.7577 63.1579 34.1366 63.2612 34.4983 63.2612C35.1872 63.2612 35.8589 62.9168 36.2551 62.2795C36.8579 61.315 36.5651 60.0405 35.5834 59.4377C34.6361 58.8521 33.3616 59.1449 32.7587 60.1094Z" fill="#EF7E20"/>
<path d="M6.82051 43.9539C6.21769 44.9184 6.51049 46.1929 7.47499 46.7958C7.81946 47.0024 8.19837 47.1058 8.56006 47.1058C9.24899 47.1058 9.9207 46.7613 10.3168 46.124C10.9196 45.1595 10.6268 43.885 9.66235 43.2822C8.69784 42.6794 7.42332 42.9894 6.82051 43.9539Z" fill="#EF7E20"/>
<path d="M26.2827 56.0789C25.6799 57.0434 25.9726 58.3179 26.9371 58.9208C27.2816 59.1274 27.6605 59.2308 28.0222 59.2308C28.7111 59.2308 29.3829 58.8863 29.779 58.249C30.3818 57.2845 30.089 56.01 29.1245 55.4072C28.16 54.8044 26.8855 55.1144 26.2827 56.0789Z" fill="#EF7E20"/>
<path d="M19.7895 52.0312C19.1867 52.9957 19.4795 54.2703 20.444 54.8731C20.7885 55.0798 21.1674 55.1831 21.5291 55.1831C22.218 55.1831 22.8897 54.8386 23.2858 54.2014C23.8886 53.2369 23.5958 51.9623 22.6141 51.3595C21.6668 50.7739 20.3923 51.0667 19.7895 52.0312Z" fill="#EF7E20"/>
<path d="M13.2963 48.001C12.6935 48.9655 12.9863 50.24 13.9508 50.8428C14.2953 51.0495 14.6742 51.1528 15.0359 51.1528C15.7248 51.1528 16.3965 50.8084 16.7927 50.1711C17.3955 49.2066 17.1027 47.9321 16.1382 47.3293C15.1737 46.7437 13.8992 47.0365 13.2963 48.001Z" fill="#EF7E20"/>
<path d="M2.08413 43.076C2.63527 43.076 3.16919 42.8521 3.5481 42.4731C3.92702 42.0942 4.15092 41.5603 4.15092 41.0092C4.15092 40.458 3.92702 39.9241 3.5481 39.5452C3.16919 39.1663 2.63527 38.9424 2.08413 38.9424C1.53298 38.9424 0.99906 39.1663 0.620148 39.5452C0.241236 39.9241 0.017334 40.458 0.017334 41.0092C0.017334 41.5603 0.241236 42.0942 0.620148 42.4731C1.01628 42.8693 1.53298 43.076 2.08413 43.076Z" fill="#EF7E20"/>
<path d="M78.8482 53.0996L41.0087 76.661L3.16918 53.0996C2.20468 52.4967 0.930159 52.7895 0.327344 53.754C-0.27547 54.7186 0.0173255 55.9931 0.981829 56.5959L39.9064 80.829C40.2337 81.0357 40.6126 81.139 40.9915 81.139C41.3704 81.139 41.7493 81.0357 42.0766 80.829L81.0012 56.5959C81.9657 55.9931 82.2585 54.7186 81.6556 53.754C81.0873 52.7895 79.8128 52.4967 78.8482 53.0996Z" fill="#EF7E20"/>
</svg>
