<svg width="72" height="72" viewBox="0 0 72 72" fill="none" xmlns="http://www.w3.org/2000/svg">
<path d="M66.7266 22.3093H61.9487C61.3662 22.3093 60.894 22.7815 60.894 23.364C60.894 23.9465 61.3662 24.4187 61.9487 24.4187H66.7266C68.4713 24.4187 69.8906 25.838 69.8906 27.5828V69.8203C69.8906 69.8591 69.8591 69.8906 69.8203 69.8906H58.0809V65.6719H63.4686C64.665 65.6719 65.6428 64.6985 65.6482 63.502L65.6719 58.3088C65.683 57.117 64.6805 56.1133 63.4922 56.1192H58.0809V51.9615H63.4686C64.665 51.9615 65.6428 50.9882 65.6482 49.7918L65.6719 44.5984C65.683 43.4066 64.6805 42.4031 63.4922 42.4088H58.0809V38.1901H63.4686C64.665 38.1901 65.6428 37.2167 65.6482 36.0203L65.6719 30.8268C65.683 29.6352 64.6805 28.6315 63.4922 28.6373H58.0809V17.7188C58.0809 14.8109 55.7153 12.4453 52.8075 12.4453H49.4589C48.9192 5.49239 43.089 0 36 0C28.911 0 23.0808 5.49239 22.5411 12.4453H19.125C16.2172 12.4453 13.8516 14.8109 13.8516 17.7188V22.3093H5.27344C2.36559 22.3093 0 24.6749 0 27.5828V69.8203C0 71.0222 0.977766 72 2.17969 72H69.8203C71.0222 72 72 71.0222 72 69.8203V27.5828C72 24.6749 69.6344 22.3093 66.7266 22.3093ZM58.0809 30.7468H63.4922C63.4994 30.7468 63.5214 30.7468 63.542 30.7675C63.5625 30.7882 63.5625 30.8101 63.5625 30.8173L63.539 36.0105C63.5389 36.0492 63.5072 36.0806 63.4687 36.0806H58.0809V30.7468ZM58.0809 44.5182H63.4922C63.4994 44.5182 63.5214 44.5182 63.542 44.5389C63.5625 44.5596 63.5625 44.5816 63.5625 44.5888L63.539 49.7821C63.5389 49.8206 63.5072 49.8521 63.4687 49.8521H58.0809V44.5182ZM58.0809 58.2286H63.4922C63.4994 58.2286 63.5214 58.2286 63.542 58.2493C63.5625 58.2699 63.5625 58.292 63.5625 58.2992L63.539 63.4925C63.5389 63.531 63.5072 63.5625 63.4687 63.5625H58.0809V58.2286ZM13.8516 63.5625H8.53172C8.49248 63.5625 8.46155 63.532 8.46141 63.4929L8.4375 58.2997C8.4375 58.2923 8.43736 58.2699 8.45803 58.2493C8.47856 58.2286 8.50064 58.2286 8.50781 58.2286H13.8516V63.5625ZM13.8516 49.8516H8.53172C8.49248 49.8516 8.46155 49.821 8.46141 49.782L8.4375 44.5888C8.4375 44.5815 8.43736 44.5596 8.45831 44.5385C8.47898 44.5177 8.50064 44.5177 8.50781 44.5177H13.8516V49.8516ZM13.8516 36.0802H8.53172C8.49248 36.0802 8.46155 36.0496 8.46141 36.0105L8.4375 30.8174C8.4375 30.8101 8.43736 30.7882 8.45831 30.7671C8.47898 30.7463 8.50064 30.7463 8.50781 30.7463H13.8516V36.0802ZM13.8516 28.6369H8.50781C7.31517 28.6303 6.31758 29.6367 6.32812 30.8271L6.35203 36.0203C6.35752 37.2164 7.33528 38.1895 8.53172 38.1895H13.8516V42.4083H8.50781C7.31517 42.4017 6.31758 43.4083 6.32812 44.5985L6.35203 49.7918C6.35752 50.988 7.33528 51.9611 8.53172 51.9611H13.8516V56.1194H8.50781C7.31447 56.1128 6.31758 57.1185 6.32812 58.3096L6.35203 63.5029C6.35737 64.6987 7.33528 65.6719 8.53172 65.6719H13.8516V69.8906H2.17969C2.14088 69.8906 2.10938 69.8591 2.10938 69.8203V27.5828C2.10938 25.838 3.5287 24.4187 5.27344 24.4187H13.8516V28.6369ZM36 2.10938C42.2809 2.10938 47.3906 7.21912 47.3906 13.5C47.3906 19.7809 42.2809 24.8906 36 24.8906C29.7191 24.8906 24.6094 19.7809 24.6094 13.5C24.6094 7.21912 29.7191 2.10938 36 2.10938ZM45.4252 69.8906H37.0547V51.3177H45.4252V69.8906ZM24.4654 49.2083V47.099H47.5348V49.2083H24.4654ZM55.9716 69.8906H47.5346V51.3177C48.6356 51.3816 49.651 50.5763 49.644 49.4193V46.888C49.644 45.8412 48.7924 44.9896 47.7456 44.9896H24.2544C23.2076 44.9896 22.356 45.8412 22.356 46.888V49.4193C22.3485 50.5277 23.3459 51.433 24.4654 51.3177V58.7862C24.4654 59.3686 24.9376 59.8409 25.5201 59.8409C26.1025 59.8409 26.5747 59.3686 26.5747 58.7862V51.3177H34.9453V69.8906H26.5747V63.708C26.5747 63.1256 26.1025 62.6534 25.5201 62.6534C24.9376 62.6534 24.4654 63.1256 24.4654 63.708V69.8906H15.9609V17.7188C15.9609 15.974 17.3803 14.5547 19.125 14.5547H22.5411C23.0808 21.5076 28.911 27 36 27C43.089 27 48.9192 21.5076 49.4589 14.5547H52.8075C54.5522 14.5547 55.9716 15.974 55.9716 17.7188V69.8906ZM32.8359 16.6641V20.8828C32.8359 21.9296 33.6876 22.7812 34.7344 22.7812H37.2656C38.3124 22.7812 39.1641 21.9296 39.1641 20.8828V16.6641H43.3828C44.4296 16.6641 45.2812 15.8124 45.2812 14.7656V12.2344C45.2812 11.1876 44.4296 10.3359 43.3828 10.3359H39.1641V6.11719C39.1641 5.07037 38.3124 4.21875 37.2656 4.21875H34.7344C33.6876 4.21875 32.8359 5.07037 32.8359 6.11719V10.3359H28.6172C27.5704 10.3359 26.7188 11.1876 26.7188 12.2344V14.7656C26.7188 15.8124 27.5704 16.6641 28.6172 16.6641H32.8359ZM28.8281 12.4453H33.4688C34.283 12.4453 34.9453 11.783 34.9453 10.9688V6.32812H37.0547V10.9688C37.0547 11.783 37.717 12.4453 38.5312 12.4453H43.1719V14.5547H38.5312C37.717 14.5547 37.0547 15.217 37.0547 16.0312V20.6719H34.9453V16.0312C34.9453 15.217 34.283 14.5547 33.4688 14.5547H28.8281V12.4453ZM31.7812 62.7383C32.3637 62.7383 32.8359 62.2661 32.8359 61.6836V59.5249C32.8359 58.9424 32.3637 58.4702 31.7812 58.4702C31.1988 58.4702 30.7266 58.9424 30.7266 59.5249V61.6836C30.7266 62.2661 31.1988 62.7383 31.7812 62.7383ZM31.7109 31.2188H22.3881C21.1915 31.2188 20.2137 32.1922 20.2084 33.3886L20.1849 38.5817C20.1722 39.7675 21.1738 40.7782 22.3646 40.7714H31.7109C32.9129 40.7714 33.8906 39.7936 33.8906 38.5917V33.3984C33.8906 32.1965 32.9129 31.2188 31.7109 31.2188ZM31.7812 38.5917C31.7812 38.6305 31.7498 38.662 31.7109 38.662H22.3644C22.3365 38.6657 22.2903 38.6194 22.2941 38.5914L22.3176 33.398C22.3178 33.3595 22.3493 33.3281 22.3879 33.3281H31.7109C31.7498 33.3281 31.7812 33.3596 31.7812 33.3984V38.5917ZM40.2188 62.7383C40.8012 62.7383 41.2734 62.2661 41.2734 61.6836V59.5249C41.2734 58.9424 40.8012 58.4702 40.2188 58.4702C39.6363 58.4702 39.1641 58.9424 39.1641 59.5249V61.6836C39.1641 62.2661 39.6363 62.7383 40.2188 62.7383ZM49.6018 31.2188H40.2891C39.0871 31.2188 38.1094 32.1965 38.1094 33.3984V38.5917C38.1094 39.7936 39.0871 40.7714 40.2891 40.7714H49.5782C50.7746 40.7714 51.7524 39.798 51.7579 38.6016L51.7814 33.4081C51.7926 32.2166 50.79 31.213 49.6018 31.2188ZM49.6485 38.592C49.6484 38.6305 49.6167 38.662 49.5782 38.662H40.2891C40.2503 38.662 40.2188 38.6305 40.2188 38.5917V33.3984C40.2188 33.3596 40.2503 33.3281 40.2891 33.3281H49.6018C49.609 33.3281 49.6311 33.3281 49.6516 33.3488C49.6721 33.3695 49.6721 33.3914 49.6721 33.3986L49.6485 38.592Z" fill="#EF7E20"/>
</svg>
