<svg width="70" height="70" viewBox="0 0 70 70" fill="none" xmlns="http://www.w3.org/2000/svg">
<path d="M13.6045 34.2926L33.9078 17.4809C34.5405 16.957 35.4592 16.9568 36.092 17.4809L59.5632 36.9158C59.7549 37.0746 59.987 37.152 60.218 37.152C60.5133 37.152 60.8067 37.0251 61.0098 36.7798C61.3717 36.3427 61.3109 35.6951 60.8738 35.3333L37.4025 15.8982C36.9888 15.5557 36.519 15.3176 36.0272 15.1785V11.9898H49.0634C49.6309 11.9898 50.0908 11.5299 50.0908 10.9624V2.79371C50.0908 2.22619 49.6309 1.76627 49.0634 1.76627H36.0272V1.02744C36.0274 0.459922 35.5674 0 34.9999 0C34.4325 0 33.9725 0.459922 33.9725 1.02744V15.1787C33.4808 15.3176 33.0109 15.5559 32.5974 15.8983L12.2941 32.7101C11.857 33.072 11.7961 33.7196 12.1579 34.1566C12.5199 34.5935 13.1676 34.6548 13.6045 34.2926ZM48.0361 3.82102V9.93494H36.0272V3.82102H48.0361Z" fill="#EF7E20"/>
<path d="M68.6355 41.7606L64.0384 37.9541C63.6013 37.592 62.9537 37.653 62.5919 38.0901C62.23 38.5272 62.2908 39.1748 62.7279 39.5366L67.325 43.343C67.7191 43.6693 67.9453 44.1502 67.9453 44.662V67.5933C67.9453 67.7876 67.7871 67.9456 67.5929 67.9456H44.6358V44.8508C44.6358 44.2833 44.1759 43.8234 43.6084 43.8234H26.3914C25.824 43.8234 25.3639 44.2833 25.3639 44.8508V67.9459H2.40721C2.21293 67.9459 2.05475 67.7877 2.05475 67.5936V44.6622C2.05475 44.1503 2.28088 43.6696 2.67504 43.3431L10.4367 36.9164C10.8738 36.5545 10.9346 35.907 10.5729 35.4699C10.2108 35.0328 9.5632 34.9718 9.12625 35.3339L1.36459 41.7606C0.497383 42.4788 0 43.5362 0 44.6622V67.5935C0 68.9209 1.07994 70.0007 2.40721 70.0007H67.5928C68.9201 70.0007 70 68.9209 70 67.5935V44.6622C70 43.5363 69.5028 42.4789 68.6355 41.7606ZM27.4189 45.8783H33.9726V59.1341C33.9726 59.7016 34.4326 60.1616 35 60.1616C35.5675 60.1616 36.0274 59.7016 36.0274 59.1341V45.8783H42.5811V67.9459H36.0274V63.2438C36.0274 62.6762 35.5675 62.2163 35 62.2163C34.4326 62.2163 33.9726 62.6762 33.9726 63.2438V67.9459H27.4189V45.8783Z" fill="#EF7E20"/>
<path d="M8.75391 51.6517V58.8996C8.75391 60.0484 9.68852 60.983 10.8372 60.983H18.0851C19.2338 60.983 20.1684 60.0484 20.1684 58.8996V51.6517C20.1684 50.503 19.2338 49.5684 18.0851 49.5684H10.8372C9.68852 49.5685 8.75391 50.503 8.75391 51.6517ZM10.8088 51.6517C10.8088 51.6361 10.8216 51.6232 10.8372 51.6232H18.0851C18.1008 51.6232 18.1137 51.6361 18.1137 51.6517V58.8996C18.1137 58.9153 18.1008 58.9281 18.0851 58.9281H10.8372C10.8215 58.9281 10.8088 58.9153 10.8088 58.8996V51.6517Z" fill="#EF7E20"/>
<path d="M59.1627 49.5684H51.9149C50.7662 49.5684 49.8315 50.503 49.8315 51.6517V58.8996C49.8315 60.0484 50.7662 60.983 51.9149 60.983H59.1627C60.3114 60.983 61.2461 60.0484 61.2461 58.8996V51.6517C61.2461 50.5028 60.3114 49.5684 59.1627 49.5684ZM59.1912 58.8994C59.1912 58.9151 59.1783 58.928 59.1627 58.928H51.9149C51.8991 58.928 51.8863 58.9151 51.8863 58.8994V51.6515C51.8863 51.636 51.8991 51.6231 51.9149 51.6231H59.1627C59.1785 51.6231 59.1912 51.636 59.1912 51.6515V58.8994Z" fill="#EF7E20"/>
<path d="M42.2246 30.6045C42.01 29.9439 41.4795 29.4494 40.8055 29.2815L38.1477 28.6192L36.6968 26.2962C36.6968 26.2962 36.6968 26.2962 36.6967 26.2962C36.3286 25.7071 35.6943 25.3555 34.9997 25.3555C34.3051 25.3555 33.6707 25.707 33.3028 26.2962L31.8518 28.6192L29.1942 29.2815C28.5202 29.4492 27.9896 29.9439 27.775 30.6044C27.5603 31.2651 27.6987 31.9772 28.1453 32.5096L29.9063 34.6072L29.7147 37.3394C29.6662 38.0325 29.9727 38.6899 30.5348 39.0982C30.8837 39.3515 31.2933 39.4817 31.708 39.4817C31.9613 39.4817 32.2164 39.4331 32.4606 39.3344L34.9997 38.3081L37.539 39.3346C38.1832 39.5949 38.9032 39.5064 39.465 39.0983C40.027 38.6899 40.3334 38.0325 40.2849 37.3396L40.0933 34.6072L41.8543 32.5097C42.3009 31.9773 42.4394 31.2653 42.2246 30.6045ZM38.5053 33.3031C38.1702 33.7027 38.0056 34.2091 38.0423 34.7293L38.2293 37.3973L35.7496 36.395C35.5079 36.2972 35.2539 36.2484 34.9999 36.2484C34.7458 36.2484 34.4918 36.2972 34.2501 36.395L31.7706 37.3973L31.9575 34.7293C31.994 34.2092 31.8295 33.7027 31.494 33.3028L29.7746 31.2545L32.3695 30.6078C32.8757 30.4817 33.3066 30.1688 33.5829 29.7264L34.9997 27.4581L36.4166 29.7264C36.6929 30.1688 37.1238 30.4817 37.6299 30.6078L40.225 31.2545L38.5053 33.3031Z" fill="#EF7E20"/>
</svg>
