<svg width="70" height="70" viewBox="0 0 70 70" fill="none" xmlns="http://www.w3.org/2000/svg">
<path d="M29.2188 44.25H31.5312V46.5625H29.2188V44.25Z" fill="#EF7E20"/>
<path d="M33.8438 44.25H36.1562V46.5625H33.8438V44.25Z" fill="#EF7E20"/>
<path d="M38.4688 44.25H40.7812V46.5625H38.4688V44.25Z" fill="#EF7E20"/>
<path d="M29.2188 48.875H31.5312V51.1875H29.2188V48.875Z" fill="#EF7E20"/>
<path d="M33.8438 48.875H36.1562V51.1875H33.8438V48.875Z" fill="#EF7E20"/>
<path d="M38.4688 48.875H40.7812V51.1875H38.4688V48.875Z" fill="#EF7E20"/>
<path d="M29.2188 53.5H31.5312V55.8125H29.2188V53.5Z" fill="#EF7E20"/>
<path d="M33.8438 53.5H36.1562V55.8125H33.8438V53.5Z" fill="#EF7E20"/>
<path d="M38.4688 53.5H40.7812V55.8125H38.4688V53.5Z" fill="#EF7E20"/>
<path d="M29.2188 35H31.5312V37.3125H29.2188V35Z" fill="#EF7E20"/>
<path d="M33.8438 35H36.1562V37.3125H33.8438V35Z" fill="#EF7E20"/>
<path d="M38.4688 35H40.7812V37.3125H38.4688V35Z" fill="#EF7E20"/>
<path d="M29.2188 39.625H31.5312V41.9375H29.2188V39.625Z" fill="#EF7E20"/>
<path d="M33.8438 39.625H36.1562V41.9375H33.8438V39.625Z" fill="#EF7E20"/>
<path d="M38.4688 39.625H40.7812V41.9375H38.4688V39.625Z" fill="#EF7E20"/>
<path d="M23.7076 9.91526L28.5153 14.6015L27.3803 21.2186C27.3438 21.4313 27.3675 21.6499 27.4488 21.8498C27.5301 22.0496 27.6656 22.2228 27.8402 22.3496C28.0148 22.4764 28.2213 22.5519 28.4365 22.5674C28.6517 22.583 28.867 22.538 29.058 22.4376L34.9999 19.3134L40.9425 22.4376C41.1335 22.538 41.3487 22.583 41.5639 22.5674C41.7792 22.5519 41.9857 22.4764 42.1603 22.3496C42.3348 22.2228 42.4704 22.0496 42.5517 21.8498C42.633 21.6499 42.6567 21.4313 42.6202 21.2186L41.4852 14.6015L46.2935 9.91526C46.448 9.76466 46.5573 9.57384 46.609 9.36436C46.6607 9.15489 46.6528 8.93512 46.5861 8.72992C46.5194 8.52472 46.3967 8.34226 46.2317 8.2032C46.0667 8.06413 45.8661 7.97399 45.6526 7.94298L39.0087 6.97766L36.0374 0.957066C35.9419 0.763587 35.7942 0.600683 35.611 0.486775C35.4277 0.372867 35.2163 0.3125 35.0005 0.3125C34.7848 0.3125 34.5733 0.372867 34.3901 0.486775C34.2068 0.600683 34.0591 0.763587 33.9637 0.957066L30.9924 6.97766L24.348 7.94298C24.1345 7.97399 23.9339 8.06413 23.7689 8.2032C23.6039 8.34226 23.4812 8.52472 23.4145 8.72992C23.3478 8.93512 23.3399 9.15489 23.3916 9.36436C23.4433 9.57384 23.5526 9.76466 23.7071 9.91526H23.7076ZM31.9265 9.17815C32.112 9.15117 32.2882 9.07949 32.4398 8.96928C32.5915 8.85908 32.7141 8.71365 32.797 8.54553L34.9999 4.08154L37.2035 8.54611C37.2864 8.71423 37.409 8.85965 37.5606 8.96986C37.7123 9.08007 37.8885 9.15175 38.074 9.17873L43.0011 9.89459L39.4371 13.37C39.3028 13.5009 39.2024 13.6624 39.1445 13.8407C39.0866 14.019 39.0729 14.2087 39.1046 14.3934L39.9462 19.3005L35.5393 16.9837C35.3734 16.8965 35.1887 16.8509 35.0012 16.8509C34.8138 16.8509 34.6291 16.8965 34.4632 16.9837L30.0563 19.3005L30.8979 14.3934C30.9296 14.2087 30.9159 14.019 30.858 13.8407C30.8 13.6624 30.6997 13.5009 30.5654 13.37L26.9994 9.89502L31.9265 9.17815Z" fill="#EF7E20"/>
<path d="M45.4628 19.1148C45.3962 19.32 45.3882 19.5397 45.4399 19.7491C45.4916 19.9586 45.6009 20.1494 45.7554 20.3L48.9569 23.4207L48.2011 27.8273C48.1646 28.04 48.1884 28.2586 48.2696 28.4585C48.3509 28.6583 48.4865 28.8315 48.6611 28.9583C48.8356 29.0851 49.0422 29.1606 49.2574 29.1761C49.4726 29.1917 49.6879 29.1467 49.8788 29.0463L53.8362 26.9658L57.7937 29.0463C57.9846 29.1467 58.1999 29.1916 58.4151 29.176C58.6302 29.1605 58.8368 29.085 59.0113 28.9582C59.1858 28.8314 59.3214 28.6583 59.4027 28.4584C59.484 28.2586 59.5077 28.0399 59.4712 27.8273L58.7153 23.4207L61.917 20.3C62.0715 20.1494 62.1808 19.9586 62.2325 19.7491C62.2842 19.5396 62.2763 19.3198 62.2096 19.1146C62.143 18.9094 62.0202 18.727 61.8552 18.5879C61.6903 18.4488 61.4897 18.3587 61.2761 18.3277L56.8518 17.6851L54.873 13.6757C54.7775 13.4822 54.6298 13.3194 54.4465 13.2055C54.2633 13.0916 54.0519 13.0312 53.8362 13.0312C53.6204 13.0312 53.409 13.0916 53.2258 13.2055C53.0426 13.3194 52.8949 13.4822 52.7994 13.6757L50.8206 17.6851L46.3962 18.328C46.1827 18.359 45.9822 18.4491 45.8172 18.5882C45.6523 18.7272 45.5295 18.9096 45.4628 19.1148ZM51.7547 19.886C51.9402 19.8591 52.1164 19.7874 52.2681 19.6773C52.4198 19.5671 52.5424 19.4217 52.6254 19.2536L53.8362 16.8L55.0471 19.2536C55.1301 19.4217 55.2527 19.5671 55.4043 19.6772C55.556 19.7874 55.7321 19.8591 55.9176 19.886L58.6251 20.2794L56.666 22.1893C56.5318 22.3201 56.4314 22.4817 56.3735 22.66C56.3156 22.8383 56.3019 23.028 56.3336 23.2127L56.7961 25.9094L54.3743 24.6361C54.2084 24.5488 54.0238 24.5033 53.8363 24.5033C53.6489 24.5033 53.4642 24.5488 53.2983 24.6361L50.8765 25.9094L51.339 23.2127C51.3707 23.028 51.357 22.8383 51.2991 22.66C51.2412 22.4817 51.1408 22.3201 51.0066 22.1893L49.0472 20.2794L51.7547 19.886Z" fill="#EF7E20"/>
<path d="M58.3883 31.6986C58.1748 31.7296 57.9742 31.8198 57.8093 31.9588C57.6444 32.0979 57.5217 32.2803 57.455 32.4855C57.3884 32.6907 57.3804 32.9104 57.4321 33.1199C57.4838 33.3293 57.5931 33.5201 57.7476 33.6707L59.8064 35.6777L59.3203 38.5119C59.2839 38.7246 59.3076 38.9432 59.3889 39.143C59.4702 39.3429 59.6057 39.516 59.7803 39.6428C59.9548 39.7696 60.1613 39.8451 60.3765 39.8607C60.5917 39.8762 60.8069 39.8313 60.9979 39.7309L63.5428 38.393L66.0877 39.7309C66.2787 39.8312 66.4939 39.8762 66.7091 39.8606C66.9242 39.845 67.1308 39.7695 67.3053 39.6427C67.4798 39.5159 67.6153 39.3428 67.6966 39.1429C67.7779 38.9431 67.8016 38.7245 67.7652 38.5119L67.2791 35.6782L69.3382 33.6701C69.4927 33.5195 69.602 33.3287 69.6537 33.1193C69.7053 32.9098 69.6974 32.6901 69.6307 32.4849C69.5641 32.2797 69.4413 32.0973 69.2764 31.9582C69.1114 31.8192 68.9109 31.729 68.6974 31.698L65.8521 31.2854L64.5803 28.7071C64.4848 28.5136 64.3371 28.3507 64.1538 28.2368C63.9706 28.1229 63.7592 28.0625 63.5434 28.0625C63.3276 28.0625 63.1162 28.1229 62.933 28.2368C62.7497 28.3507 62.602 28.5136 62.5065 28.7071L61.2347 31.2854L58.3883 31.6986ZM63.039 32.8537L63.5435 31.8313L64.0482 32.8537C64.1311 33.0216 64.2536 33.167 64.4051 33.2771C64.5566 33.3873 64.7325 33.459 64.9179 33.4861L66.0463 33.6502L65.2298 34.446C65.0955 34.5768 64.9951 34.7384 64.9372 34.9167C64.8793 35.095 64.8656 35.2848 64.8974 35.4695L65.0902 36.5933L64.0809 36.0627C63.915 35.9755 63.7304 35.9299 63.5429 35.9299C63.3554 35.9299 63.1708 35.9755 63.0049 36.0627L61.9956 36.5933L62.1883 35.4695C62.22 35.2848 62.2063 35.095 62.1484 34.9167C62.0905 34.7384 61.9901 34.5768 61.8559 34.446L61.0395 33.6502L62.1679 33.4861C62.3535 33.4593 62.5298 33.3876 62.6815 33.2775C62.8333 33.1673 62.956 33.0218 63.039 32.8537Z" fill="#EF7E20"/>
<path d="M8.08317 20.3L11.2848 23.4207L10.5289 27.8273C10.4924 28.0399 10.5162 28.2585 10.5975 28.4584C10.6787 28.6582 10.8143 28.8314 10.9888 28.9582C11.1634 29.085 11.3699 29.1605 11.5851 29.176C11.8003 29.1916 12.0155 29.1467 12.2065 29.0463L16.1639 26.9657L20.1213 29.0463C20.3123 29.1467 20.5276 29.1917 20.7428 29.1761C20.958 29.1606 21.1645 29.0851 21.3391 28.9583C21.5137 28.8315 21.6492 28.6583 21.7305 28.4585C21.8118 28.2586 21.8355 28.04 21.799 27.8273L21.0433 23.4207L24.2448 20.3C24.3993 20.1494 24.5086 19.9585 24.5603 19.7491C24.612 19.5396 24.6041 19.3198 24.5374 19.1146C24.4708 18.9094 24.348 18.727 24.183 18.5879C24.0181 18.4488 23.8175 18.3587 23.6039 18.3277L19.1796 17.685L17.2008 13.6757C17.1053 13.4822 16.9576 13.3194 16.7744 13.2055C16.5911 13.0916 16.3797 13.0312 16.164 13.0312C15.9483 13.0312 15.7368 13.0916 15.5536 13.2055C15.3704 13.3194 15.2227 13.4822 15.1272 13.6757L13.1484 17.685L8.72445 18.3277C8.51093 18.3587 8.31034 18.4488 8.14537 18.5879C7.98041 18.727 7.85765 18.9094 7.79097 19.1146C7.72429 19.3198 7.71636 19.5396 7.76808 19.7491C7.81979 19.9585 7.92909 20.1494 8.0836 20.3H8.08317ZM14.0825 19.8859C14.268 19.8589 14.4442 19.7873 14.5958 19.6771C14.7475 19.5669 14.8701 19.4215 14.953 19.2534L16.1639 16.7999L17.3748 19.2534C17.4578 19.4215 17.5804 19.5669 17.7321 19.6771C17.8837 19.7873 18.0599 19.8589 18.2454 19.8859L20.953 20.2793L18.9938 22.1891C18.8596 22.32 18.7592 22.4815 18.7013 22.6598C18.6434 22.8381 18.6297 23.0278 18.6614 23.2126L19.1239 25.9092L16.7021 24.6359C16.5362 24.5488 16.3516 24.5032 16.1641 24.5032C15.9767 24.5032 15.7921 24.5488 15.6261 24.6359L13.2049 25.9088L13.6674 23.2121C13.6991 23.0274 13.6854 22.8377 13.6275 22.6594C13.5696 22.4811 13.4692 22.3196 13.335 22.1887L11.375 20.2793L14.0825 19.8859Z" fill="#EF7E20"/>
<path d="M0.661571 33.6701L2.72042 35.6777L2.23465 38.5119C2.19815 38.7246 2.22188 38.9432 2.30317 39.1431C2.38445 39.343 2.52004 39.5161 2.69459 39.6429C2.86915 39.7697 3.07572 39.8452 3.29092 39.8608C3.50613 39.8763 3.72139 39.8313 3.91237 39.7309L6.45727 38.393L9.00218 39.7309C9.19314 39.8312 9.40835 39.8761 9.62349 39.8605C9.83862 39.8449 10.0451 39.7694 10.2196 39.6426C10.3941 39.5158 10.5296 39.3427 10.6109 39.1429C10.6921 38.9431 10.7159 38.7245 10.6795 38.5119L10.1934 35.6777L12.2523 33.6701C12.4067 33.5195 12.516 33.3287 12.5677 33.1193C12.6194 32.9098 12.6114 32.6901 12.5448 32.4849C12.4781 32.2798 12.3554 32.0973 12.1905 31.9583C12.0256 31.8192 11.825 31.729 11.6115 31.698L8.76616 31.2854L7.49429 28.7071C7.39881 28.5136 7.2511 28.3507 7.06786 28.2368C6.88462 28.1229 6.67317 28.0625 6.45742 28.0625C6.24166 28.0625 6.03021 28.1229 5.84698 28.2368C5.66374 28.3507 5.51603 28.5136 5.42055 28.7071L4.14868 31.2854L1.30242 31.6986C1.08905 31.7297 0.888622 31.8198 0.723788 31.9589C0.558954 32.0979 0.436279 32.2802 0.369621 32.4853C0.302963 32.6904 0.294978 32.91 0.346568 33.1194C0.398158 33.3287 0.507267 33.5195 0.661571 33.6701ZM5.08191 33.4861C5.26741 33.4592 5.44358 33.3875 5.59522 33.2773C5.74687 33.1672 5.86946 33.0218 5.95243 32.8537L6.45713 31.8313L6.96169 32.8537C7.04465 33.0218 7.16724 33.1672 7.31889 33.2773C7.47054 33.3875 7.6467 33.4592 7.8322 33.4861L8.96055 33.6502L8.14424 34.446C8.01 34.5768 7.9096 34.7384 7.85169 34.9167C7.79378 35.095 7.78009 35.2848 7.81182 35.4695L8.00448 36.5933L6.99522 36.0627C6.8293 35.9755 6.64465 35.9299 6.4572 35.9299C6.26975 35.9299 6.08511 35.9755 5.91918 36.0627L4.90992 36.5933L5.10273 35.4695C5.13445 35.2848 5.12077 35.095 5.06286 34.9167C5.00495 34.7384 4.90455 34.5768 4.77031 34.446L3.95385 33.6502L5.08191 33.4861Z" fill="#EF7E20"/>
<path d="M18.8125 39.625H22.2812V41.9375H18.8125V39.625Z" fill="#EF7E20"/>
<path d="M18.8125 45.4062H22.2812V47.7188H18.8125V45.4062Z" fill="#EF7E20"/>
<path d="M18.8125 51.1875H22.2812V53.5H18.8125V51.1875Z" fill="#EF7E20"/>
<path d="M18.8125 56.9688H22.2812V59.2812H18.8125V56.9688Z" fill="#EF7E20"/>
<path d="M65.0625 54.6562H62.75C61.5238 54.6576 60.3482 55.1453 59.4812 56.0124C58.6141 56.8795 58.1264 58.055 58.125 59.2812V61.6623C57.2913 61.7953 56.4997 62.1197 55.8125 62.6101V56.9688H53.5V62.75H45.4062V36.1562H53.5V54.6562H55.8125V35C55.8125 34.6933 55.6907 34.3992 55.4738 34.1824C55.257 33.9656 54.9629 33.8438 54.6562 33.8438H45.4062V28.0625C45.4062 27.7558 45.2844 27.4617 45.0676 27.2449C44.8508 27.0281 44.5567 26.9062 44.25 26.9062H40.7812V24.5938C40.7812 24.2871 40.6594 23.993 40.4426 23.7762C40.2258 23.5593 39.9317 23.4375 39.625 23.4375H30.375C30.0683 23.4375 29.7742 23.5593 29.5574 23.7762C29.3406 23.993 29.2188 24.2871 29.2188 24.5938V26.9062H25.75C25.4433 26.9062 25.1492 27.0281 24.9324 27.2449C24.7156 27.4617 24.5938 27.7558 24.5938 28.0625V33.8438H15.3438C15.0371 33.8438 14.743 33.9656 14.5262 34.1824C14.3093 34.3992 14.1875 34.6933 14.1875 35V41.9375H16.5V36.1562H24.5938V62.75H16.5V44.25H14.1875V62.6101C13.5003 62.1197 12.7087 61.7953 11.875 61.6623V59.2812C11.8736 58.055 11.3859 56.8795 10.5188 56.0124C9.65179 55.1453 8.4762 54.6576 7.25 54.6562H4.9375C3.7113 54.6576 2.53571 55.1453 1.66865 56.0124C0.801595 56.8795 0.313877 58.055 0.3125 59.2812V68.5312C0.3125 68.8379 0.434319 69.132 0.651158 69.3488C0.867997 69.5657 1.16209 69.6875 1.46875 69.6875H68.5312C68.8379 69.6875 69.132 69.5657 69.3488 69.3488C69.5657 69.132 69.6875 68.8379 69.6875 68.5312V59.2812C69.6861 58.055 69.1984 56.8795 68.3313 56.0124C67.4643 55.1453 66.2887 54.6576 65.0625 54.6562ZM31.5312 25.75H38.4688V30.375H31.5312V25.75ZM2.625 59.2812C2.62573 58.6682 2.8696 58.0804 3.30312 57.6469C3.73664 57.2133 4.32441 56.9695 4.9375 56.9688H7.25C7.86309 56.9695 8.45086 57.2133 8.88438 57.6469C9.3179 58.0804 9.56177 58.6682 9.5625 59.2812V61.6623C8.27327 61.8702 7.10008 62.53 6.25274 63.5237C5.4054 64.5174 4.93919 65.78 4.9375 67.0859V67.375H2.625V59.2812ZM7.25 67.375V67.0859C7.25096 66.2429 7.58627 65.4347 8.18236 64.8386C8.77847 64.2425 9.58668 63.9072 10.4297 63.9062H11.0078C11.8508 63.9072 12.659 64.2425 13.2551 64.8386C13.8512 65.4347 14.1865 66.2429 14.1875 67.0859V67.375H7.25ZM16.5 65.0625H24.5938V67.375H16.5V65.0625ZM26.9062 29.2188H29.2188V31.5312C29.2188 31.8379 29.3406 32.132 29.5574 32.3488C29.7742 32.5657 30.0683 32.6875 30.375 32.6875H39.625C39.9317 32.6875 40.2258 32.5657 40.4426 32.3488C40.6594 32.132 40.7812 31.8379 40.7812 31.5312V29.2188H43.0938V67.375H39.625V59.2812C39.625 58.9746 39.5032 58.6805 39.2863 58.4637C39.0695 58.2468 38.7754 58.125 38.4688 58.125H31.5312C31.2246 58.125 30.9305 58.2468 30.7137 58.4637C30.4968 58.6805 30.375 58.9746 30.375 59.2812V67.375H26.9062V29.2188ZM32.6875 67.375V60.4375H37.3125V67.375H32.6875ZM45.4062 65.0625H53.5V67.375H45.4062V65.0625ZM55.8125 67.375V67.0859C55.8135 66.2429 56.1488 65.4347 56.7449 64.8386C57.341 64.2425 58.1492 63.9072 58.9922 63.9062H59.5703C60.4133 63.9072 61.2215 64.2425 61.8176 64.8386C62.4137 65.4347 62.749 66.2429 62.75 67.0859V67.375H55.8125ZM67.375 67.375H65.0625V67.0859C65.0608 65.78 64.5946 64.5174 63.7473 63.5237C62.8999 62.53 61.7267 61.8702 60.4375 61.6623V59.2812C60.4382 58.6682 60.6821 58.0804 61.1156 57.6469C61.5491 57.2133 62.1369 56.9695 62.75 56.9688H65.0625C65.6756 56.9695 66.2634 57.2133 66.6969 57.6469C67.1304 58.0804 67.3743 58.6682 67.375 59.2812V67.375Z" fill="#EF7E20"/>
<path d="M47.7188 51.1875H51.1875V53.5H47.7188V51.1875Z" fill="#EF7E20"/>
<path d="M47.7188 56.9688H51.1875V59.2812H47.7188V56.9688Z" fill="#EF7E20"/>
<path d="M47.7188 39.625H51.1875V41.9375H47.7188V39.625Z" fill="#EF7E20"/>
<path d="M47.7188 45.4062H51.1875V47.7188H47.7188V45.4062Z" fill="#EF7E20"/>
</svg>
