<svg width="48" height="48" viewBox="0 0 48 48" fill="none" xmlns="http://www.w3.org/2000/svg">
<g clip-path="url(#clip0)">
<path d="M1.59998 31.1999H17.6001C18.4834 31.1988 19.199 30.4833 19.2001 29.6V18.3998C19.199 17.5165 18.4834 16.8009 17.6001 16.7998H1.59998C0.716675 16.8009 0.00109864 17.5165 0 18.3998V29.6C0.00109864 30.4833 0.716675 31.1988 1.59998 31.1999ZM1.59998 18.3998H17.6001L17.6008 29.6H1.59998V18.3998Z" fill="#EF7E20"/>
<path d="M1.59998 47.9998H7.99988C8.88318 47.9987 9.59912 47.2831 9.59985 46.3998V35.1996C9.59912 34.3167 8.88318 33.6007 7.99988 33.5996H1.59998C0.716675 33.6007 0.00109864 34.3167 0 35.1996V46.3998C0.00109864 47.2831 0.716675 47.9987 1.59998 47.9998ZM1.59998 35.1996H7.99988L8.00098 46.3998H1.59998V35.1996Z" fill="#EF7E20"/>
<path d="M46.4 0H1.59998C0.716675 0.00109864 0.00109864 0.716675 0 1.59998V12.8002C0.00109864 13.6831 0.716675 14.399 1.59998 14.4001H23.6279C24.0791 15.167 24.4662 15.9697 24.7859 16.7999H23.1998C22.3169 16.801 21.601 17.5166 21.5999 18.3999V29.6001C21.601 30.4834 22.3169 31.199 23.1998 31.2001H24.7397C24.7288 31.5615 24.7075 31.9248 24.7115 32.2819C24.717 32.7052 24.7375 33.1487 24.765 33.5999H13.6C12.7167 33.601 12.0011 34.3169 12 35.1998V46.4C12.0011 47.2833 12.7167 47.9989 13.6 48H46.4C47.2833 47.9989 47.9989 47.2833 48 46.4V1.59998C47.9989 0.716675 47.2833 0.00109864 46.4 0V0ZM1.59998 1.59998H14.9941C14.9429 2.72095 14.9791 3.84412 15.1033 4.95923C15.546 7.2561 17.339 8.41589 18.921 9.43945L19.1781 9.60571C20.4833 10.4674 21.6295 11.5481 22.5667 12.8002H1.59998V1.59998ZM23.1998 18.3999H25.299C25.6644 19.7347 25.8625 21.1099 25.8882 22.4934C25.8651 23.7294 25.6948 24.958 25.3813 26.1537C25.2623 26.6931 25.1429 27.2369 25.0444 27.7972C24.9404 28.3832 24.8723 28.9896 24.821 29.6001H23.1998V18.3999ZM13.6 35.1998H24.9243C25.3506 39.278 26.9052 43.1565 29.4137 46.4H13.6V35.1998ZM46.4 46.4H31.5359C28.5304 43.0605 26.7294 38.8103 26.421 34.3279C26.3562 33.6105 26.3196 32.915 26.3119 32.2614C26.3038 31.6644 26.3203 31.0551 26.3599 30.4384C26.3969 29.6459 26.484 28.8567 26.6199 28.0752C26.7155 27.5372 26.8301 27.015 26.9443 26.4972C27.286 25.1807 27.4688 23.8282 27.4889 22.4681C27.46 20.7356 27.186 19.0159 26.6752 17.3599C26.2196 15.8914 25.5795 14.4869 24.7694 13.1799C23.58 11.2126 21.9686 9.53394 20.0515 8.26501L19.7897 8.09546C18.2867 7.1228 16.9874 6.28308 16.6772 4.67834C16.5831 3.65515 16.5527 2.62683 16.5861 1.59998H46.4V46.4Z" fill="#EF7E20"/>
<path d="M18.2812 4.50326C18.5211 5.33455 19.3407 5.89925 20.6587 6.75106L20.9289 6.92647C23.0387 8.31954 24.8129 10.1641 26.1225 12.327C27.0091 13.757 27.7097 15.294 28.2081 16.9013C28.3407 17.3228 28.7896 17.5568 29.2111 17.4246C29.6327 17.2921 29.867 16.8427 29.7345 16.4212C29.1961 14.6861 28.4392 13.0264 27.4823 11.4821C26.0489 9.12008 24.1087 7.10628 21.802 5.58577L21.528 5.40816C20.9044 5.05953 20.3353 4.62154 19.8387 4.10811L19.8263 3.94661C19.797 3.50533 19.4157 3.17171 18.9748 3.20101C18.5339 3.23067 18.2003 3.6119 18.2296 4.05282C18.2376 4.16744 18.2453 4.27144 18.2534 4.35897C18.2585 4.40767 18.2677 4.45601 18.2812 4.50326Z" fill="#EF7E20"/>
<path d="M29.0874 22.4399C29.069 23.9418 28.8706 25.4359 28.4959 26.8905C28.3897 27.3713 28.2835 27.8551 28.196 28.3524C28.0693 29.0801 27.9891 29.8147 27.9554 30.5526C27.9195 31.1147 27.9045 31.6838 27.9114 32.2423C27.9188 32.8546 27.9532 33.5028 28.014 34.1741C28.278 37.9398 29.6649 41.5397 31.9951 44.5096C32.1741 44.7396 32.4642 44.8539 32.752 44.8085C33.0399 44.7627 33.2801 44.5642 33.379 44.2903C33.4782 44.016 33.4204 43.7098 33.2281 43.4908C31.1165 40.7611 29.8568 37.4689 29.607 34.0269C29.551 33.4006 29.5191 32.7938 29.5118 32.2225C29.5045 31.704 29.5184 31.1777 29.5532 30.6427C29.5832 29.9681 29.6561 29.2965 29.7711 28.6311C29.8553 28.1569 29.9578 27.694 30.0695 27.1846C30.468 25.6252 30.6752 24.0231 30.6873 22.4136C30.6804 21.9771 30.324 21.6266 29.8875 21.627H29.8743C29.6619 21.6302 29.4598 21.7178 29.3126 21.8705C29.165 22.0228 29.0841 22.2279 29.0874 22.4399Z" fill="#EF7E20"/>
</g>
<defs>
<clipPath id="clip0">
<rect width="48" height="48" fill="white"/>
</clipPath>
</defs>
</svg>
