<svg width="16" height="16" viewBox="0 0 16 16" fill="none" xmlns="http://www.w3.org/2000/svg"><path stroke="#EF7E20" d="M0.5 0.5H15.5V15.5H0.5z"/><g clip-path="url(#clip0)"><path d="M13.8765 3.45172C13.7077 3.27692 13.4291 3.27207 13.2543 3.44089C13.2507 3.44442 13.2471 3.44803 13.2435 3.45172L6.07459 10.6207L3.74567 8.29173C3.57087 8.12292 3.29233 8.12776 3.12352 8.30256C2.95883 8.47308 2.95883 8.74339 3.12352 8.91391L5.76352 11.5539C5.93535 11.7257 6.21386 11.7257 6.38567 11.5539L13.8657 4.0739C14.0405 3.90506 14.0453 3.62652 13.8765 3.45172Z" fill="#EF7E20"/></g><defs><clipPath id="clip0"><path fill="#fff" transform="translate(3 2)" d="M0 0H11V11H0z"/></clipPath></defs></svg>